{
.appVersion = "3413";
.formatVersion = 3;
DisplayStrings = (
"nnmmnnmmnnnnnnoonnannbnncnndnnennfnngnnhnninnjnnknnlnnmnnnnnonnpnnqnnrnnsnntnnunnvnnwnnxnnynnznnännönnünnß
nnAnnBnnCnnDnnEnnFnnGnnHnnInnJnnKnnLnnMnnNnnOnnPnnQnnRnnSnnTnnUnnVnnWnnXnnYnnZnnÄnnÖnnÜnn&nn.nn,nn:nn;nn-nn!nnnnnnnn(nn)nnnn?nnnn@nn1nn2nn3nn4nn5nn6nn7nn8nn9nn0nnennnernnchnndennndnnienneinntenninnngennunnnesnnhennrenndinnnennngnnstnnscnnisnnbennannnsennitnnssnntinnicnnnannlinnuenneinnnichnnndenndiennundnndernnchennendnngennnschnnchtnndennninennngennnunnnungnndasnnhennnindnnenwnnensnniesnnstenntennnerennlicnnachnnndinnssennausnnersnnebennerdnnenunnnennnraunnistnnnicnnsennnenennndannternnassnnenannvernnwirnnwiennedennesennausnnbennnbernneitnnentnnestnnseinnandnnessnnannnnesinngesnnnscnnnwinnteinneninnigennaennnerannernnnrdennrennntunnningnnstannsiennuernnegennecknnerunnmmennnernnndsnnnstnnrunnnsicnnennnninsnnmernnreinneignnengnnergnnertnnerznnfrannhrennheinnleinnneinnnaunnsgennttennweinnabennchdnndesnnntennrgenntesnnunsnnvornndem "
);
axes = (
{
name = Weight;
tag = wght;
},
{
name = Width;
tag = wdth;
}
);
classes = (
{
automatic = 1;
code = "A Aacute Acircumflex Adieresis Agrave Aring Atilde B C D E Eacute Ecircumflex Edieresis Egrave F G H I J K L M N Ntilde O Oacute Ocircumflex Odieresis Ograve Otilde P Q R S T U Uacute Ucircumflex Udieresis Ugrave V W X Y Z";
name = Uppercase;
}
);
date = "2025-02-16 11:19:15 +0000";
familyName = OHamburgC;
featurePrefixes = (
{
automatic = 1;
code = "languagesystem DFLT dflt;
";
name = Languagesystems;
},
{
code = "";
name = Prefix;
}
);
features = (
{
automatic = 1;
code = "feature c2sc;
feature smcp;
feature case;
";
tag = aalt;
},
{
automatic = 1;
code = "lookup ccmp_DFLT_1 {
	lookupflag 0;
	sub brevecomb acutecomb by brevecomb_acutecomb;
	sub brevecomb gravecomb by brevecomb_gravecomb;
	sub brevecomb hookabovecomb by brevecomb_hookabovecomb;
	sub brevecomb tildecomb by brevecomb_tildecomb;
	sub circumflexcomb acutecomb by circumflexcomb_acutecomb;

glyphs = (
{
glyphname = A;
lastChange = "2025-04-24 18:06:37 +0000";
layers = (
{
anchors = (
{
name = bottom;
pos = (305,0);
},
{
name = ogonek;
pos = (582,10);
},
{
name = top;
pos = (486,616);
}
);
color = 4;
layerId = m003;
shapes = (
{
closed = 1;
nodes = (
(632,0,l),
(638,22,l),
(573,36,o),
(559,61,o),
(548,132,cs),
(526,303,o),
(504,477,o),
(482,648,c),
(422,576,l),
(423,550,l),
(473,136,ls),
(485,39,o),
(467,40,o),
(386,22,c),
(380,0,l)
);
},
{
closed = 1;
nodes = (
(218,0,l),
(224,22,l),
(152,28,o),
(132,54,o),
(178,127,cs),
(452,564,l),
(422,576,l),
(311,404,o),
(189,195,o),
(96,80,cs),
(68,46,o),
(17,22,o),
(-28,22,c),
(-34,0,l)
);
},
{
closed = 1;
nodes = (
(486,258,l),
(482,298,l),
(259,298,l),
(232,258,l)
);
}
);
width = 706;
},
{
anchors = (
{
name = bottom;
pos = (305,0);
},
{
name = ogonek;
pos = (582,10);
},
{
name = top;
pos = (515,616);
}
);
color = 4;
layerId = m005;
shapes = (
{
closed = 1;
nodes = (
(632,0,l),
(638,22,l),
(573,36,o),
(559,61,o),
(548,132,cs),
(526,303,o),
(504,477,o),
(482,648,c),
(422,576,l),
(423,550,l),
(473,136,ls),
(485,39,o),
(467,40,o),
(386,22,c),
(380,0,l)
);
},
{
closed = 1;
nodes = (
(218,0,l),
(224,22,l),
(152,28,o),
(132,54,o),
(178,127,cs),
(452,564,l),
(422,576,l),
(311,404,o),
(189,195,o),
(96,80,cs),
(68,46,o),
(17,22,o),
(-28,22,c),
(-34,0,l)
);
},
{
closed = 1;
nodes = (
(486,258,l),
(482,298,l),
(259,298,l),
(232,258,l)
);
}
);
width = 706;
},
{
anchors = (
{
name = bottom;
pos = (305,0);
},
{
name = ogonek;
pos = (582,10);
},
{
name = top;
pos = (515,616);
}
);
color = 4;
layerId = m006;
shapes = (
{
closed = 1;
nodes = (
(632,0,l),
(638,22,l),
(573,36,o),
(559,61,o),
(548,132,cs),
(526,303,o),
(504,477,o),
(482,648,c),
(422,576,l),
(423,550,l),
(473,136,ls),
(485,39,o),
(467,40,o),
(386,22,c),
(380,0,l)
);
},
{
closed = 1;
nodes = (
(218,0,l),
(224,22,l),
(152,28,o),
(132,54,o),
(178,127,cs),
(452,564,l),
(422,576,l),
(311,404,o),
(189,195,o),
(96,80,cs),
(68,46,o),
(17,22,o),
(-28,22,c),
(-34,0,l)
);
},
{
closed = 1;
nodes = (
(486,258,l),
(482,298,l),
(259,298,l),
(232,258,l)
);
}
);
width = 706;
},
{
anchors = (
{
name = bottom;
pos = (305,0);
},
{
name = ogonek;
pos = (582,10);
},
{
name = top;
pos = (489,616);
}
);
color = 4;
layerId = m004;
shapes = (
{
closed = 1;
nodes = (
(632,0,l),
(638,22,l),
(573,36,o),
(559,61,o),
(548,132,cs),
(526,303,o),
(504,477,o),
(482,648,c),
(422,576,l),
(423,550,l),
(473,136,ls),
(485,39,o),
(467,40,o),
(386,22,c),
(380,0,l)
);
},
{
closed = 1;
nodes = (
(218,0,l),
(224,22,l),
(152,28,o),
(132,54,o),
(178,127,cs),
(452,564,l),
(422,576,l),
(311,404,o),
(189,195,o),
(96,80,cs),
(68,46,o),
(17,22,o),
(-28,22,c),
(-34,0,l)
);
},
{
closed = 1;
nodes = (
(486,258,l),
(482,298,l),
(259,298,l),
(232,258,l)
);
}
);
width = 706;
}
);
unicode = 65;
},
{
glyphname = B;
lastChange = "2025-04-24 18:07:01 +0000";
layers = (
{
anchors = (
{
name = bottom;
pos = (237,0);
},
{
name = center;
pos = (138,154);
},
{
name = top;
pos = (447,616);
}
);
color = 2;
guides = (
{
angle = 270;
pos = (-15,13);
}
);
layerId = m003;
shapes = (
{
closed = 1;
nodes = (
(-18,0,l),
(253,0,l),
(262,37,l),
(214,37,o),
(179,41,o),
(171,47,cs),
(161,55,o),
(158,73,o),
(162,88,cs),
(179,152,o),
(235,358,o),
(293,577,c),
(323,578,o),
(362,579,o),
(387,579,c),
(397,616,l),
(146,616,l),
(140,594,l),
(172,591,o),
(196,581,o),
(204,575,cs),
(211,570,o),
(216,549,o),
(210,525,cs),
(187,431,o),
(164,338,o),
(154,302,cs),
(114,160,o),
(89,71,o),
(94,88,cs),
(88,67,o),
(78,47,o),
(67,40,cs),
(57,33,o),
(31,28,o),
(-12,22,c)
);
},
{
closed = 1;
nodes = (
(236,308,o),
(263,308,o),
(263,308,cs),
(425,319,o),
(536,383,o),
(545,476,cs),
(552,552,o),
(497,616,o),
(397,616,c),
(387,579,l),
(450,579,o),
(479,523,o),
(470,457,cs),
(460,381,o),
(381,338,o),
(264,338,cs),
(204,338,l),
(197,308,l)
);
},
{
closed = 1;
nodes = (
(395,0,o),
(518,82,o),
(515,201,cs),
(513,269,o),
(464,322,o),
(368,328,cs),
(186,340,l),
(177,304,l),
(219,304,o),
(248,304,o),
(248,304,cs),
(371,309,o),
(438,259,o),
(437,181,cs),
(436,97,o),
(356,37,o),
(262,37,c),
(253,0,l)
);
}
);
width = 577;
},
{
anchors = (
{
name = bottom;
pos = (237,0);
},
{
name = center;
pos = (138,154);
},
{
name = top;
pos = (447,616);
}
);
color = 2;
guides = (
{
angle = 270;
pos = (-15,13);
}
);
layerId = m005;
shapes = (
{
closed = 1;
nodes = (
(-18,0,l),
(253,0,l),
(262,37,l),
(214,37,o),
(179,41,o),
(171,47,cs),
(161,55,o),
(158,73,o),
(162,88,cs),
(179,152,o),
(235,358,o),
(293,577,c),
(323,578,o),
(362,579,o),
(387,579,c),
(397,616,l),
(146,616,l),
(140,594,l),
(172,591,o),
(196,581,o),
(204,575,cs),
(211,570,o),
(216,549,o),
(210,525,cs),
(187,431,o),
(164,338,o),
(154,302,cs),
(114,160,o),
(89,71,o),
(94,88,cs),
(88,67,o),
(78,47,o),
(67,40,cs),
(57,33,o),
(31,28,o),
(-12,22,c)
);
},
{
closed = 1;
nodes = (
(236,308,o),
(263,308,o),
(263,308,cs),
(425,319,o),
(536,383,o),
(545,476,cs),
(552,552,o),
(497,616,o),
(397,616,c),
(387,579,l),
(450,579,o),
(479,523,o),
(470,457,cs),
(460,381,o),
(381,338,o),
(264,338,cs),
(204,338,l),
(197,308,l)
);
},
{
closed = 1;
nodes = (
(395,0,o),
(518,82,o),
(515,201,cs),
(513,269,o),
(464,322,o),
(368,328,cs),
(186,340,l),
(177,304,l),
(219,304,o),
(248,304,o),
(248,304,cs),
(371,309,o),
(438,259,o),
(437,181,cs),
(436,97,o),
(356,37,o),
(262,37,c),
(253,0,l)
);
}
);
width = 577;
},
{
anchors = (
{
name = bottom;
pos = (237,0);
},
{
name = center;
pos = (138,154);
},
{
name = top;
pos = (447,616);
}
);
color = 2;
guides = (
{
angle = 270;
pos = (-15,13);
}
);
layerId = m006;
shapes = (
{
closed = 1;
nodes = (
(-18,0,l),
(253,0,l),
(262,37,l),
(214,37,o),
(179,41,o),
(171,47,cs),
(161,55,o),
(158,73,o),
(162,88,cs),
(179,152,o),
(235,358,o),
(293,577,c),
(323,578,o),
(362,579,o),
(387,579,c),
(397,616,l),
(146,616,l),
(140,594,l),
(172,591,o),
(196,581,o),
(204,575,cs),
(211,570,o),
(216,549,o),
(210,525,cs),
(187,431,o),
(164,338,o),
(154,302,cs),
(114,160,o),
(89,71,o),
(94,88,cs),
(88,67,o),
(78,47,o),
(67,40,cs),
(57,33,o),
(31,28,o),
(-12,22,c)
);
},
{
closed = 1;
nodes = (
(236,308,o),
(263,308,o),
(263,308,cs),
(425,319,o),
(536,383,o),
(545,476,cs),
(552,552,o),
(497,616,o),
(397,616,c),
(387,579,l),
(450,579,o),
(479,523,o),
(470,457,cs),
(460,381,o),
(381,338,o),
(264,338,cs),
(204,338,l),
(197,308,l)
);
},
{
closed = 1;
nodes = (
(395,0,o),
(518,82,o),
(515,201,cs),
(513,269,o),
(464,322,o),
(368,328,cs),
(186,340,l),
(177,304,l),
(219,304,o),
(248,304,o),
(248,304,cs),
(371,309,o),
(438,259,o),
(437,181,cs),
(436,97,o),
(356,37,o),
(262,37,c),
(253,0,l)
);
}
);
width = 577;
},
{
anchors = (
{
name = bottom;
pos = (237,0);
},
{
name = center;
pos = (138,154);
},
{
name = top;
pos = (447,616);
}
);
color = 2;
guides = (
{
angle = 270;
pos = (-15,13);
}
);
layerId = m004;
shapes = (
{
closed = 1;
nodes = (
(-18,0,l),
(253,0,l),
(262,37,l),
(214,37,o),
(179,41,o),
(171,47,cs),
(161,55,o),
(158,73,o),
(162,88,cs),
(179,152,o),
(235,358,o),
(293,577,c),
(323,578,o),
(362,579,o),
(387,579,c),
(397,616,l),
(146,616,l),
(140,594,l),
(172,591,o),
(196,581,o),
(204,575,cs),
(211,570,o),
(216,549,o),
(210,525,cs),
(187,431,o),
(164,338,o),
(154,302,cs),
(114,160,o),
(89,71,o),
(94,88,cs),
(88,67,o),
(78,47,o),
(67,40,cs),
(57,33,o),
(31,28,o),
(-12,22,c)
);
},
{
closed = 1;
nodes = (
(236,308,o),
(263,308,o),
(263,308,cs),
(425,319,o),
(536,383,o),
(545,476,cs),
(552,552,o),
(497,616,o),
(397,616,c),
(387,579,l),
(450,579,o),
(479,523,o),
(470,457,cs),
(460,381,o),
(381,338,o),
(264,338,cs),
(204,338,l),
(197,308,l)
);
},
{
closed = 1;
nodes = (
(395,0,o),
(518,82,o),
(515,201,cs),
(513,269,o),
(464,322,o),
(368,328,cs),
(186,340,l),
(177,304,l),
(219,304,o),
(248,304,o),
(248,304,cs),
(371,309,o),
(438,259,o),
(437,181,cs),
(436,97,o),
(356,37,o),
(262,37,c),
(253,0,l)
);
}
);
width = 577;
}
);
metricLeft = H;
unicode = 66;
},
{
glyphname = C;
lastChange = "2025-04-24 18:06:37 +0000";
layers = (
{
anchors = (
{
name = bottom;
pos = (274,0);
},
{
name = top;
pos = (484,616);
}
);
background = {
shapes = (
{
closed = 1;
nodes = (
(515,-8,o),
(665,123,o),
(695,308,cs),
(729,507,o),
(626,648,o),
(446,648,cs),
(264,648,o),
(114,518,o),
(83,334,cs),
(50,134,o),
(153,-8,o),
(332,-8,cs)
);
},
{
closed = 1;
nodes = (
(238,30,o),
(152,139,o),
(160,275,cs),
(171,462,o),
(289,610,o),
(426,610,cs),
(540,610,o),
(624,502,o),
(615,366,cs),
(605,179,o),
(489,30,o),
(353,30,cs)
);
}
);
};
backgroundImage = {
imagePath = "../../Desktop/Bildschirmfoto 2024-12-24 um 08.52.09.png";
pos = (639,-952);
scale = (-1.4,1.4);
slant = (2,0);
};
color = 4;
layerId = m003;
shapes = (
{
closed = 1;
nodes = (
(406,-8,o),
(501,11,o),
(562,38,c),
(571,53,o),
(600,121,o),
(633,201,c),
(601,200,l),
(555,100,o),
(452,30,o),
(353,30,cs),
(231,30,o),
(151,132,o),
(160,275,cs),
(172,471,o),
(282,610,o),
(426,610,cs),
(532,610,o),
(601,531,o),
(594,420,c),
(621,420,l),
(644,503,o),
(662,566,o),
(664,571,c),
(606,616,o),
(516,648,o),
(446,648,cs),
(264,648,o),
(114,518,o),
(83,334,cs),
(49,134,o),
(152,-8,o),
(332,-8,cs)
);
}
);
width = 693;
},
{
anchors = (
{
name = bottom;
pos = (408,0);
},
{
name = top;
pos = (407,616);
}
);
associatedMasterId = m003;
background = {
shapes = (
{
closed = 1;
nodes = (
(418,588,l),
(514,588,o),
(584,528,o),
(589,444,c),
(620,444,l),
(622,495,o),
(629,558,o),
(636,595,c),
(586,614,o),
(492,627,o),
(410,627,c)
);
}
);
};
backgroundImage = {
imagePath = "../../Desktop/Bildschirmfoto 2024-12-24 um 08.52.09.png";
pos = (714,-952);
scale = (-1.4,1.4);
};
color = 4;
layerId = "A8205263-60D0-4B63-B521-8F6B441CF343";
name = "11. Jan. 25, 13:19";
shapes = (
{
closed = 1;
nodes = (
(479,-11,o),
(572,9,o),
(628,38,c),
(646,106,o),
(662,174,o),
(666,201,c),
(630,200,l),
(606,102,o),
(520,33,o),
(422,33,cs),
(268,33,o),
(156,158,o),
(156,335,cs),
(156,482,o),
(265,586,o),
(414,586,cs),
(506,586,o),
(582,522,o),
(597,432,c),
(637,432,l),
(634,599,l),
(584,573,l),
(551,605,o),
(477,627,o),
(404,627,cs),
(197,627,o),
(54,496,o),
(54,312,cs),
(54,123,o),
(197,-11,o),
(404,-11,cs)
);
}
);
width = 720;
},
{
anchors = (
{
name = bottom;
pos = (283,0);
},
{
name = top;
pos = (493,616);
}
);
background = {
shapes = (
{
closed = 1;
nodes = (
(352,588,l),
(448,588,o),
(518,528,o),
(523,444,c),
(554,444,l),
(556,495,o),
(563,558,o),
(570,595,c),
(520,614,o),
(426,627,o),
(344,627,c)
);
},
{
closed = 1;
nodes = (
(363,-8,cs),
(536,-8,o),
(677,108,o),
(703,272,cs),
(743,481,o),
(628,628,o),
(425,628,cs),
(252,628,o),
(111,512,o),
(85,348,cs),
(45,139,o),
(160,-8,o)
);
},
{
closed = 1;
nodes = (
(240,32,o),
(143,173,o),
(163,372,cs),
(173,499,o),
(273,588,o),
(405,588,cs),
(553,588,o),
(644,447,o),
(624,248,cs),
(614,121,o),
(520,32,o),
(396,32,cs)
);
}
);
};
backgroundImage = {
imagePath = "../../Desktop/Bildschirmfoto 2024-12-24 um 08.52.09.png";
pos = (648,-952);
scale = (-1.4,1.4);
};
color = 4;
layerId = m005;
shapes = (
{
closed = 1;
nodes = (
(423,-8,o),
(510,11,o),
(571,38,c),
(584,62,o),
(613,130,o),
(642,201,c),
(610,200,l),
(565,102,o),
(476,32,o),
(396,32,cs),
(240,32,o),
(143,173,o),
(163,372,cs),
(176,499,o),
(276,588,o),
(405,588,cs),
(528,588,o),
(610,510,o),
(603,400,c),
(630,400,l),
(650,472,o),
(668,535,o),
(673,551,c),
(615,596,o),
(512,628,o),
(425,628,cs),
(257,628,o),
(116,512,o),
(85,348,cs),
(45,139,o),
(160,-8,o),
(363,-8,cs)
);
}
);
width = 702;
},
{
anchors = (
{
name = bottom;
pos = (408,0);
},
{
name = top;
pos = (407,616);
}
);
associatedMasterId = m005;
background = {
shapes = (
{
closed = 1;
nodes = (
(418,588,l),
(514,588,o),
(584,528,o),
(589,444,c),
(620,444,l),
(622,495,o),
(629,558,o),
(636,595,c),
(586,614,o),
(492,627,o),
(410,627,c)
);
}
);
};
backgroundImage = {
imagePath = "../../Desktop/Bildschirmfoto 2024-12-24 um 08.52.09.png";
pos = (714,-952);
scale = (-1.4,1.4);
};
color = 4;
layerId = "7B8EC43E-E829-4C73-A073-7A2C9761AD98";
name = "11. Jan. 25, 13:19";
shapes = (
{
closed = 1;
nodes = (
(479,-11,o),
(572,9,o),
(628,38,c),
(646,106,o),
(662,174,o),
(666,201,c),
(630,200,l),
(606,102,o),
(520,33,o),
(422,33,cs),
(268,33,o),
(156,158,o),
(156,335,cs),
(156,482,o),
(265,586,o),
(414,586,cs),
(506,586,o),
(582,522,o),
(597,432,c),
(637,432,l),
(634,599,l),
(584,573,l),
(551,605,o),
(477,627,o),
(404,627,cs),
(197,627,o),
(54,496,o),
(54,312,cs),
(54,123,o),
(197,-11,o),
(404,-11,cs)
);
}
);
width = 720;
},
{
anchors = (
{
name = bottom;
pos = (283,0);
},
{
name = top;
pos = (493,616);
}
);
background = {
shapes = (
{
closed = 1;
nodes = (
(352,588,l),
(448,588,o),
(518,528,o),
(523,444,c),
(554,444,l),
(556,495,o),
(563,558,o),
(570,595,c),
(520,614,o),
(426,627,o),
(344,627,c)
);
},
{
closed = 1;
nodes = (
(363,-8,cs),
(536,-8,o),
(677,108,o),
(703,272,cs),
(743,481,o),
(628,628,o),
(425,628,cs),
(252,628,o),
(111,512,o),
(85,348,cs),
(45,139,o),
(160,-8,o)
);
},
{
closed = 1;
nodes = (
(240,32,o),
(143,173,o),
(163,372,cs),
(173,499,o),
(273,588,o),
(405,588,cs),
(553,588,o),
(644,447,o),
(624,248,cs),
(614,121,o),
(520,32,o),
(396,32,cs)
);
}
);
};
backgroundImage = {
imagePath = "../../Desktop/Bildschirmfoto 2024-12-24 um 08.52.09.png";
pos = (648,-952);
scale = (-1.4,1.4);
};
color = 4;
layerId = m006;
shapes = (
{
closed = 1;
nodes = (
(423,-8,o),
(510,11,o),
(571,38,c),
(584,62,o),
(613,130,o),
(642,201,c),
(610,200,l),
(565,102,o),
(476,32,o),
(396,32,cs),
(240,32,o),
(143,173,o),
(163,372,cs),
(176,499,o),
(276,588,o),
(405,588,cs),
(528,588,o),
(610,510,o),
(603,400,c),
(630,400,l),
(650,472,o),
(668,535,o),
(673,551,c),
(615,596,o),
(512,628,o),
(425,628,cs),
(257,628,o),
(116,512,o),
(85,348,cs),
(45,139,o),
(160,-8,o),
(363,-8,cs)
);
}
);
width = 702;
},
{
anchors = (
{
name = bottom;
pos = (408,0);
},
{
name = top;
pos = (407,616);
}
);
associatedMasterId = m006;
background = {
shapes = (
{
closed = 1;
nodes = (
(418,588,l),
(514,588,o),
(584,528,o),
(589,444,c),
(620,444,l),
(622,495,o),
(629,558,o),
(636,595,c),
(586,614,o),
(492,627,o),
(410,627,c)
);
}
);
};
backgroundImage = {
imagePath = "../../Desktop/Bildschirmfoto 2024-12-24 um 08.52.09.png";
pos = (714,-952);
scale = (-1.4,1.4);
};
color = 4;
layerId = "9D4A0B2B-280C-459B-B0CC-D87FC70FE8CF";
name = "11. Jan. 25, 13:19";
shapes = (
{
closed = 1;
nodes = (
(479,-11,o),
(572,9,o),
(628,38,c),
(646,106,o),
(662,174,o),
(666,201,c),
(630,200,l),
(606,102,o),
(520,33,o),
(422,33,cs),
(268,33,o),
(156,158,o),
(156,335,cs),
(156,482,o),
(265,586,o),
(414,586,cs),
(506,586,o),
(582,522,o),
(597,432,c),
(637,432,l),
(634,599,l),
(584,573,l),
(551,605,o),
(477,627,o),
(404,627,cs),
(197,627,o),
(54,496,o),
(54,312,cs),
(54,123,o),
(197,-11,o),
(404,-11,cs)
);
}
);
width = 720;
},
{
anchors = (
{
name = bottom;
pos = (283,0);
},
{
name = top;
pos = (493,616);
}
);
background = {
shapes = (
{
closed = 1;
nodes = (
(352,588,l),
(448,588,o),
(518,528,o),
(523,444,c),
(554,444,l),
(556,495,o),
(563,558,o),
(570,595,c),
(520,614,o),
(426,627,o),
(344,627,c)
);
},
{
closed = 1;
nodes = (
(363,-8,cs),
(536,-8,o),
(677,108,o),
(703,272,cs),
(743,481,o),
(628,628,o),
(425,628,cs),
(252,628,o),
(111,512,o),
(85,348,cs),
(45,139,o),
(160,-8,o)
);
},
{
closed = 1;
nodes = (
(240,32,o),
(143,173,o),
(163,372,cs),
(173,499,o),
(273,588,o),
(405,588,cs),
(553,588,o),
(644,447,o),
(624,248,cs),
(614,121,o),
(520,32,o),
(396,32,cs)
);
}
);
};
backgroundImage = {
imagePath = "../../Desktop/Bildschirmfoto 2024-12-24 um 08.52.09.png";
pos = (648,-952);
scale = (-1.4,1.4);
};
color = 4;
layerId = m004;
shapes = (
{
closed = 1;
nodes = (
(423,-8,o),
(510,11,o),
(571,38,c),
(584,62,o),
(613,130,o),
(642,201,c),
(610,200,l),
(565,102,o),
(476,32,o),
(396,32,cs),
(240,32,o),
(143,173,o),
(163,372,cs),
(176,499,o),
(276,588,o),
(405,588,cs),
(528,588,o),
(610,510,o),
(603,400,c),
(630,400,l),
(650,472,o),
(668,535,o),
(673,551,c),
(615,596,o),
(512,628,o),
(425,628,cs),
(257,628,o),
(116,512,o),
(85,348,cs),
(45,139,o),
(160,-8,o),
(363,-8,cs)
);
}
);
width = 702;
},
{
anchors = (
{
name = bottom;
pos = (408,0);
},
{
name = top;
pos = (407,616);
}
);
associatedMasterId = m004;
background = {
shapes = (
{
closed = 1;
nodes = (
(418,588,l),
(514,588,o),
(584,528,o),
(589,444,c),
(620,444,l),
(622,495,o),
(629,558,o),
(636,595,c),
(586,614,o),
(492,627,o),
(410,627,c)
);
}
);
};
backgroundImage = {
imagePath = "../../Desktop/Bildschirmfoto 2024-12-24 um 08.52.09.png";
pos = (714,-952);
scale = (-1.4,1.4);
};
color = 4;
layerId = "48FEF181-2BA0-4797-BA6A-B399A2CC7205";
name = "11. Jan. 25, 13:19";
shapes = (
{
closed = 1;
nodes = (
(479,-11,o),
(572,9,o),
(628,38,c),
(646,106,o),
(662,174,o),
(666,201,c),
(630,200,l),
(606,102,o),
(520,33,o),
(422,33,cs),
(268,33,o),
(156,158,o),
(156,335,cs),
(156,482,o),
(265,586,o),
(414,586,cs),
(506,586,o),
(582,522,o),
(597,432,c),
(637,432,l),
(634,599,l),
(584,573,l),
(551,605,o),
(477,627,o),
(404,627,cs),
(197,627,o),
(54,496,o),
(54,312,cs),
(54,123,o),
(197,-11,o),
(404,-11,cs)
);
}
);
width = 720;
}
);
metricLeft = O;
metricRight = H;
unicode = 67;
},
{
glyphname = D;
lastChange = "2025-04-24 18:07:01 +0000";
layers = (
{
anchors = (
{
name = bottom;
pos = (298,0);
},
{
name = center;
pos = (221,308);
},
{
name = top;
pos = (508,616);
}
);
background = {
anchors = (
{
name = bottom;
pos = (233,0);
},
{
name = center;
pos = (298,308);
},
{
name = ogonek;
pos = (493,10);
},
{
name = top;
pos = (463,617);
},
{
name = topleft;
pos = (52,616);
},
{
name = topright;
pos = (754,616);
}
);
shapes = (
{
closed = 1;
nodes = (
(516,-8,o),
(666,123,o),
(696,308,cs),
(730,507,o),
(627,648,o),
(447,648,cs),
(265,648,o),
(115,518,o),
(84,334,cs),
(51,134,o),
(154,-8,o),
(333,-8,cs)
);
},
{
closed = 1;
nodes = (
(239,30,o),
(153,139,o),
(161,275,cs),
(172,462,o),
(290,610,o),
(427,610,cs),
(541,610,o),
(625,502,o),
(616,366,cs),
(606,179,o),
(490,30,o),
(354,30,cs)
);
}
);
};
backgroundImage = {
imagePath = "../../Desktop/Bildschirmfoto 2024-12-24 um 13.06.05.png";
pos = (724,-1011);
scale = (-1.4,1.4);
slant = (2,0);
};
color = 2;
layerId = m003;
shapes = (
{
closed = 1;
nodes = (
(-18,0,l),
(5,0,o),
(67,0,o),
(109,0,cs),
(109,0,o),
(190,1,o),
(327,-3,c),
(342,36,l),
(251,36,o),
(181,43,o),
(173,53,cs),
(167,60,o),
(166,75,o),
(170,89,cs),
(197,187,o),
(273,478,o),
(300,576,c),
(378,578,o),
(421,580,o),
(402,580,c),
(420,619,l),
(347,617,o),
(276,616,o),
(276,616,c),
(230,616,o),
(177,616,o),
(146,616,c),
(139,592,l),
(175,585,o),
(204,578,o),
(208,574,cs),
(215,569,o),
(216,549,o),
(210,527,cs),
(152,307,o),
(130,217,o),
(156,312,cs),
(165,347,o),
(139,255,o),
(95,89,cs),
(89,69,o),
(78,49,o),
(68,41,cs),
(60,36,o),
(27,28,o),
(-11,23,c)
);
},
{
closed = 1;
nodes = (
(327,-3,l),
(512,-2,o),
(665,127,o),
(696,308,cs),
(727,490,o),
(613,619,o),
(420,619,c),
(402,580,l),
(536,580,o),
(624,491,o),
(616,366,cs),
(603,173,o),
(490,36,o),
(342,36,c)
);
}
);
width = 729;
},
{
anchors = (
{
name = bottom;
pos = (298,0);
},
{
name = center;
pos = (221,308);
},
{
name = top;
pos = (508,616);
}
);
background = {
anchors = (
{
name = bottom;
pos = (323,0);
},
{
name = center;
pos = (388,308);
},
{
name = ogonek;
pos = (583,10);
},
{
name = top;
pos = (491,617);
},
{
name = topleft;
pos = (142,616);
},
{
name = topright;
pos = (844,616);
}
);
shapes = (
{
closed = 1;
nodes = (
(336,-8,cs),
(509,-8,o),
(650,108,o),
(676,272,cs),
(716,481,o),
(601,628,o),
(398,628,cs),
(225,628,o),
(84,512,o),
(58,348,cs),
(18,139,o),
(133,-8,o)
);
},
{
closed = 1;
nodes = (
(213,32,o),
(116,173,o),
(136,372,cs),
(146,499,o),
(246,588,o),
(378,588,cs),
(526,588,o),
(617,447,o),
(597,248,cs),
(587,121,o),
(493,32,o),
(369,32,cs)
);
}
);
};
backgroundImage = {
imagePath = "../../Desktop/Bildschirmfoto 2024-12-24 um 13.06.05.png";
pos = (724,-1011);
scale = (-1.4,1.4);
};
color = 2;
layerId = m005;
shapes = (
{
closed = 1;
nodes = (
(-18,0,l),
(5,0,o),
(67,0,o),
(109,0,cs),
(109,0,o),
(170,1,o),
(307,-3,c),
(322,36,l),
(243,36,o),
(181,43,o),
(173,53,cs),
(167,60,o),
(166,75,o),
(170,89,cs),
(197,187,o),
(273,478,o),
(300,576,c),
(367,578,o),
(401,580,o),
(382,580,c),
(400,619,l),
(327,617,o),
(276,616,o),
(276,616,c),
(230,616,o),
(177,616,o),
(146,616,c),
(139,592,l),
(175,585,o),
(204,578,o),
(208,574,cs),
(215,569,o),
(216,549,o),
(210,527,cs),
(152,307,o),
(130,217,o),
(156,312,cs),
(165,347,o),
(139,255,o),
(95,89,cs),
(89,69,o),
(78,49,o),
(68,41,cs),
(60,36,o),
(27,28,o),
(-11,23,c)
);
},
{
closed = 1;
nodes = (
(307,-3,l),
(490,-2,o),
(643,120,o),
(676,292,cs),
(713,484,o),
(598,619,o),
(400,619,c),
(382,580,l),
(527,580,o),
(616,451,o),
(597,268,cs),
(583,132,o),
(469,36,o),
(322,36,c)
);
}
);
width = 713;
},
{
anchors = (
{
name = bottom;
pos = (298,0);
},
{
name = center;
pos = (221,308);
},
{
name = top;
pos = (508,616);
}
);
background = {
anchors = (
{
name = bottom;
pos = (323,0);
},
{
name = center;
pos = (388,308);
},
{
name = ogonek;
pos = (583,10);
},
{
name = top;
pos = (491,617);
},
{
name = topleft;
pos = (142,616);
},
{
name = topright;
pos = (844,616);
}
);
shapes = (
{
closed = 1;
nodes = (
(336,-8,cs),
(509,-8,o),
(650,108,o),
(676,272,cs),
(716,481,o),
(601,628,o),
(398,628,cs),
(225,628,o),
(84,512,o),
(58,348,cs),
(18,139,o),
(133,-8,o)
);
},
{
closed = 1;
nodes = (
(213,32,o),
(116,173,o),
(136,372,cs),
(146,499,o),
(246,588,o),
(378,588,cs),
(526,588,o),
(617,447,o),
(597,248,cs),
(587,121,o),
(493,32,o),
(369,32,cs)
);
}
);
};
backgroundImage = {
imagePath = "../../Desktop/Bildschirmfoto 2024-12-24 um 13.06.05.png";
pos = (724,-1011);
scale = (-1.4,1.4);
};
color = 2;
layerId = m006;
shapes = (
{
closed = 1;
nodes = (
(-18,0,l),
(5,0,o),
(67,0,o),
(109,0,cs),
(109,0,o),
(170,1,o),
(307,-3,c),
(322,36,l),
(243,36,o),
(181,43,o),
(173,53,cs),
(167,60,o),
(166,75,o),
(170,89,cs),
(197,187,o),
(273,478,o),
(300,576,c),
(367,578,o),
(401,580,o),
(382,580,c),
(400,619,l),
(327,617,o),
(276,616,o),
(276,616,c),
(230,616,o),
(177,616,o),
(146,616,c),
(139,592,l),
(175,585,o),
(204,578,o),
(208,574,cs),
(215,569,o),
(216,549,o),
(210,527,cs),
(152,307,o),
(130,217,o),
(156,312,cs),
(165,347,o),
(139,255,o),
(95,89,cs),
(89,69,o),
(78,49,o),
(68,41,cs),
(60,36,o),
(27,28,o),
(-11,23,c)
);
},
{
closed = 1;
nodes = (
(307,-3,l),
(490,-2,o),
(643,120,o),
(676,292,cs),
(713,484,o),
(598,619,o),
(400,619,c),
(382,580,l),
(527,580,o),
(616,451,o),
(597,268,cs),
(583,132,o),
(469,36,o),
(322,36,c)
);
}
);
width = 713;
},
{
anchors = (
{
name = bottom;
pos = (298,0);
},
{
name = center;
pos = (221,308);
},
{
name = top;
pos = (508,616);
}
);
background = {
anchors = (
{
name = bottom;
pos = (323,0);
},
{
name = center;
pos = (388,308);
},
{
name = ogonek;
pos = (583,10);
},
{
name = top;
pos = (491,617);
},
{
name = topleft;
pos = (142,616);
},
{
name = topright;
pos = (844,616);
}
);
shapes = (
{
closed = 1;
nodes = (
(336,-8,cs),
(509,-8,o),
(650,108,o),
(676,272,cs),
(716,481,o),
(601,628,o),
(398,628,cs),
(225,628,o),
(84,512,o),
(58,348,cs),
(18,139,o),
(133,-8,o)
);
},
{
closed = 1;
nodes = (
(213,32,o),
(116,173,o),
(136,372,cs),
(146,499,o),
(246,588,o),
(378,588,cs),
(526,588,o),
(617,447,o),
(597,248,cs),
(587,121,o),
(493,32,o),
(369,32,cs)
);
}
);
};
backgroundImage = {
imagePath = "../../Desktop/Bildschirmfoto 2024-12-24 um 13.06.05.png";
pos = (724,-1011);
scale = (-1.4,1.4);
};
color = 2;
layerId = m004;
shapes = (
{
closed = 1;
nodes = (
(-18,0,l),
(5,0,o),
(67,0,o),
(109,0,cs),
(109,0,o),
(170,1,o),
(307,-3,c),
(322,36,l),
(243,36,o),
(181,43,o),
(173,53,cs),
(167,60,o),
(166,75,o),
(170,89,cs),
(197,187,o),
(273,478,o),
(300,576,c),
(367,578,o),
(401,580,o),
(382,580,c),
(400,619,l),
(327,617,o),
(276,616,o),
(276,616,c),
(230,616,o),
(177,616,o),
(146,616,c),
(139,592,l),
(175,585,o),
(204,578,o),
(208,574,cs),
(215,569,o),
(216,549,o),
(210,527,cs),
(152,307,o),
(130,217,o),
(156,312,cs),
(165,347,o),
(139,255,o),
(95,89,cs),
(89,69,o),
(78,49,o),
(68,41,cs),
(60,36,o),
(27,28,o),
(-11,23,c)
);
},
{
closed = 1;
nodes = (
(307,-3,l),
(490,-2,o),
(643,120,o),
(676,292,cs),
(713,484,o),
(598,619,o),
(400,619,c),
(382,580,l),
(527,580,o),
(616,451,o),
(597,268,cs),
(583,132,o),
(469,36,o),
(322,36,c)
);
}
);
width = 713;
}
);
metricLeft = H;
metricRight = O;
unicode = 68;
},
{
glyphname = E;
lastChange = "2025-04-24 18:07:01 +0000";
layers = (
{
anchors = (
{
name = bottom;
pos = (225,0);
},
{
name = ogonek;
pos = (458,10);
},
{
name = top;
pos = (435,616);
},
{
name = topleft;
pos = (167,616);
}
);
color = 2;
guides = (
{
angle = 77.035;
lockAngle = 1;
pos = (61,-67);
}
);
layerId = m003;
shapes = (
{
closed = 1;
nodes = (
(10,-1,o),
(58,0,o),
(103,0,c),
(246,0,o),
(394,-1,o),
(470,-3,c),
(495,44,o),
(522,110,o),
(536,157,c),
(507,157,l),
(478,90,o),
(427,43,o),
(382,40,cs),
(350,38,o),
(296,37,o),
(239,37,cs),
(205,37,o),
(180,42,o),
(172,52,cs),
(164,62,o),
(166,76,o),
(170,96,cs),
(215,265,o),
(255,416,o),
(299,576,c),
(336,578,o),
(375,578,o),
(397,578,cs),
(425,578,o),
(458,578,o),
(490,576,cs),
(515,574,o),
(530,544,o),
(525,499,c),
(551,499,l),
(563,536,o),
(580,586,o),
(597,619,c),
(531,617,o),
(398,616,o),
(277,616,c),
(228,616,o),
(176,617,o),
(148,618,c),
(140,589,l),
(173,584,o),
(196,581,o),
(208,567,cs),
(214,558,o),
(217,544,o),
(210,521,c),
(96,91,l),
(89,67,o),
(81,52,o),
(68,42,cs),
(51,29,o),
(27,26,o),
(-11,23,c),
(-17,-2,l)
);
},
{
closed = 1;
nodes = (
(404,206,l),
(416,272,o),
(441,364,o),
(463,430,c),
(441,430,l),
(439,424,o),
(430,410,o),
(421,396,c),
(395,360,o),
(366,336,o),
(306,336,cs),
(186,336,l),
(174,296,l),
(294,296,ls),
(361,296,o),
(378,274,o),
(381,242,cs),
(383,206,l)
);
}
);
width = 593;
},
{
anchors = (
{
name = bottom;
pos = (225,0);
},
{
name = ogonek;
pos = (458,10);
},
{
name = top;
pos = (435,616);
},
{
name = topleft;
pos = (167,616);
}
);
color = 2;
guides = (
{
angle = 77.035;
lockAngle = 1;
pos = (61,-67);
}
);
layerId = m005;
shapes = (
{
closed = 1;
nodes = (
(10,-1,o),
(58,0,o),
(103,0,c),
(246,0,o),
(394,-1,o),
(470,-3,c),
(495,44,o),
(522,110,o),
(536,157,c),
(507,157,l),
(478,90,o),
(427,43,o),
(382,40,cs),
(350,38,o),
(296,37,o),
(239,37,cs),
(205,37,o),
(180,42,o),
(172,52,cs),
(164,62,o),
(166,76,o),
(170,96,cs),
(215,265,o),
(255,416,o),
(299,576,c),
(336,578,o),
(375,578,o),
(397,578,cs),
(425,578,o),
(458,578,o),
(490,576,cs),
(515,574,o),
(530,544,o),
(525,499,c),
(551,499,l),
(563,536,o),
(580,586,o),
(597,619,c),
(531,617,o),
(398,616,o),
(277,616,c),
(228,616,o),
(176,617,o),
(148,618,c),
(140,589,l),
(173,584,o),
(196,581,o),
(208,567,cs),
(214,558,o),
(217,544,o),
(210,521,c),
(96,91,l),
(89,67,o),
(81,52,o),
(68,42,cs),
(51,29,o),
(27,26,o),
(-11,23,c),
(-17,-2,l)
);
},
{
closed = 1;
nodes = (
(404,206,l),
(416,272,o),
(441,364,o),
(463,430,c),
(441,430,l),
(439,424,o),
(430,410,o),
(421,396,c),
(395,360,o),
(366,336,o),
(306,336,cs),
(186,336,l),
(174,296,l),
(294,296,ls),
(361,296,o),
(378,274,o),
(381,242,cs),
(383,206,l)
);
}
);
width = 593;
},
{
anchors = (
{
name = bottom;
pos = (225,0);
},
{
name = ogonek;
pos = (458,10);
},
{
name = top;
pos = (435,616);
},
{
name = topleft;
pos = (167,616);
}
);
color = 2;
guides = (
{
angle = 77.035;
lockAngle = 1;
pos = (61,-67);
}
);
layerId = m006;
shapes = (
{
closed = 1;
nodes = (
(10,-1,o),
(58,0,o),
(103,0,c),
(246,0,o),
(394,-1,o),
(470,-3,c),
(495,44,o),
(522,110,o),
(536,157,c),
(507,157,l),
(478,90,o),
(427,43,o),
(382,40,cs),
(350,38,o),
(296,37,o),
(239,37,cs),
(205,37,o),
(180,42,o),
(172,52,cs),
(164,62,o),
(166,76,o),
(170,96,cs),
(215,265,o),
(255,416,o),
(299,576,c),
(336,578,o),
(375,578,o),
(397,578,cs),
(425,578,o),
(458,578,o),
(490,576,cs),
(515,574,o),
(530,544,o),
(525,499,c),
(551,499,l),
(563,536,o),
(580,586,o),
(597,619,c),
(531,617,o),
(398,616,o),
(277,616,c),
(228,616,o),
(176,617,o),
(148,618,c),
(140,589,l),
(173,584,o),
(196,581,o),
(208,567,cs),
(214,558,o),
(217,544,o),
(210,521,c),
(96,91,l),
(89,67,o),
(81,52,o),
(68,42,cs),
(51,29,o),
(27,26,o),
(-11,23,c),
(-17,-2,l)
);
},
{
closed = 1;
nodes = (
(404,206,l),
(416,272,o),
(441,364,o),
(463,430,c),
(441,430,l),
(439,424,o),
(430,410,o),
(421,396,c),
(395,360,o),
(366,336,o),
(306,336,cs),
(186,336,l),
(174,296,l),
(294,296,ls),
(361,296,o),
(378,274,o),
(381,242,cs),
(383,206,l)
);
}
);
width = 593;
},
{
anchors = (
{
name = bottom;
pos = (225,0);
},
{
name = ogonek;
pos = (458,10);
},
{
name = top;
pos = (435,616);
},
{
name = topleft;
pos = (167,616);
}
);
color = 2;
guides = (
{
angle = 77.035;
lockAngle = 1;
pos = (61,-67);
}
);
layerId = m004;
shapes = (
{
closed = 1;
nodes = (
(10,-1,o),
(58,0,o),
(103,0,c),
(246,0,o),
(394,-1,o),
(470,-3,c),
(495,44,o),
(522,110,o),
(536,157,c),
(507,157,l),
(478,90,o),
(427,43,o),
(382,40,cs),
(350,38,o),
(296,37,o),
(239,37,cs),
(205,37,o),
(180,42,o),
(172,52,cs),
(164,62,o),
(166,76,o),
(170,96,cs),
(215,265,o),
(255,416,o),
(299,576,c),
(336,578,o),
(375,578,o),
(397,578,cs),
(425,578,o),
(458,578,o),
(490,576,cs),
(515,574,o),
(530,544,o),
(525,499,c),
(551,499,l),
(563,536,o),
(580,586,o),
(597,619,c),
(531,617,o),
(398,616,o),
(277,616,c),
(228,616,o),
(176,617,o),
(148,618,c),
(140,589,l),
(173,584,o),
(196,581,o),
(208,567,cs),
(214,558,o),
(217,544,o),
(210,521,c),
(96,91,l),
(89,67,o),
(81,52,o),
(68,42,cs),
(51,29,o),
(27,26,o),
(-11,23,c),
(-17,-2,l)
);
},
{
closed = 1;
nodes = (
(404,206,l),
(416,272,o),
(441,364,o),
(463,430,c),
(441,430,l),
(439,424,o),
(430,410,o),
(421,396,c),
(395,360,o),
(366,336,o),
(306,336,cs),
(186,336,l),
(174,296,l),
(294,296,ls),
(361,296,o),
(378,274,o),
(381,242,cs),
(383,206,l)
);
}
);
width = 593;
}
);
metricLeft = H;
metricRight = H;
unicode = 69;
},
{
glyphname = F;
lastChange = "2025-04-24 18:07:01 +0000";
layers = (
{
anchors = (
{
name = bottom;
pos = (197,0);
},
{
name = top;
pos = (407,616);
}
);
background = {
shapes = (
{
closed = 1;
nodes = (
(-15,0,l),
(268,0,l),
(268,40,l),
(223,40,o),
(188,38,o),
(169,54,cs),
(160,62,o),
(155,73,o),
(155,91,cs),
(153,307,o),
(152,377,o),
(156,574,c),
(173,576,o),
(225,576,o),
(248,576,c),
(248,616,l),
(-15,616,l),
(-15,591,l),
(19,581,o),
(43,582,o),
(57,572,cs),
(67,565,o),
(72,552,o),
(72,525,cs),
(73,341,o),
(74,253,o),
(74,312,cs),
(74,373,o),
(73,282,o),
(72,91,cs),
(72,65,o),
(66,51,o),
(57,43,cs),
(41,29,o),
(15,31,o),
(-15,25,c)
);
}
);
};
color = 2;
layerId = m003;
shapes = (
{
closed = 1;
nodes = (
(9,0,o),
(215,0,o),
(270,0,c),
(268,29,l),
(217,35,o),
(184,35,o),
(171,54,cs),
(165,64,o),
(164,79,o),
(171,103,cs),
(210,260,o),
(254,421,o),
(298,578,c),
(320,579,o),
(379,580,o),
(401,580,cs),
(429,580,o),
(459,580,o),
(490,578,cs),
(515,576,o),
(529,544,o),
(524,499,c),
(548,499,l),
(561,536,o),
(580,586,o),
(597,619,c),
(531,617,o),
(396,616,o),
(276,616,c),
(227,616,o),
(176,617,o),
(148,618,c),
(141,592,l),
(173,586,o),
(196,584,o),
(208,572,cs),
(215,563,o),
(217,550,o),
(210,525,cs),
(174,380,o),
(135,236,o),
(95,91,cs),
(88,67,o),
(81,53,o),
(70,44,cs),
(53,30,o),
(29,27,o),
(-12,23,c),
(-18,-1,l)
);
},
{
closed = 1;
nodes = (
(408,206,l),
(419,272,o),
(444,364,o),
(467,430,c),
(446,430,l),
(444,424,o),
(435,410,o),
(426,396,c),
(400,360,o),
(371,336,o),
(329,336,cs),
(195,336,l),
(183,296,l),
(317,296,ls),
(366,296,o),
(383,274,o),
(386,242,cs),
(388,206,l)
);
}
);
width = 505;
},
{
anchors = (
{
name = bottom;
pos = (197,0);
},
{
name = top;
pos = (407,616);
}
);
background = {
shapes = (
{
closed = 1;
nodes = (
(-15,0,l),
(268,0,l),
(268,40,l),
(223,40,o),
(188,38,o),
(169,54,cs),
(160,62,o),
(155,73,o),
(155,91,cs),
(153,307,o),
(152,377,o),
(156,574,c),
(173,576,o),
(225,576,o),
(248,576,c),
(248,616,l),
(-15,616,l),
(-15,591,l),
(19,581,o),
(43,582,o),
(57,572,cs),
(67,565,o),
(72,552,o),
(72,525,cs),
(73,341,o),
(74,253,o),
(74,312,cs),
(74,373,o),
(73,282,o),
(72,91,cs),
(72,65,o),
(66,51,o),
(57,43,cs),
(41,29,o),
(15,31,o),
(-15,25,c)
);
}
);
};
color = 2;
layerId = m005;
shapes = (
{
closed = 1;
nodes = (
(9,0,o),
(215,0,o),
(270,0,c),
(268,29,l),
(217,35,o),
(184,35,o),
(171,54,cs),
(165,64,o),
(164,79,o),
(171,103,cs),
(210,260,o),
(254,421,o),
(298,578,c),
(320,579,o),
(379,580,o),
(401,580,cs),
(429,580,o),
(459,580,o),
(490,578,cs),
(515,576,o),
(529,544,o),
(524,499,c),
(548,499,l),
(561,536,o),
(580,586,o),
(597,619,c),
(531,617,o),
(396,616,o),
(276,616,c),
(227,616,o),
(176,617,o),
(148,618,c),
(141,592,l),
(173,586,o),
(196,584,o),
(208,572,cs),
(215,563,o),
(217,550,o),
(210,525,cs),
(174,380,o),
(135,236,o),
(95,91,cs),
(88,67,o),
(81,53,o),
(70,44,cs),
(53,30,o),
(29,27,o),
(-12,23,c),
(-18,-1,l)
);
},
{
closed = 1;
nodes = (
(408,206,l),
(419,272,o),
(444,364,o),
(467,430,c),
(446,430,l),
(444,424,o),
(435,410,o),
(426,396,c),
(400,360,o),
(371,336,o),
(329,336,cs),
(195,336,l),
(183,296,l),
(317,296,ls),
(366,296,o),
(383,274,o),
(386,242,cs),
(388,206,l)
);
}
);
width = 505;
},
{
anchors = (
{
name = bottom;
pos = (197,0);
},
{
name = top;
pos = (407,616);
}
);
background = {
shapes = (
{
closed = 1;
nodes = (
(-15,0,l),
(268,0,l),
(268,40,l),
(223,40,o),
(188,38,o),
(169,54,cs),
(160,62,o),
(155,73,o),
(155,91,cs),
(153,307,o),
(152,377,o),
(156,574,c),
(173,576,o),
(225,576,o),
(248,576,c),
(248,616,l),
(-15,616,l),
(-15,591,l),
(19,581,o),
(43,582,o),
(57,572,cs),
(67,565,o),
(72,552,o),
(72,525,cs),
(73,341,o),
(74,253,o),
(74,312,cs),
(74,373,o),
(73,282,o),
(72,91,cs),
(72,65,o),
(66,51,o),
(57,43,cs),
(41,29,o),
(15,31,o),
(-15,25,c)
);
}
);
};
color = 2;
layerId = m006;
shapes = (
{
closed = 1;
nodes = (
(9,0,o),
(215,0,o),
(270,0,c),
(268,29,l),
(217,35,o),
(184,35,o),
(171,54,cs),
(165,64,o),
(164,79,o),
(171,103,cs),
(210,260,o),
(254,421,o),
(298,578,c),
(320,579,o),
(379,580,o),
(401,580,cs),
(429,580,o),
(459,580,o),
(490,578,cs),
(515,576,o),
(529,544,o),
(524,499,c),
(548,499,l),
(561,536,o),
(580,586,o),
(597,619,c),
(531,617,o),
(396,616,o),
(276,616,c),
(227,616,o),
(176,617,o),
(148,618,c),
(141,592,l),
(173,586,o),
(196,584,o),
(208,572,cs),
(215,563,o),
(217,550,o),
(210,525,cs),
(174,380,o),
(135,236,o),
(95,91,cs),
(88,67,o),
(81,53,o),
(70,44,cs),
(53,30,o),
(29,27,o),
(-12,23,c),
(-18,-1,l)
);
},
{
closed = 1;
nodes = (
(408,206,l),
(419,272,o),
(444,364,o),
(467,430,c),
(446,430,l),
(444,424,o),
(435,410,o),
(426,396,c),
(400,360,o),
(371,336,o),
(329,336,cs),
(195,336,l),
(183,296,l),
(317,296,ls),
(366,296,o),
(383,274,o),
(386,242,cs),
(388,206,l)
);
}
);
width = 505;
},
{
anchors = (
{
name = bottom;
pos = (197,0);
},
{
name = top;
pos = (407,616);
}
);
background = {
shapes = (
{
closed = 1;
nodes = (
(-15,0,l),
(268,0,l),
(268,40,l),
(223,40,o),
(188,38,o),
(169,54,cs),
(160,62,o),
(155,73,o),
(155,91,cs),
(153,307,o),
(152,377,o),
(156,574,c),
(173,576,o),
(225,576,o),
(248,576,c),
(248,616,l),
(-15,616,l),
(-15,591,l),
(19,581,o),
(43,582,o),
(57,572,cs),
(67,565,o),
(72,552,o),
(72,525,cs),
(73,341,o),
(74,253,o),
(74,312,cs),
(74,373,o),
(73,282,o),
(72,91,cs),
(72,65,o),
(66,51,o),
(57,43,cs),
(41,29,o),
(15,31,o),
(-15,25,c)
);
}
);
};
color = 2;
layerId = m004;
shapes = (
{
closed = 1;
nodes = (
(9,0,o),
(215,0,o),
(270,0,c),
(268,29,l),
(217,35,o),
(184,35,o),
(171,54,cs),
(165,64,o),
(164,79,o),
(171,103,cs),
(210,260,o),
(254,421,o),
(298,578,c),
(320,579,o),
(379,580,o),
(401,580,cs),
(429,580,o),
(459,580,o),
(490,578,cs),
(515,576,o),
(529,544,o),
(524,499,c),
(548,499,l),
(561,536,o),
(580,586,o),
(597,619,c),
(531,617,o),
(396,616,o),
(276,616,c),
(227,616,o),
(176,617,o),
(148,618,c),
(141,592,l),
(173,586,o),
(196,584,o),
(208,572,cs),
(215,563,o),
(217,550,o),
(210,525,cs),
(174,380,o),
(135,236,o),
(95,91,cs),
(88,67,o),
(81,53,o),
(70,44,cs),
(53,30,o),
(29,27,o),
(-12,23,c),
(-18,-1,l)
);
},
{
closed = 1;
nodes = (
(408,206,l),
(419,272,o),
(444,364,o),
(467,430,c),
(446,430,l),
(444,424,o),
(435,410,o),
(426,396,c),
(400,360,o),
(371,336,o),
(329,336,cs),
(195,336,l),
(183,296,l),
(317,296,ls),
(366,296,o),
(383,274,o),
(386,242,cs),
(388,206,l)
);
}
);
width = 505;
}
);
metricLeft = H;
metricRight = O;
unicode = 70;
},
{
glyphname = G;
lastChange = "2025-04-24 18:07:01 +0000";
layers = (
{
anchors = (
{
name = bottom;
pos = (288,0);
},
{
name = top;
pos = (498,616);
}
);
background = {
anchors = (
{
name = bottom;
pos = (274,0);
},
{
name = top;
pos = (484,616);
}
);
shapes = (
{
closed = 1;
nodes = (
(406,-8,o),
(501,11,o),
(562,38,c),
(571,53,o),
(600,121,o),
(633,201,c),
(601,200,l),
(555,100,o),
(452,30,o),
(353,30,cs),
(231,30,o),
(151,132,o),
(160,275,cs),
(172,471,o),
(282,610,o),
(426,610,cs),
(532,610,o),
(601,531,o),
(594,420,c),
(621,420,l),
(644,503,o),
(662,566,o),
(664,571,c),
(606,616,o),
(516,648,o),
(446,648,cs),
(264,648,o),
(114,518,o),
(83,334,cs),
(49,134,o),
(152,-8,o),
(332,-8,cs)
);
}
);
};
backgroundImage = {
imagePath = "../../Desktop/Bildschirmfoto 2024-12-23 um 19.38.00.png";
pos = (641,-876);
scale = (-1.37,1.3692);
slant = (1.9988,0);
};
color = 3;
layerId = m003;
shapes = (
{
closed = 1;
nodes = (
(418,-8,o),
(521,13,o),
(581,43,c),
(580,56,l),
(563,57,o),
(554,67,o),
(558,79,c),
(590,200,l),
(597,226,o),
(618,247,o),
(640,252,c),
(678,258,l),
(685,287,l),
(443,287,l),
(434,253,l),
(489,244,o),
(522,217,o),
(514,188,c),
(485,76,l),
(477,49,o),
(422,30,o),
(353,30,cs),
(231,30,o),
(151,132,o),
(160,275,cs),
(172,471,o),
(282,610,o),
(426,610,cs),
(533,610,o),
(602,531,o),
(593,420,c),
(621,420,l),
(642,498,o),
(660,560,o),
(664,571,c),
(605,616,o),
(515,648,o),
(446,648,cs),
(264,648,o),
(114,518,o),
(83,334,cs),
(49,134,o),
(152,-8,o),
(332,-8,cs)
);
}
);
width = 715;
},
{
anchors = (
{
name = bottom;
pos = (298,0);
},
{
name = top;
pos = (508,616);
}
);
background = {
anchors = (
{
name = bottom;
pos = (284,0);
},
{
name = top;
pos = (494,616);
}
);
shapes = (
{
closed = 1;
nodes = (
(424,-8,o),
(511,11,o),
(572,38,c),
(585,62,o),
(614,130,o),
(643,201,c),
(611,200,l),
(566,102,o),
(477,32,o),
(397,32,cs),
(241,32,o),
(144,173,o),
(164,372,cs),
(177,499,o),
(277,588,o),
(406,588,cs),
(529,588,o),
(611,510,o),
(604,400,c),
(631,400,l),
(651,472,o),
(669,535,o),
(674,551,c),
(616,596,o),
(513,628,o),
(426,628,cs),
(258,628,o),
(117,512,o),
(86,348,cs),
(46,139,o),
(161,-8,o),
(364,-8,cs)
);
}
);
};
backgroundImage = {
imagePath = "../../Desktop/Bildschirmfoto 2024-12-23 um 19.38.00.png";
pos = (651,-876);
scale = (-1.37,1.3692);
};
color = 3;
layerId = m005;
shapes = (
{
closed = 1;
nodes = (
(437,-8,o),
(531,13,o),
(591,43,c),
(590,56,l),
(573,57,o),
(564,66,o),
(568,79,c),
(600,200,l),
(607,226,o),
(627,247,o),
(650,252,c),
(688,258,l),
(695,287,l),
(453,287,l),
(444,253,l),
(499,244,o),
(532,217,o),
(524,188,c),
(495,76,l),
(487,50,o),
(447,32,o),
(397,32,cs),
(240,32,o),
(144,175,o),
(164,376,cs),
(177,500,o),
(277,588,o),
(406,588,cs),
(530,588,o),
(612,510,o),
(603,400,c),
(631,400,l),
(652,478,o),
(670,541,o),
(674,551,c),
(615,596,o),
(513,628,o),
(426,628,cs),
(258,628,o),
(117,514,o),
(86,352,cs),
(46,141,o),
(161,-8,o),
(364,-8,cs)
);
}
);
width = 725;
},
{
anchors = (
{
name = bottom;
pos = (298,0);
},
{
name = top;
pos = (508,616);
}
);
background = {
anchors = (
{
name = bottom;
pos = (284,0);
},
{
name = top;
pos = (494,616);
}
);
shapes = (
{
closed = 1;
nodes = (
(424,-8,o),
(511,11,o),
(572,38,c),
(585,62,o),
(614,130,o),
(643,201,c),
(611,200,l),
(566,102,o),
(477,32,o),
(397,32,cs),
(241,32,o),
(144,173,o),
(164,372,cs),
(177,499,o),
(277,588,o),
(406,588,cs),
(529,588,o),
(611,510,o),
(604,400,c),
(631,400,l),
(651,472,o),
(669,535,o),
(674,551,c),
(616,596,o),
(513,628,o),
(426,628,cs),
(258,628,o),
(117,512,o),
(86,348,cs),
(46,139,o),
(161,-8,o),
(364,-8,cs)
);
}
);
};
backgroundImage = {
imagePath = "../../Desktop/Bildschirmfoto 2024-12-23 um 19.38.00.png";
pos = (651,-876);
scale = (-1.37,1.3692);
};
color = 3;
layerId = m006;
shapes = (
{
closed = 1;
nodes = (
(437,-8,o),
(531,13,o),
(591,43,c),
(590,56,l),
(573,57,o),
(564,66,o),
(568,79,c),
(600,200,l),
(607,226,o),
(627,247,o),
(650,252,c),
(688,258,l),
(695,287,l),
(453,287,l),
(444,253,l),
(499,244,o),
(532,217,o),
(524,188,c),
(495,76,l),
(487,50,o),
(447,32,o),
(397,32,cs),
(240,32,o),
(144,175,o),
(164,376,cs),
(177,500,o),
(277,588,o),
(406,588,cs),
(530,588,o),
(612,510,o),
(603,400,c),
(631,400,l),
(652,478,o),
(670,541,o),
(674,551,c),
(615,596,o),
(513,628,o),
(426,628,cs),
(258,628,o),
(117,514,o),
(86,352,cs),
(46,141,o),
(161,-8,o),
(364,-8,cs)
);
}
);
width = 725;
},
{
anchors = (
{
name = bottom;
pos = (298,0);
},
{
name = top;
pos = (508,616);
}
);
background = {
anchors = (
{
name = bottom;
pos = (284,0);
},
{
name = top;
pos = (494,616);
}
);
shapes = (
{
closed = 1;
nodes = (
(424,-8,o),
(511,11,o),
(572,38,c),
(585,62,o),
(614,130,o),
(643,201,c),
(611,200,l),
(566,102,o),
(477,32,o),
(397,32,cs),
(241,32,o),
(144,173,o),
(164,372,cs),
(177,499,o),
(277,588,o),
(406,588,cs),
(529,588,o),
(611,510,o),
(604,400,c),
(631,400,l),
(651,472,o),
(669,535,o),
(674,551,c),
(616,596,o),
(513,628,o),
(426,628,cs),
(258,628,o),
(117,512,o),
(86,348,cs),
(46,139,o),
(161,-8,o),
(364,-8,cs)
);
}
);
};
backgroundImage = {
imagePath = "../../Desktop/Bildschirmfoto 2024-12-23 um 19.38.00.png";
pos = (651,-876);
scale = (-1.37,1.3692);
};
color = 3;
layerId = m004;
shapes = (
{
closed = 1;
nodes = (
(437,-8,o),
(531,13,o),
(591,43,c),
(590,56,l),
(573,57,o),
(564,66,o),
(568,79,c),
(600,200,l),
(607,226,o),
(627,247,o),
(650,252,c),
(688,258,l),
(695,287,l),
(453,287,l),
(444,253,l),
(499,244,o),
(532,217,o),
(524,188,c),
(495,76,l),
(487,50,o),
(447,32,o),
(397,32,cs),
(240,32,o),
(144,175,o),
(164,376,cs),
(177,500,o),
(277,588,o),
(406,588,cs),
(530,588,o),
(612,510,o),
(603,400,c),
(631,400,l),
(652,478,o),
(670,541,o),
(674,551,c),
(615,596,o),
(513,628,o),
(426,628,cs),
(258,628,o),
(117,514,o),
(86,352,cs),
(46,141,o),
(161,-8,o),
(364,-8,cs)
);
}
);
width = 725;
}
);
metricLeft = O;
metricRight = O;
unicode = 71;
},
{
glyphname = H;
lastChange = "2025-04-24 18:07:01 +0000";
layers = (
{
anchors = (
{
name = bottom;
pos = (326,0);
},
{
name = center;
pos = (483,462);
},
{
name = top;
pos = (536,616);
},
{
name = topleft;
pos = (163,616);
}
);
background = {
shapes = (
{
closed = 1;
nodes = (
(143,609,l,{
"Letterink-NibData" = {
AngleInDegrees = "0";
};
}),
(139,616,l,{
"Letterink-NibData" = {
AngleInDegrees = "360";
};
}),
(70,576,l),
(70,7,l,{
"Letterink-NibData" = {
AngleInDegrees = "360";
};
}),
(74,0,l,{
"Letterink-NibData" = {
AngleInDegrees = "360";
};
}),
(143,40,l),
(143,304,l),
(557,304,l),
(557,7,l,{
"Letterink-NibData" = {
AngleInDegrees = "360";
};
}),
(561,0,l,{
"Letterink-NibData" = {
AngleInDegrees = "360";
};
}),
(631,40,l),
(631,609,l,{
"Letterink-NibData" = {
AngleInDegrees = "0";
};
}),
(627,616,l,{
"Letterink-NibData" = {
AngleInDegrees = "359.99999";
};
}),
(557,576,l),
(557,351,l),
(143,351,l)
);
},
{
closed = 0;
nodes = (
(215,616,l),
(215,591,l),
(187,583,o),
(169,576,o),
(158,564,cs),
(149,553,o),
(145,538,o),
(145,512,cs)
);
}
);
};
color = 1;
layerId = m003;
shapes = (
{
closed = 1;
nodes = (
(59,2,o),
(160,2,o),
(250,0,c),
(258,23,l),
(229,31,o),
(187,37,o),
(180,49,cs),
(172,59,o),
(162,75,o),
(169,102,cs),
(187,176,o),
(207,250,o),
(224,326,cs),
(238,389,o),
(259,452,o),
(277,514,cs),
(285,541,o),
(304,560,o),
(316,567,cs),
(340,582,o),
(375,585,o),
(408,593,c),
(414,616,l),
(323,614,o),
(223,614,o),
(134,616,c),
(128,593,l),
(158,587,o),
(197,574,o),
(205,562,cs),
(211,551,o),
(213,540,o),
(206,514,cs),
(191,452,o),
(172,390,o),
(157,327,cs),
(139,251,o),
(118,176,o),
(98,102,cs),
(91,76,o),
(83,61,o),
(71,50,cs),
(56,38,o),
(-1,31,o),
(-25,23,c),
(-31,0,l)
);
},
{
closed = 1;
nodes = (
(520,2,o),
(617,2,o),
(707,0,c),
(713,23,l),
(694,29,o),
(652,38,o),
(645,50,cs),
(637,60,o),
(633,75,o),
(640,102,cs),
(658,177,o),
(679,253,o),
(699,330,cs),
(715,391,o),
(733,453,o),
(750,514,cs),
(757,541,o),
(763,556,o),
(777,567,cs),
(791,579,o),
(843,588,o),
(866,593,c),
(872,616,l),
(781,614,o),
(683,614,o),
(594,616,c),
(588,593,l),
(618,585,o),
(656,576,o),
(670,566,cs),
(682,557,o),
(686,540,o),
(679,514,cs),
(664,453,o),
(647,390,o),
(631,329,cs),
(611,252,o),
(594,176,o),
(569,102,cs),
(557,66,o),
(544,58,o),
(524,44,cs),
(506,31,o),
(472,28,o),
(438,23,c),
(430,0,l)
);
},
{
closed = 1;
nodes = (
(644,304,l),
(658,349,l),
(209,349,l),
(197,304,l)
);
}
);
width = 780;
},
{
anchors = (
{
name = bottom;
pos = (326,0);
},
{
name = center;
pos = (483,462);
},
{
name = top;
pos = (536,616);
},
{
name = topleft;
pos = (163,616);
}
);
background = {
shapes = (
{
closed = 1;
nodes = (
(143,609,l,{
"Letterink-NibData" = {
AngleInDegrees = "0";
};
}),
(139,616,l,{
"Letterink-NibData" = {
AngleInDegrees = "360";
};
}),
(70,576,l),
(70,7,l,{
"Letterink-NibData" = {
AngleInDegrees = "360";
};
}),
(74,0,l,{
"Letterink-NibData" = {
AngleInDegrees = "360";
};
}),
(143,40,l),
(143,304,l),
(557,304,l),
(557,7,l,{
"Letterink-NibData" = {
AngleInDegrees = "360";
};
}),
(561,0,l,{
"Letterink-NibData" = {
AngleInDegrees = "360";
};
}),
(631,40,l),
(631,609,l,{
"Letterink-NibData" = {
AngleInDegrees = "0";
};
}),
(627,616,l,{
"Letterink-NibData" = {
AngleInDegrees = "359.99999";
};
}),
(557,576,l),
(557,351,l),
(143,351,l)
);
},
{
closed = 0;
nodes = (
(215,616,l),
(215,591,l),
(187,583,o),
(169,576,o),
(158,564,cs),
(149,553,o),
(145,538,o),
(145,512,cs)
);
}
);
};
color = 1;
layerId = m005;
shapes = (
{
closed = 1;
nodes = (
(59,2,o),
(160,2,o),
(250,0,c),
(258,23,l),
(229,31,o),
(187,37,o),
(180,49,cs),
(172,59,o),
(162,75,o),
(169,102,cs),
(187,176,o),
(207,250,o),
(224,326,cs),
(238,389,o),
(259,452,o),
(277,514,cs),
(285,541,o),
(304,560,o),
(316,567,cs),
(340,582,o),
(375,585,o),
(408,593,c),
(414,616,l),
(323,614,o),
(223,614,o),
(134,616,c),
(128,593,l),
(158,587,o),
(197,574,o),
(205,562,cs),
(211,551,o),
(213,540,o),
(206,514,cs),
(191,452,o),
(172,390,o),
(157,327,cs),
(139,251,o),
(118,176,o),
(98,102,cs),
(91,76,o),
(83,61,o),
(71,50,cs),
(56,38,o),
(-1,31,o),
(-25,23,c),
(-31,0,l)
);
},
{
closed = 1;
nodes = (
(520,2,o),
(617,2,o),
(707,0,c),
(713,23,l),
(694,29,o),
(652,38,o),
(645,50,cs),
(637,60,o),
(633,75,o),
(640,102,cs),
(658,177,o),
(679,253,o),
(699,330,cs),
(715,391,o),
(733,453,o),
(750,514,cs),
(757,541,o),
(763,556,o),
(777,567,cs),
(791,579,o),
(843,588,o),
(866,593,c),
(872,616,l),
(781,614,o),
(683,614,o),
(594,616,c),
(588,593,l),
(618,585,o),
(656,576,o),
(670,566,cs),
(682,557,o),
(686,540,o),
(679,514,cs),
(664,453,o),
(647,390,o),
(631,329,cs),
(611,252,o),
(594,176,o),
(569,102,cs),
(557,66,o),
(544,58,o),
(524,44,cs),
(506,31,o),
(472,28,o),
(438,23,c),
(430,0,l)
);
},
{
closed = 1;
nodes = (
(644,304,l),
(658,349,l),
(209,349,l),
(197,304,l)
);
}
);
width = 780;
},
{
anchors = (
{
name = bottom;
pos = (326,0);
},
{
name = center;
pos = (483,462);
},
{
name = top;
pos = (536,616);
},
{
name = topleft;
pos = (163,616);
}
);
background = {
shapes = (
{
closed = 1;
nodes = (
(143,609,l,{
"Letterink-NibData" = {
AngleInDegrees = "0";
};
}),
(139,616,l,{
"Letterink-NibData" = {
AngleInDegrees = "360";
};
}),
(70,576,l),
(70,7,l,{
"Letterink-NibData" = {
AngleInDegrees = "360";
};
}),
(74,0,l,{
"Letterink-NibData" = {
AngleInDegrees = "360";
};
}),
(143,40,l),
(143,304,l),
(557,304,l),
(557,7,l,{
"Letterink-NibData" = {
AngleInDegrees = "360";
};
}),
(561,0,l,{
"Letterink-NibData" = {
AngleInDegrees = "360";
};
}),
(631,40,l),
(631,609,l,{
"Letterink-NibData" = {
AngleInDegrees = "0";
};
}),
(627,616,l,{
"Letterink-NibData" = {
AngleInDegrees = "359.99999";
};
}),
(557,576,l),
(557,351,l),
(143,351,l)
);
},
{
closed = 0;
nodes = (
(215,616,l),
(215,591,l),
(187,583,o),
(169,576,o),
(158,564,cs),
(149,553,o),
(145,538,o),
(145,512,cs)
);
}
);
};
color = 1;
layerId = m006;
shapes = (
{
closed = 1;
nodes = (
(59,2,o),
(160,2,o),
(250,0,c),
(258,23,l),
(229,31,o),
(187,37,o),
(180,49,cs),
(172,59,o),
(162,75,o),
(169,102,cs),
(187,176,o),
(207,250,o),
(224,326,cs),
(238,389,o),
(259,452,o),
(277,514,cs),
(285,541,o),
(304,560,o),
(316,567,cs),
(340,582,o),
(375,585,o),
(408,593,c),
(414,616,l),
(323,614,o),
(223,614,o),
(134,616,c),
(128,593,l),
(158,587,o),
(197,574,o),
(205,562,cs),
(211,551,o),
(213,540,o),
(206,514,cs),
(191,452,o),
(172,390,o),
(157,327,cs),
(139,251,o),
(118,176,o),
(98,102,cs),
(91,76,o),
(83,61,o),
(71,50,cs),
(56,38,o),
(-1,31,o),
(-25,23,c),
(-31,0,l)
);
},
{
closed = 1;
nodes = (
(520,2,o),
(617,2,o),
(707,0,c),
(713,23,l),
(694,29,o),
(652,38,o),
(645,50,cs),
(637,60,o),
(633,75,o),
(640,102,cs),
(658,177,o),
(679,253,o),
(699,330,cs),
(715,391,o),
(733,453,o),
(750,514,cs),
(757,541,o),
(763,556,o),
(777,567,cs),
(791,579,o),
(843,588,o),
(866,593,c),
(872,616,l),
(781,614,o),
(683,614,o),
(594,616,c),
(588,593,l),
(618,585,o),
(656,576,o),
(670,566,cs),
(682,557,o),
(686,540,o),
(679,514,cs),
(664,453,o),
(647,390,o),
(631,329,cs),
(611,252,o),
(594,176,o),
(569,102,cs),
(557,66,o),
(544,58,o),
(524,44,cs),
(506,31,o),
(472,28,o),
(438,23,c),
(430,0,l)
);
},
{
closed = 1;
nodes = (
(644,304,l),
(658,349,l),
(209,349,l),
(197,304,l)
);
}
);
width = 780;
},
{
anchors = (
{
name = bottom;
pos = (326,0);
},
{
name = center;
pos = (483,462);
},
{
name = top;
pos = (536,616);
},
{
name = topleft;
pos = (163,616);
}
);
background = {
shapes = (
{
closed = 1;
nodes = (
(143,609,l,{
"Letterink-NibData" = {
AngleInDegrees = "0";
};
}),
(139,616,l,{
"Letterink-NibData" = {
AngleInDegrees = "360";
};
}),
(70,576,l),
(70,7,l,{
"Letterink-NibData" = {
AngleInDegrees = "360";
};
}),
(74,0,l,{
"Letterink-NibData" = {
AngleInDegrees = "360";
};
}),
(143,40,l),
(143,304,l),
(557,304,l),
(557,7,l,{
"Letterink-NibData" = {
AngleInDegrees = "360";
};
}),
(561,0,l,{
"Letterink-NibData" = {
AngleInDegrees = "360";
};
}),
(631,40,l),
(631,609,l,{
"Letterink-NibData" = {
AngleInDegrees = "0";
};
}),
(627,616,l,{
"Letterink-NibData" = {
AngleInDegrees = "359.99999";
};
}),
(557,576,l),
(557,351,l),
(143,351,l)
);
},
{
closed = 0;
nodes = (
(215,616,l),
(215,591,l),
(187,583,o),
(169,576,o),
(158,564,cs),
(149,553,o),
(145,538,o),
(145,512,cs)
);
}
);
};
color = 1;
layerId = m004;
shapes = (
{
closed = 1;
nodes = (
(59,2,o),
(160,2,o),
(250,0,c),
(258,23,l),
(229,31,o),
(187,37,o),
(180,49,cs),
(172,59,o),
(162,75,o),
(169,102,cs),
(187,176,o),
(207,250,o),
(224,326,cs),
(238,389,o),
(259,452,o),
(277,514,cs),
(285,541,o),
(304,560,o),
(316,567,cs),
(340,582,o),
(375,585,o),
(408,593,c),
(414,616,l),
(323,614,o),
(223,614,o),
(134,616,c),
(128,593,l),
(158,587,o),
(197,574,o),
(205,562,cs),
(211,551,o),
(213,540,o),
(206,514,cs),
(191,452,o),
(172,390,o),
(157,327,cs),
(139,251,o),
(118,176,o),
(98,102,cs),
(91,76,o),
(83,61,o),
(71,50,cs),
(56,38,o),
(-1,31,o),
(-25,23,c),
(-31,0,l)
);
},
{
closed = 1;
nodes = (
(520,2,o),
(617,2,o),
(707,0,c),
(713,23,l),
(694,29,o),
(652,38,o),
(645,50,cs),
(637,60,o),
(633,75,o),
(640,102,cs),
(658,177,o),
(679,253,o),
(699,330,cs),
(715,391,o),
(733,453,o),
(750,514,cs),
(757,541,o),
(763,556,o),
(777,567,cs),
(791,579,o),
(843,588,o),
(866,593,c),
(872,616,l),
(781,614,o),
(683,614,o),
(594,616,c),
(588,593,l),
(618,585,o),
(656,576,o),
(670,566,cs),
(682,557,o),
(686,540,o),
(679,514,cs),
(664,453,o),
(647,390,o),
(631,329,cs),
(611,252,o),
(594,176,o),
(569,102,cs),
(557,66,o),
(544,58,o),
(524,44,cs),
(506,31,o),
(472,28,o),
(438,23,c),
(430,0,l)
);
},
{
closed = 1;
nodes = (
(644,304,l),
(658,349,l),
(209,349,l),
(197,304,l)
);
}
);
width = 780;
}
);
note = H;
unicode = 72;
},
{
glyphname = I;
lastChange = "2025-04-24 18:07:01 +0000";
layers = (
{
anchors = (
{
name = bottom;
pos = (91,0);
},
{
name = ogonek;
pos = (221,10);
},
{
name = top;
pos = (276,616);
},
{
name = topleft;
pos = (162,616);
}
);
color = 1;
layerId = m003;
shapes = (
{
closed = 1;
nodes = (
(-31,0,l),
(238,0,l),
(244,24,l),
(202,28,o),
(175,35,o),
(167,42,cs),
(158,51,o),
(158,68,o),
(163,90,c),
(279,525,l),
(285,547,o),
(298,565,o),
(320,575,cs),
(334,581,o),
(360,587,o),
(396,591,c),
(403,616,l),
(134,616,l),
(128,593,l),
(170,589,o),
(198,582,o),
(207,573,cs),
(215,564,o),
(216,547,o),
(211,525,c),
(96,93,l),
(90,68,o),
(78,50,o),
(65,43,cs),
(52,34,o),
(20,27,o),
(-25,24,c)
);
}
);
width = 308;
},
{
anchors = (
{
name = bottom;
pos = (91,0);
},
{
name = ogonek;
pos = (221,10);
},
{
name = top;
pos = (276,616);
},
{
name = topleft;
pos = (162,616);
}
);
color = 1;
layerId = m005;
shapes = (
{
closed = 1;
nodes = (
(-31,0,l),
(238,0,l),
(244,24,l),
(202,28,o),
(175,35,o),
(167,42,cs),
(158,51,o),
(158,68,o),
(163,90,c),
(279,525,l),
(285,547,o),
(298,565,o),
(320,575,cs),
(334,581,o),
(360,587,o),
(396,591,c),
(403,616,l),
(134,616,l),
(128,593,l),
(170,589,o),
(198,582,o),
(207,573,cs),
(215,564,o),
(216,547,o),
(211,525,c),
(96,93,l),
(90,68,o),
(78,50,o),
(65,43,cs),
(52,34,o),
(20,27,o),
(-25,24,c)
);
}
);
width = 308;
},
{
anchors = (
{
name = bottom;
pos = (91,0);
},
{
name = ogonek;
pos = (221,10);
},
{
name = top;
pos = (276,616);
},
{
name = topleft;
pos = (162,616);
}
);
color = 1;
layerId = m006;
shapes = (
{
closed = 1;
nodes = (
(-31,0,l),
(238,0,l),
(244,24,l),
(202,28,o),
(175,35,o),
(167,42,cs),
(158,51,o),
(158,68,o),
(163,90,c),
(279,525,l),
(285,547,o),
(298,565,o),
(320,575,cs),
(334,581,o),
(360,587,o),
(396,591,c),
(403,616,l),
(134,616,l),
(128,593,l),
(170,589,o),
(198,582,o),
(207,573,cs),
(215,564,o),
(216,547,o),
(211,525,c),
(96,93,l),
(90,68,o),
(78,50,o),
(65,43,cs),
(52,34,o),
(20,27,o),
(-25,24,c)
);
}
);
width = 308;
},
{
anchors = (
{
name = bottom;
pos = (91,0);
},
{
name = ogonek;
pos = (221,10);
},
{
name = top;
pos = (276,616);
},
{
name = topleft;
pos = (162,616);
}
);
color = 1;
layerId = m004;
shapes = (
{
closed = 1;
nodes = (
(-31,0,l),
(238,0,l),
(244,24,l),
(202,28,o),
(175,35,o),
(167,42,cs),
(158,51,o),
(158,68,o),
(163,90,c),
(279,525,l),
(285,547,o),
(298,565,o),
(320,575,cs),
(334,581,o),
(360,587,o),
(396,591,c),
(403,616,l),
(134,616,l),
(128,593,l),
(170,589,o),
(198,582,o),
(207,573,cs),
(215,564,o),
(216,547,o),
(211,525,c),
(96,93,l),
(90,68,o),
(78,50,o),
(65,43,cs),
(52,34,o),
(20,27,o),
(-25,24,c)
);
}
);
width = 308;
}
);
metricLeft = H;
metricRight = H;
note = I;
unicode = 73;
},
{
glyphname = J;
lastChange = "2025-04-24 18:07:01 +0000";
layers = (
{
anchors = (
{
name = bottom;
pos = (64,0);
},
{
name = top;
pos = (274,616);
}
);
color = 1;
layerId = m003;
shapes = (
{
closed = 1;
nodes = (
(-79,-232,o),
(-16,-188,o),
(12,-164,cs),
(78,-108,o),
(148,29,o),
(177,148,cs),
(227,341,o),
(225,332,o),
(277,525,cs),
(285,555,o),
(290,569,o),
(305,577,cs),
(321,584,o),
(344,585,o),
(380,591,c),
(387,616,l),
(135,616,l),
(128,591,l),
(162,587,o),
(195,586,o),
(208,574,cs),
(216,565,o),
(217,551,o),
(210,525,cs),
(93,81,ls),
(80,33,o),
(35,-90,o),
(-7,-138,cs),
(-18,-150,o),
(-28,-157,o),
(-40,-157,cs),
(-60,-158,o),
(-56,-135,o),
(-75,-134,cs),
(-108,-134,o),
(-139,-163,o),
(-149,-205,cs),
(-154,-220,o),
(-139,-232,o),
(-113,-232,cs)
);
}
);
width = 296;
},
{
anchors = (
{
name = bottom;
pos = (64,0);
},
{
name = top;
pos = (274,616);
}
);
color = 1;
layerId = m005;
shapes = (
{
closed = 1;
nodes = (
(-79,-232,o),
(-16,-188,o),
(12,-164,cs),
(78,-108,o),
(148,29,o),
(177,148,cs),
(227,341,o),
(225,332,o),
(277,525,cs),
(285,555,o),
(290,569,o),
(305,577,cs),
(321,584,o),
(344,585,o),
(380,591,c),
(387,616,l),
(135,616,l),
(128,591,l),
(162,587,o),
(195,586,o),
(208,574,cs),
(216,565,o),
(217,551,o),
(210,525,cs),
(93,81,ls),
(80,33,o),
(35,-90,o),
(-7,-138,cs),
(-18,-150,o),
(-28,-157,o),
(-40,-157,cs),
(-60,-158,o),
(-56,-135,o),
(-75,-134,cs),
(-108,-134,o),
(-139,-163,o),
(-149,-205,cs),
(-154,-220,o),
(-139,-232,o),
(-113,-232,cs)
);
}
);
width = 296;
},
{
anchors = (
{
name = bottom;
pos = (64,0);
},
{
name = top;
pos = (274,616);
}
);
color = 1;
layerId = m006;
shapes = (
{
closed = 1;
nodes = (
(-79,-232,o),
(-16,-188,o),
(12,-164,cs),
(78,-108,o),
(148,29,o),
(177,148,cs),
(227,341,o),
(225,332,o),
(277,525,cs),
(285,555,o),
(290,569,o),
(305,577,cs),
(321,584,o),
(344,585,o),
(380,591,c),
(387,616,l),
(135,616,l),
(128,591,l),
(162,587,o),
(195,586,o),
(208,574,cs),
(216,565,o),
(217,551,o),
(210,525,cs),
(93,81,ls),
(80,33,o),
(35,-90,o),
(-7,-138,cs),
(-18,-150,o),
(-28,-157,o),
(-40,-157,cs),
(-60,-158,o),
(-56,-135,o),
(-75,-134,cs),
(-108,-134,o),
(-139,-163,o),
(-149,-205,cs),
(-154,-220,o),
(-139,-232,o),
(-113,-232,cs)
);
}
);
width = 296;
},
{
anchors = (
{
name = bottom;
pos = (64,0);
},
{
name = top;
pos = (274,616);
}
);
color = 1;
layerId = m004;
shapes = (
{
closed = 1;
nodes = (
(-79,-232,o),
(-16,-188,o),
(12,-164,cs),
(78,-108,o),
(148,29,o),
(177,148,cs),
(227,341,o),
(225,332,o),
(277,525,cs),
(285,555,o),
(290,569,o),
(305,577,cs),
(321,584,o),
(344,585,o),
(380,591,c),
(387,616,l),
(135,616,l),
(128,591,l),
(162,587,o),
(195,586,o),
(208,574,cs),
(216,565,o),
(217,551,o),
(210,525,cs),
(93,81,ls),
(80,33,o),
(35,-90,o),
(-7,-138,cs),
(-18,-150,o),
(-28,-157,o),
(-40,-157,cs),
(-60,-158,o),
(-56,-135,o),
(-75,-134,cs),
(-108,-134,o),
(-139,-163,o),
(-149,-205,cs),
(-154,-220,o),
(-139,-232,o),
(-113,-232,cs)
);
}
);
width = 296;
}
);
metricLeft = H;
metricRight = H;
unicode = 74;
},
{
glyphname = K;
lastChange = "2025-04-24 18:07:01 +0000";
layers = (
{
anchors = (
{
name = bottom;
pos = (254,0);
},
{
name = top;
pos = (464,616);
}
);
background = {
shapes = (
{
closed = 0;
nodes = (
(436,91,l),
(436,55,o),
(430,41,o),
(409,31,cs),
(398,26,o),
(380,25,o),
(353,18,c),
(353,0,l),
(598,0,l),
(598,18,l),
(552,31,o),
(529,33,o),
(520,51,cs),
(516,60,o),
(514,73,o),
(514,91,c)
);
},
{
closed = 0;
nodes = (
(458,525,l),
(458,561,o),
(464,575,o),
(485,585,cs),
(496,590,o),
(514,591,o),
(541,598,c),
(541,616,l),
(296,616,l),
(296,598,l),
(342,585,o),
(365,583,o),
(374,565,cs),
(378,556,o),
(380,543,o),
(380,525,cs)
);
}
);
};
color = 2;
layerId = m003;
shapes = (
{
closed = 1;
nodes = (
(-18,0,l),
(234,0,l),
(239,18,l),
(206,27,o),
(177,29,o),
(167,36,cs),
(158,44,o),
(153,58,o),
(162,91,cs),
(178,156,o),
(251,424,o),
(278,525,cs),
(286,556,o),
(297,572,o),
(312,581,cs),
(328,590,o),
(360,594,o),
(393,598,c),
(398,616,l),
(146,616,l),
(140,592,l),
(188,585,o),
(211,583,o),
(215,565,cs),
(216,556,o),
(215,543,o),
(210,525,cs),
(174,382,o),
(135,234,o),
(95,91,cs),
(88,66,o),
(80,52,o),
(68,44,cs),
(51,33,o),
(27,33,o),
(-11,25,c)
);
},
{
closed = 1;
nodes = (
(515,503,l),
(561,540,o),
(615,574,o),
(645,586,cs),
(662,592,o),
(693,597,o),
(699,598,c),
(704,616,l),
(480,616,l),
(475,598,l),
(498,593,o),
(518,580,o),
(512,557,cs),
(508,543,o),
(484,526,o),
(462,505,c),
(173,267,l),
(188,240,l)
);
},
{
closed = 1;
nodes = (
(599,18,l),
(540,34,o),
(507,42,o),
(470,93,c),
(306,356,l),
(247,301,l),
(297,217,o),
(387,72,o),
(406,40,cs),
(427,8,o),
(450,-4,o),
(493,-3,cs),
(594,0,l)
);
}
);
width = 618;
},
{
anchors = (
{
name = bottom;
pos = (254,0);
},
{
name = top;
pos = (464,616);
}
);
background = {
shapes = (
{
closed = 0;
nodes = (
(436,91,l),
(436,55,o),
(430,41,o),
(409,31,cs),
(398,26,o),
(380,25,o),
(353,18,c),
(353,0,l),
(598,0,l),
(598,18,l),
(552,31,o),
(529,33,o),
(520,51,cs),
(516,60,o),
(514,73,o),
(514,91,c)
);
},
{
closed = 0;
nodes = (
(458,525,l),
(458,561,o),
(464,575,o),
(485,585,cs),
(496,590,o),
(514,591,o),
(541,598,c),
(541,616,l),
(296,616,l),
(296,598,l),
(342,585,o),
(365,583,o),
(374,565,cs),
(378,556,o),
(380,543,o),
(380,525,cs)
);
}
);
};
color = 2;
layerId = m005;
shapes = (
{
closed = 1;
nodes = (
(-18,0,l),
(234,0,l),
(239,18,l),
(206,27,o),
(177,29,o),
(167,36,cs),
(158,44,o),
(153,58,o),
(162,91,cs),
(178,156,o),
(251,424,o),
(278,525,cs),
(286,556,o),
(297,572,o),
(312,581,cs),
(328,590,o),
(360,594,o),
(393,598,c),
(398,616,l),
(146,616,l),
(140,592,l),
(188,585,o),
(211,583,o),
(215,565,cs),
(216,556,o),
(215,543,o),
(210,525,cs),
(174,382,o),
(135,234,o),
(95,91,cs),
(88,66,o),
(80,52,o),
(68,44,cs),
(51,33,o),
(27,33,o),
(-11,25,c)
);
},
{
closed = 1;
nodes = (
(515,503,l),
(561,540,o),
(615,574,o),
(645,586,cs),
(662,592,o),
(693,597,o),
(699,598,c),
(704,616,l),
(480,616,l),
(475,598,l),
(498,593,o),
(518,580,o),
(512,557,cs),
(508,543,o),
(484,526,o),
(462,505,c),
(173,267,l),
(188,240,l)
);
},
{
closed = 1;
nodes = (
(599,18,l),
(540,34,o),
(507,42,o),
(470,93,c),
(306,356,l),
(247,301,l),
(297,217,o),
(387,72,o),
(406,40,cs),
(427,8,o),
(450,-4,o),
(493,-3,cs),
(594,0,l)
);
}
);
width = 618;
},
{
anchors = (
{
name = bottom;
pos = (254,0);
},
{
name = top;
pos = (464,616);
}
);
background = {
shapes = (
{
closed = 0;
nodes = (
(436,91,l),
(436,55,o),
(430,41,o),
(409,31,cs),
(398,26,o),
(380,25,o),
(353,18,c),
(353,0,l),
(598,0,l),
(598,18,l),
(552,31,o),
(529,33,o),
(520,51,cs),
(516,60,o),
(514,73,o),
(514,91,c)
);
},
{
closed = 0;
nodes = (
(458,525,l),
(458,561,o),
(464,575,o),
(485,585,cs),
(496,590,o),
(514,591,o),
(541,598,c),
(541,616,l),
(296,616,l),
(296,598,l),
(342,585,o),
(365,583,o),
(374,565,cs),
(378,556,o),
(380,543,o),
(380,525,cs)
);
}
);
};
color = 2;
layerId = m006;
shapes = (
{
closed = 1;
nodes = (
(-18,0,l),
(234,0,l),
(239,18,l),
(206,27,o),
(177,29,o),
(167,36,cs),
(158,44,o),
(153,58,o),
(162,91,cs),
(178,156,o),
(251,424,o),
(278,525,cs),
(286,556,o),
(297,572,o),
(312,581,cs),
(328,590,o),
(360,594,o),
(393,598,c),
(398,616,l),
(146,616,l),
(140,592,l),
(188,585,o),
(211,583,o),
(215,565,cs),
(216,556,o),
(215,543,o),
(210,525,cs),
(174,382,o),
(135,234,o),
(95,91,cs),
(88,66,o),
(80,52,o),
(68,44,cs),
(51,33,o),
(27,33,o),
(-11,25,c)
);
},
{
closed = 1;
nodes = (
(515,503,l),
(561,540,o),
(615,574,o),
(645,586,cs),
(662,592,o),
(693,597,o),
(699,598,c),
(704,616,l),
(480,616,l),
(475,598,l),
(498,593,o),
(518,580,o),
(512,557,cs),
(508,543,o),
(484,526,o),
(462,505,c),
(173,267,l),
(188,240,l)
);
},
{
closed = 1;
nodes = (
(599,18,l),
(540,34,o),
(507,42,o),
(470,93,c),
(306,356,l),
(247,301,l),
(297,217,o),
(387,72,o),
(406,40,cs),
(427,8,o),
(450,-4,o),
(493,-3,cs),
(594,0,l)
);
}
);
width = 618;
},
{
anchors = (
{
name = bottom;
pos = (254,0);
},
{
name = top;
pos = (464,616);
}
);
background = {
shapes = (
{
closed = 0;
nodes = (
(436,91,l),
(436,55,o),
(430,41,o),
(409,31,cs),
(398,26,o),
(380,25,o),
(353,18,c),
(353,0,l),
(598,0,l),
(598,18,l),
(552,31,o),
(529,33,o),
(520,51,cs),
(516,60,o),
(514,73,o),
(514,91,c)
);
},
{
closed = 0;
nodes = (
(458,525,l),
(458,561,o),
(464,575,o),
(485,585,cs),
(496,590,o),
(514,591,o),
(541,598,c),
(541,616,l),
(296,616,l),
(296,598,l),
(342,585,o),
(365,583,o),
(374,565,cs),
(378,556,o),
(380,543,o),
(380,525,cs)
);
}
);
};
color = 2;
layerId = m004;
shapes = (
{
closed = 1;
nodes = (
(-18,0,l),
(234,0,l),
(239,18,l),
(206,27,o),
(177,29,o),
(167,36,cs),
(158,44,o),
(153,58,o),
(162,91,cs),
(178,156,o),
(251,424,o),
(278,525,cs),
(286,556,o),
(297,572,o),
(312,581,cs),
(328,590,o),
(360,594,o),
(393,598,c),
(398,616,l),
(146,616,l),
(140,592,l),
(188,585,o),
(211,583,o),
(215,565,cs),
(216,556,o),
(215,543,o),
(210,525,cs),
(174,382,o),
(135,234,o),
(95,91,cs),
(88,66,o),
(80,52,o),
(68,44,cs),
(51,33,o),
(27,33,o),
(-11,25,c)
);
},
{
closed = 1;
nodes = (
(515,503,l),
(561,540,o),
(615,574,o),
(645,586,cs),
(662,592,o),
(693,597,o),
(699,598,c),
(704,616,l),
(480,616,l),
(475,598,l),
(498,593,o),
(518,580,o),
(512,557,cs),
(508,543,o),
(484,526,o),
(462,505,c),
(173,267,l),
(188,240,l)
);
},
{
closed = 1;
nodes = (
(599,18,l),
(540,34,o),
(507,42,o),
(470,93,c),
(306,356,l),
(247,301,l),
(297,217,o),
(387,72,o),
(406,40,cs),
(427,8,o),
(450,-4,o),
(493,-3,cs),
(594,0,l)
);
}
);
width = 618;
}
);
metricLeft = H;
unicode = 75;
},
{
glyphname = L;
lastChange = "2025-04-24 18:07:01 +0000";
layers = (
{
anchors = (
{
name = bottom;
pos = (242,0);
},
{
name = center;
pos = (347,308);
},
{
name = top;
pos = (452,616);
},
{
name = topright;
pos = (736,616);
}
);
color = 2;
layerId = m003;
shapes = (
{
closed = 1;
nodes = (
(-19,-3,l),
(72,-1,o),
(152,0,o),
(232,0,c),
(242,41,l),
(182,43,o),
(155,43,o),
(171,105,cs),
(203,234,o),
(224,318,o),
(280,517,cs),
(290,553,o),
(296,567,o),
(319,577,cs),
(331,582,o),
(360,585,o),
(391,588,c),
(398,616,l),
(148,616,l),
(142,592,l),
(175,587,o),
(197,585,o),
(208,576,cs),
(217,568,o),
(217,554,o),
(210,525,cs),
(175,382,o),
(135,234,o),
(94,91,cs),
(86,63,o),
(79,49,o),
(66,40,cs),
(51,30,o),
(29,29,o),
(-12,23,c)
);
},
{
closed = 1;
nodes = (
(294,2,o),
(405,1,o),
(473,-3,c),
(538,102,o),
(587,177,o),
(587,177,c),
(564,189,l),
(527,139,o),
(483,100,o),
(437,75,cs),
(366,36,o),
(306,41,o),
(242,41,c),
(232,0,l)
);
}
);
width = 603;
},
{
anchors = (
{
name = bottom;
pos = (242,0);
},
{
name = center;
pos = (347,308);
},
{
name = top;
pos = (452,616);
},
{
name = topright;
pos = (736,616);
}
);
color = 2;
layerId = m005;
shapes = (
{
closed = 1;
nodes = (
(-19,-3,l),
(72,-1,o),
(152,0,o),
(232,0,c),
(242,41,l),
(182,43,o),
(155,43,o),
(171,105,cs),
(203,234,o),
(224,318,o),
(280,517,cs),
(290,553,o),
(296,567,o),
(319,577,cs),
(331,582,o),
(360,585,o),
(391,588,c),
(398,616,l),
(148,616,l),
(142,592,l),
(175,587,o),
(197,585,o),
(208,576,cs),
(217,568,o),
(217,554,o),
(210,525,cs),
(175,382,o),
(135,234,o),
(94,91,cs),
(86,63,o),
(79,49,o),
(66,40,cs),
(51,30,o),
(29,29,o),
(-12,23,c)
);
},
{
closed = 1;
nodes = (
(294,2,o),
(405,1,o),
(473,-3,c),
(538,102,o),
(587,177,o),
(587,177,c),
(564,189,l),
(527,139,o),
(483,100,o),
(437,75,cs),
(366,36,o),
(306,41,o),
(242,41,c),
(232,0,l)
);
}
);
width = 603;
},
{
anchors = (
{
name = bottom;
pos = (242,0);
},
{
name = center;
pos = (347,308);
},
{
name = top;
pos = (452,616);
},
{
name = topright;
pos = (736,616);
}
);
color = 2;
layerId = m006;
shapes = (
{
closed = 1;
nodes = (
(-19,-3,l),
(72,-1,o),
(152,0,o),
(232,0,c),
(242,41,l),
(182,43,o),
(155,43,o),
(171,105,cs),
(203,234,o),
(224,318,o),
(280,517,cs),
(290,553,o),
(296,567,o),
(319,577,cs),
(331,582,o),
(360,585,o),
(391,588,c),
(398,616,l),
(148,616,l),
(142,592,l),
(175,587,o),
(197,585,o),
(208,576,cs),
(217,568,o),
(217,554,o),
(210,525,cs),
(175,382,o),
(135,234,o),
(94,91,cs),
(86,63,o),
(79,49,o),
(66,40,cs),
(51,30,o),
(29,29,o),
(-12,23,c)
);
},
{
closed = 1;
nodes = (
(294,2,o),
(405,1,o),
(473,-3,c),
(538,102,o),
(587,177,o),
(587,177,c),
(564,189,l),
(527,139,o),
(483,100,o),
(437,75,cs),
(366,36,o),
(306,41,o),
(242,41,c),
(232,0,l)
);
}
);
width = 603;
},
{
anchors = (
{
name = bottom;
pos = (242,0);
},
{
name = center;
pos = (347,308);
},
{
name = top;
pos = (452,616);
},
{
name = topright;
pos = (736,616);
}
);
color = 2;
layerId = m004;
shapes = (
{
closed = 1;
nodes = (
(-19,-3,l),
(72,-1,o),
(152,0,o),
(232,0,c),
(242,41,l),
(182,43,o),
(155,43,o),
(171,105,cs),
(203,234,o),
(224,318,o),
(280,517,cs),
(290,553,o),
(296,567,o),
(319,577,cs),
(331,582,o),
(360,585,o),
(391,588,c),
(398,616,l),
(148,616,l),
(142,592,l),
(175,587,o),
(197,585,o),
(208,576,cs),
(217,568,o),
(217,554,o),
(210,525,cs),
(175,382,o),
(135,234,o),
(94,91,cs),
(86,63,o),
(79,49,o),
(66,40,cs),
(51,30,o),
(29,29,o),
(-12,23,c)
);
},
{
closed = 1;
nodes = (
(294,2,o),
(405,1,o),
(473,-3,c),
(538,102,o),
(587,177,o),
(587,177,c),
(564,189,l),
(527,139,o),
(483,100,o),
(437,75,cs),
(366,36,o),
(306,41,o),
(242,41,c),
(232,0,l)
);
}
);
width = 603;
}
);
metricLeft = H;
metricRight = H;
unicode = 76;
},
{
glyphname = M;
lastChange = "2025-04-24 18:07:01 +0000";
layers = (
{
anchors = (
{
name = bottom;
pos = (391,0);
},
{
name = top;
pos = (601,616);
}
);
backgroundImage = {
imagePath = "../../Desktop/Bildschirmfoto 2024-12-24 um 15.40.08.png";
pos = (812,-1015);
scale = (-1.3983,1.4017);
slant = (-2.0049,0);
};
color = 1;
layerId = m003;
shapes = (
{
closed = 1;
nodes = (
(821,586,l),
(800,616,l),
(412,107,l),
(417,117,l),
(326,616,l),
(164,616,l),
(157,591,l),
(204,587,ls),
(232,584,o),
(257,565,o),
(262,540,cs),
(364,-16,l)
);
},
{
closed = 1;
nodes = (
(216,0,l),
(223,25,l),
(189,33,o),
(142,40,o),
(135,52,cs),
(129,63,o),
(128,79,o),
(136,105,cs),
(278,561,l),
(245,591,l),
(96,105,ls),
(88,78,o),
(78,60,o),
(67,51,cs),
(52,39,o),
(14,33,o),
(-11,25,c),
(-18,0,l)
);
},
{
closed = 1;
nodes = (
(810,0,l),
(817,25,l),
(779,33,o),
(746,41,o),
(740,51,cs),
(729,65,o),
(735,82,o),
(741,104,cs),
(769,216,o),
(816,401,o),
(849,529,cs),
(854,544,o),
(860,556,o),
(873,566,cs),
(887,578,o),
(917,586,o),
(949,591,c),
(956,616,l),
(800,616,l),
(671,104,ls),
(664,80,o),
(660,63,o),
(644,50,cs),
(623,34,o),
(584,27,o),
(565,25,c),
(558,0,l)
);
}
);
width = 881;
},
{
anchors = (
{
name = bottom;
pos = (391,0);
},
{
name = top;
pos = (601,616);
}
);
backgroundImage = {
imagePath = "../../Desktop/Bildschirmfoto 2024-12-24 um 15.40.08.png";
pos = (812,-1015);
scale = (-1.3983,1.4017);
};
color = 1;
layerId = m005;
shapes = (
{
closed = 1;
nodes = (
(821,586,l),
(800,616,l),
(412,107,l),
(417,117,l),
(326,616,l),
(164,616,l),
(157,591,l),
(204,587,ls),
(232,584,o),
(257,565,o),
(262,540,cs),
(364,-16,l)
);
},
{
closed = 1;
nodes = (
(216,0,l),
(223,25,l),
(189,33,o),
(142,40,o),
(135,52,cs),
(129,63,o),
(128,79,o),
(136,105,cs),
(278,561,l),
(245,591,l),
(96,105,ls),
(88,78,o),
(78,60,o),
(67,51,cs),
(52,39,o),
(14,33,o),
(-11,25,c),
(-18,0,l)
);
},
{
closed = 1;
nodes = (
(810,0,l),
(817,25,l),
(779,33,o),
(746,41,o),
(740,51,cs),
(729,65,o),
(735,82,o),
(741,104,cs),
(769,216,o),
(816,401,o),
(849,529,cs),
(854,544,o),
(860,556,o),
(873,566,cs),
(887,578,o),
(917,586,o),
(949,591,c),
(956,616,l),
(800,616,l),
(671,104,ls),
(664,80,o),
(660,63,o),
(644,50,cs),
(623,34,o),
(584,27,o),
(565,25,c),
(558,0,l)
);
}
);
width = 881;
},
{
anchors = (
{
name = bottom;
pos = (391,0);
},
{
name = top;
pos = (601,616);
}
);
backgroundImage = {
imagePath = "../../Desktop/Bildschirmfoto 2024-12-24 um 15.40.08.png";
pos = (812,-1015);
scale = (-1.3983,1.4017);
};
color = 1;
layerId = m006;
shapes = (
{
closed = 1;
nodes = (
(821,586,l),
(800,616,l),
(412,107,l),
(417,117,l),
(326,616,l),
(164,616,l),
(157,591,l),
(204,587,ls),
(232,584,o),
(257,565,o),
(262,540,cs),
(364,-16,l)
);
},
{
closed = 1;
nodes = (
(216,0,l),
(223,25,l),
(189,33,o),
(142,40,o),
(135,52,cs),
(129,63,o),
(128,79,o),
(136,105,cs),
(278,561,l),
(245,591,l),
(96,105,ls),
(88,78,o),
(78,60,o),
(67,51,cs),
(52,39,o),
(14,33,o),
(-11,25,c),
(-18,0,l)
);
},
{
closed = 1;
nodes = (
(810,0,l),
(817,25,l),
(779,33,o),
(746,41,o),
(740,51,cs),
(729,65,o),
(735,82,o),
(741,104,cs),
(769,216,o),
(816,401,o),
(849,529,cs),
(854,544,o),
(860,556,o),
(873,566,cs),
(887,578,o),
(917,586,o),
(949,591,c),
(956,616,l),
(800,616,l),
(671,104,ls),
(664,80,o),
(660,63,o),
(644,50,cs),
(623,34,o),
(584,27,o),
(565,25,c),
(558,0,l)
);
}
);
width = 881;
},
{
anchors = (
{
name = bottom;
pos = (391,0);
},
{
name = top;
pos = (601,616);
}
);
backgroundImage = {
imagePath = "../../Desktop/Bildschirmfoto 2024-12-24 um 15.40.08.png";
pos = (812,-1015);
scale = (-1.3983,1.4017);
};
color = 1;
layerId = m004;
shapes = (
{
closed = 1;
nodes = (
(821,586,l),
(800,616,l),
(412,107,l),
(417,117,l),
(326,616,l),
(164,616,l),
(157,591,l),
(204,587,ls),
(232,584,o),
(257,565,o),
(262,540,cs),
(364,-16,l)
);
},
{
closed = 1;
nodes = (
(216,0,l),
(223,25,l),
(189,33,o),
(142,40,o),
(135,52,cs),
(129,63,o),
(128,79,o),
(136,105,cs),
(278,561,l),
(245,591,l),
(96,105,ls),
(88,78,o),
(78,60,o),
(67,51,cs),
(52,39,o),
(14,33,o),
(-11,25,c),
(-18,0,l)
);
},
{
closed = 1;
nodes = (
(810,0,l),
(817,25,l),
(779,33,o),
(746,41,o),
(740,51,cs),
(729,65,o),
(735,82,o),
(741,104,cs),
(769,216,o),
(816,401,o),
(849,529,cs),
(854,544,o),
(860,556,o),
(873,566,cs),
(887,578,o),
(917,586,o),
(949,591,c),
(956,616,l),
(800,616,l),
(671,104,ls),
(664,80,o),
(660,63,o),
(644,50,cs),
(623,34,o),
(584,27,o),
(565,25,c),
(558,0,l)
);
}
);
width = 881;
}
);
metricLeft = H;
metricRight = H;
unicode = 77;
},
{
glyphname = N;
lastChange = "2025-04-24 18:07:01 +0000";
layers = (
{
anchors = (
{
name = bottom;
pos = (315,0);
},
{
name = top;
pos = (525,616);
}
);
color = 1;
layerId = m003;
shapes = (
{
closed = 1;
nodes = (
(608,-8,l),
(652,160,o),
(728,443,o),
(747,512,c),
(707,512,l),
(596,97,l),
(609,106,l),
(266,616,l),
(146,616,l),
(139,591,l),
(161,587,o),
(184,570,o),
(195,557,cs),
(209,541,o),
(229,514,o),
(229,514,c),
(582,-8,l)
);
},
{
closed = 1;
nodes = (
(214,0,l),
(221,25,l),
(185,28,o),
(147,35,o),
(138,52,cs),
(129,68,o),
(132,78,o),
(139,104,c),
(99,104,l),
(92,77,o),
(87,70,o),
(70,56,cs),
(48,39,o),
(10,33,o),
(-13,25,c),
(-20,0,l)
);
},
{
closed = 1;
nodes = (
(139,104,l),
(261,561,l),
(228,591,l),
(99,104,l)
);
},
{
closed = 1;
nodes = (
(747,512,l),
(755,542,o),
(764,556,o),
(779,565,cs),
(793,575,o),
(814,581,o),
(840,588,c),
(847,616,l),
(631,616,l),
(624,591,l),
(669,584,o),
(687,579,o),
(699,565,cs),
(707,554,o),
(715,541,o),
(707,512,c)
);
}
);
width = 763;
},
{
anchors = (
{
name = bottom;
pos = (315,0);
},
{
name = top;
pos = (525,616);
}
);
color = 1;
layerId = m005;
shapes = (
{
closed = 1;
nodes = (
(608,-8,l),
(652,160,o),
(728,443,o),
(747,512,c),
(707,512,l),
(596,97,l),
(609,106,l),
(266,616,l),
(146,616,l),
(139,591,l),
(161,587,o),
(184,570,o),
(195,557,cs),
(209,541,o),
(229,514,o),
(229,514,c),
(582,-8,l)
);
},
{
closed = 1;
nodes = (
(214,0,l),
(221,25,l),
(185,28,o),
(147,35,o),
(138,52,cs),
(129,68,o),
(132,78,o),
(139,104,c),
(99,104,l),
(92,77,o),
(87,70,o),
(70,56,cs),
(48,39,o),
(10,33,o),
(-13,25,c),
(-20,0,l)
);
},
{
closed = 1;
nodes = (
(139,104,l),
(261,561,l),
(228,591,l),
(99,104,l)
);
},
{
closed = 1;
nodes = (
(747,512,l),
(755,542,o),
(764,556,o),
(779,565,cs),
(793,575,o),
(814,581,o),
(840,588,c),
(847,616,l),
(631,616,l),
(624,591,l),
(669,584,o),
(687,579,o),
(699,565,cs),
(707,554,o),
(715,541,o),
(707,512,c)
);
}
);
width = 763;
},
{
anchors = (
{
name = bottom;
pos = (315,0);
},
{
name = top;
pos = (525,616);
}
);
color = 1;
layerId = m006;
shapes = (
{
closed = 1;
nodes = (
(608,-8,l),
(652,160,o),
(728,443,o),
(747,512,c),
(707,512,l),
(596,97,l),
(609,106,l),
(266,616,l),
(146,616,l),
(139,591,l),
(161,587,o),
(184,570,o),
(195,557,cs),
(209,541,o),
(229,514,o),
(229,514,c),
(582,-8,l)
);
},
{
closed = 1;
nodes = (
(214,0,l),
(221,25,l),
(185,28,o),
(147,35,o),
(138,52,cs),
(129,68,o),
(132,78,o),
(139,104,c),
(99,104,l),
(92,77,o),
(87,70,o),
(70,56,cs),
(48,39,o),
(10,33,o),
(-13,25,c),
(-20,0,l)
);
},
{
closed = 1;
nodes = (
(139,104,l),
(261,561,l),
(228,591,l),
(99,104,l)
);
},
{
closed = 1;
nodes = (
(747,512,l),
(755,542,o),
(764,556,o),
(779,565,cs),
(793,575,o),
(814,581,o),
(840,588,c),
(847,616,l),
(631,616,l),
(624,591,l),
(669,584,o),
(687,579,o),
(699,565,cs),
(707,554,o),
(715,541,o),
(707,512,c)
);
}
);
width = 763;
},
{
anchors = (
{
name = bottom;
pos = (315,0);
},
{
name = top;
pos = (525,616);
}
);
color = 1;
layerId = m004;
shapes = (
{
closed = 1;
nodes = (
(608,-8,l),
(652,160,o),
(728,443,o),
(747,512,c),
(707,512,l),
(596,97,l),
(609,106,l),
(266,616,l),
(146,616,l),
(139,591,l),
(161,587,o),
(184,570,o),
(195,557,cs),
(209,541,o),
(229,514,o),
(229,514,c),
(582,-8,l)
);
},
{
closed = 1;
nodes = (
(214,0,l),
(221,25,l),
(185,28,o),
(147,35,o),
(138,52,cs),
(129,68,o),
(132,78,o),
(139,104,c),
(99,104,l),
(92,77,o),
(87,70,o),
(70,56,cs),
(48,39,o),
(10,33,o),
(-13,25,c),
(-20,0,l)
);
},
{
closed = 1;
nodes = (
(139,104,l),
(261,561,l),
(228,591,l),
(99,104,l)
);
},
{
closed = 1;
nodes = (
(747,512,l),
(755,542,o),
(764,556,o),
(779,565,cs),
(793,575,o),
(814,581,o),
(840,588,c),
(847,616,l),
(631,616,l),
(624,591,l),
(669,584,o),
(687,579,o),
(699,565,cs),
(707,554,o),
(715,541,o),
(707,512,c)
);
}
);
width = 763;
}
);
metricLeft = H;
metricRight = H;
unicode = 78;
},
{
glyphname = O;
lastChange = "2025-04-24 18:06:37 +0000";
layers = (
{
anchors = (
{
name = bottom;
pos = (237,0);
},
{
name = center;
pos = (302,308);
},
{
name = ogonek;
pos = (497,10);
},
{
name = top;
pos = (467,617);
},
{
name = topleft;
pos = (56,616);
},
{
name = topright;
pos = (758,616);
}
);
background = {
shapes = (
{
closed = 1;
nodes = (
(520,-8,o),
(670,123,o),
(700,308,cs),
(734,507,o),
(631,648,o),
(451,648,cs),
(269,648,o),
(119,518,o),
(88,334,cs),
(55,134,o),
(158,-8,o),
(337,-8,cs)
);
},
{
closed = 1;
nodes = (
(243,30,o),
(157,139,o),
(165,275,cs),
(176,462,o),
(294,610,o),
(431,610,cs),
(545,610,o),
(629,502,o),
(620,366,cs),
(610,179,o),
(494,30,o),
(358,30,cs)
);
}
);
};
color = 4;
layerId = m003;
shapes = (
{
closed = 1;
nodes = (
(520,-8,o),
(670,123,o),
(700,308,cs),
(734,507,o),
(631,648,o),
(451,648,cs),
(269,648,o),
(119,518,o),
(88,334,cs),
(55,134,o),
(158,-8,o),
(337,-8,cs)
);
},
{
closed = 1;
nodes = (
(243,30,o),
(157,139,o),
(165,275,cs),
(176,462,o),
(294,610,o),
(431,610,cs),
(545,610,o),
(629,502,o),
(620,366,cs),
(610,179,o),
(494,30,o),
(358,30,cs)
);
}
);
width = 733;
},
{
anchors = (
{
name = bottom;
pos = (236,0);
},
{
name = center;
pos = (301,308);
},
{
name = ogonek;
pos = (496,10);
},
{
name = top;
pos = (404,617);
},
{
name = topleft;
pos = (55,616);
},
{
name = topright;
pos = (757,616);
}
);
background = {
shapes = (
{
closed = 1;
nodes = (
(576,111,o),
(631,209,o),
(634,323,c,{
"Letterink-NibData" = {
AngleInDegrees = "359.99999";
};
}),
(631,395,o),
(620,434,o),
(590,483,cs,{
"Letterink-NibData" = {
AngleInDegrees = "0";
};
}),
(529,582,o),
(443,633,o),
(339,633,cs),
(290,633,o),
(242,621,o),
(201,597,cs,{
"Letterink-NibData" = {
AngleInDegrees = "359.99999";
};
}),
(131,557,ls,{
"Letterink-NibData" = {
AngleInDegrees = "359.99999";
};
}),
(105,542,o),
(53,495,o),
(36,471,cs,{
"Letterink-NibData" = {
AngleInDegrees = "360";
};
}),
(-4,415,o),
(-22,359,o),
(-22,290,cs),
(-22,121,o),
(113,-21,o),
(273,-21,cs),
(322,-21,o),
(374,-7,o),
(418,19,cs,{
"Letterink-NibData" = {
AngleInDegrees = "360";
};
}),
(487,59,ls,{
"Letterink-NibData" = {
AngleInDegrees = "0";
};
})
);
},
{
closed = 1;
nodes = (
(412,32,o),
(380,26,o),
(339,26,cs),
(265,26,o),
(182,61,o),
(137,111,cs,{
"Letterink-NibData" = {
AngleInDegrees = "360";
};
}),
(125,123,o),
(112,141,o),
(92,168,c,{
"Letterink-NibData" = {
AngleInDegrees = "359.99999";
};
}),
(61,236,o),
(51,271,o),
(51,323,cs),
(51,425,o),
(89,501,o),
(173,566,c,{
"Letterink-NibData" = {
AngleInDegrees = "0";
};
}),
(215,583,o),
(231,586,o),
(273,586,cs),
(378,586,o),
(459,538,o),
(523,438,c,{
"Letterink-NibData" = {
AngleInDegrees = "359.99999";
};
}),
(550,389,o),
(561,347,o),
(561,289,cs,{
"Letterink-NibData" = {
AngleInDegrees = "359.99999";
};
}),
(559,192,o),
(516,102,o),
(445,47,c,{
"Letterink-NibData" = {
AngleInDegrees = "0";
};
})
);
}
);
};
color = 4;
layerId = m005;
shapes = (
{
closed = 1;
nodes = (
(359,-8,cs),
(518,-8,o),
(664,116,o),
(689,272,cs),
(727,470,o),
(608,628,o),
(421,628,cs),
(262,628,o),
(116,504,o),
(91,348,cs),
(53,150,o),
(172,-8,o)
);
},
{
closed = 1;
nodes = (
(249,32,o),
(150,183,o),
(169,372,cs),
(178,492,o),
(281,588,o),
(401,588,cs),
(536,588,o),
(629,437,o),
(610,248,cs),
(601,128,o),
(504,32,o),
(392,32,cs)
);
}
);
width = 732;
},
{
anchors = (
{
name = bottom;
pos = (236,0);
},
{
name = center;
pos = (301,308);
},
{
name = ogonek;
pos = (496,10);
},
{
name = top;
pos = (404,617);
},
{
name = topleft;
pos = (55,616);
},
{
name = topright;
pos = (757,616);
}
);
background = {
shapes = (
{
closed = 1;
nodes = (
(576,111,o),
(631,209,o),
(634,323,c,{
"Letterink-NibData" = {
AngleInDegrees = "359.99999";
};
}),
(631,395,o),
(620,434,o),
(590,483,cs,{
"Letterink-NibData" = {
AngleInDegrees = "0";
};
}),
(529,582,o),
(443,633,o),
(339,633,cs),
(290,633,o),
(242,621,o),
(201,597,cs,{
"Letterink-NibData" = {
AngleInDegrees = "359.99999";
};
}),
(131,557,ls,{
"Letterink-NibData" = {
AngleInDegrees = "359.99999";
};
}),
(105,542,o),
(53,495,o),
(36,471,cs,{
"Letterink-NibData" = {
AngleInDegrees = "360";
};
}),
(-4,415,o),
(-22,359,o),
(-22,290,cs),
(-22,121,o),
(113,-21,o),
(273,-21,cs),
(322,-21,o),
(374,-7,o),
(418,19,cs,{
"Letterink-NibData" = {
AngleInDegrees = "360";
};
}),
(487,59,ls,{
"Letterink-NibData" = {
AngleInDegrees = "0";
};
})
);
},
{
closed = 1;
nodes = (
(412,32,o),
(380,26,o),
(339,26,cs),
(265,26,o),
(182,61,o),
(137,111,cs,{
"Letterink-NibData" = {
AngleInDegrees = "360";
};
}),
(125,123,o),
(112,141,o),
(92,168,c,{
"Letterink-NibData" = {
AngleInDegrees = "359.99999";
};
}),
(61,236,o),
(51,271,o),
(51,323,cs),
(51,425,o),
(89,501,o),
(173,566,c,{
"Letterink-NibData" = {
AngleInDegrees = "0";
};
}),
(215,583,o),
(231,586,o),
(273,586,cs),
(378,586,o),
(459,538,o),
(523,438,c,{
"Letterink-NibData" = {
AngleInDegrees = "359.99999";
};
}),
(550,389,o),
(561,347,o),
(561,289,cs,{
"Letterink-NibData" = {
AngleInDegrees = "359.99999";
};
}),
(559,192,o),
(516,102,o),
(445,47,c,{
"Letterink-NibData" = {
AngleInDegrees = "0";
};
})
);
}
);
};
color = 4;
layerId = m006;
shapes = (
{
closed = 1;
nodes = (
(359,-8,cs),
(518,-8,o),
(664,116,o),
(689,272,cs),
(727,470,o),
(608,628,o),
(421,628,cs),
(262,628,o),
(116,504,o),
(91,348,cs),
(53,150,o),
(172,-8,o)
);
},
{
closed = 1;
nodes = (
(249,32,o),
(150,183,o),
(169,372,cs),
(178,492,o),
(281,588,o),
(401,588,cs),
(536,588,o),
(629,437,o),
(610,248,cs),
(601,128,o),
(504,32,o),
(392,32,cs)
);
}
);
width = 732;
},
{
anchors = (
{
name = bottom;
pos = (236,0);
},
{
name = center;
pos = (301,308);
},
{
name = ogonek;
pos = (496,10);
},
{
name = top;
pos = (404,617);
},
{
name = topleft;
pos = (55,616);
},
{
name = topright;
pos = (757,616);
}
);
background = {
shapes = (
{
closed = 1;
nodes = (
(576,111,o),
(631,209,o),
(634,323,c,{
"Letterink-NibData" = {
AngleInDegrees = "359.99999";
};
}),
(631,395,o),
(620,434,o),
(590,483,cs,{
"Letterink-NibData" = {
AngleInDegrees = "0";
};
}),
(529,582,o),
(443,633,o),
(339,633,cs),
(290,633,o),
(242,621,o),
(201,597,cs,{
"Letterink-NibData" = {
AngleInDegrees = "359.99999";
};
}),
(131,557,ls,{
"Letterink-NibData" = {
AngleInDegrees = "359.99999";
};
}),
(105,542,o),
(53,495,o),
(36,471,cs,{
"Letterink-NibData" = {
AngleInDegrees = "360";
};
}),
(-4,415,o),
(-22,359,o),
(-22,290,cs),
(-22,121,o),
(113,-21,o),
(273,-21,cs),
(322,-21,o),
(374,-7,o),
(418,19,cs,{
"Letterink-NibData" = {
AngleInDegrees = "360";
};
}),
(487,59,ls,{
"Letterink-NibData" = {
AngleInDegrees = "0";
};
})
);
},
{
closed = 1;
nodes = (
(412,32,o),
(380,26,o),
(339,26,cs),
(265,26,o),
(182,61,o),
(137,111,cs,{
"Letterink-NibData" = {
AngleInDegrees = "360";
};
}),
(125,123,o),
(112,141,o),
(92,168,c,{
"Letterink-NibData" = {
AngleInDegrees = "359.99999";
};
}),
(61,236,o),
(51,271,o),
(51,323,cs),
(51,425,o),
(89,501,o),
(173,566,c,{
"Letterink-NibData" = {
AngleInDegrees = "0";
};
}),
(215,583,o),
(231,586,o),
(273,586,cs),
(378,586,o),
(459,538,o),
(523,438,c,{
"Letterink-NibData" = {
AngleInDegrees = "359.99999";
};
}),
(550,389,o),
(561,347,o),
(561,289,cs,{
"Letterink-NibData" = {
AngleInDegrees = "359.99999";
};
}),
(559,192,o),
(516,102,o),
(445,47,c,{
"Letterink-NibData" = {
AngleInDegrees = "0";
};
})
);
}
);
};
color = 4;
layerId = m004;
shapes = (
{
closed = 1;
nodes = (
(359,-8,cs),
(518,-8,o),
(664,116,o),
(689,272,cs),
(727,470,o),
(608,628,o),
(421,628,cs),
(262,628,o),
(116,504,o),
(91,348,cs),
(53,150,o),
(172,-8,o)
);
},
{
closed = 1;
nodes = (
(249,32,o),
(150,183,o),
(169,372,cs),
(178,492,o),
(281,588,o),
(401,588,cs),
(536,588,o),
(629,437,o),
(610,248,cs),
(601,128,o),
(504,32,o),
(392,32,cs)
);
}
);
width = 732;
},
{
anchors = (
{
name = bottom;
pos = (226,0);
},
{
name = center;
pos = (291,308);
},
{
name = ogonek;
pos = (486,10);
},
{
name = top;
pos = (394,617);
},
{
name = topleft;
pos = (45,616);
},
{
name = topright;
pos = (747,616);
}
);
associatedMasterId = m003;
background = {
shapes = (
{
closed = 1;
nodes = (
(566,111,o),
(621,209,o),
(624,323,c,{
"Letterink-NibData" = {
AngleInDegrees = "359.99999";
};
}),
(621,395,o),
(610,434,o),
(580,483,cs,{
"Letterink-NibData" = {
AngleInDegrees = "0";
};
}),
(519,582,o),
(433,633,o),
(329,633,cs),
(280,633,o),
(232,621,o),
(191,597,cs,{
"Letterink-NibData" = {
AngleInDegrees = "359.99999";
};
}),
(121,557,ls,{
"Letterink-NibData" = {
AngleInDegrees = "359.99999";
};
}),
(95,542,o),
(43,495,o),
(26,471,cs,{
"Letterink-NibData" = {
AngleInDegrees = "360";
};
}),
(-14,415,o),
(-32,359,o),
(-32,290,cs),
(-32,121,o),
(103,-21,o),
(263,-21,cs),
(312,-21,o),
(364,-7,o),
(408,19,cs,{
"Letterink-NibData" = {
AngleInDegrees = "360";
};
}),
(477,59,ls,{
"Letterink-NibData" = {
AngleInDegrees = "0";
};
})
);
},
{
closed = 1;
nodes = (
(402,32,o),
(370,26,o),
(329,26,cs),
(255,26,o),
(172,61,o),
(127,111,cs,{
"Letterink-NibData" = {
AngleInDegrees = "360";
};
}),
(115,123,o),
(102,141,o),
(82,168,c,{
"Letterink-NibData" = {
AngleInDegrees = "359.99999";
};
}),
(51,236,o),
(41,271,o),
(41,323,cs),
(41,425,o),
(79,501,o),
(163,566,c,{
"Letterink-NibData" = {
AngleInDegrees = "0";
};
}),
(205,583,o),
(221,586,o),
(263,586,cs),
(368,586,o),
(449,538,o),
(513,438,c,{
"Letterink-NibData" = {
AngleInDegrees = "359.99999";
};
}),
(540,389,o),
(551,347,o),
(551,289,cs,{
"Letterink-NibData" = {
AngleInDegrees = "359.99999";
};
}),
(549,192,o),
(506,102,o),
(435,47,c,{
"Letterink-NibData" = {
AngleInDegrees = "0";
};
})
);
}
);
};
color = 4;
layerId = "FF25EAEE-72E0-4662-A40E-DAF0E28FD9E2";
name = "17. Apr. 25, 07:35";
shapes = (
{
closed = 1;
nodes = (
(349,-8,cs),
(508,-8,o),
(654,116,o),
(679,272,cs),
(717,470,o),
(598,628,o),
(411,628,cs),
(252,628,o),
(106,504,o),
(81,348,cs),
(43,150,o),
(162,-8,o)
);
},
{
closed = 1;
nodes = (
(239,32,o),
(140,183,o),
(159,372,cs),
(168,492,o),
(271,588,o),
(391,588,cs),
(526,588,o),
(619,437,o),
(600,248,cs),
(591,128,o),
(494,32,o),
(382,32,cs)
);
}
);
width = 702;
}
);
note = O;
unicode = 79;
},
{
glyphname = P;
lastChange = "2025-04-24 18:07:01 +0000";
layers = (
{
anchors = (
{
name = bottom;
pos = (194,0);
},
{
name = top;
pos = (404,616);
}
);
background = {
anchors = (
{
name = bottom;
pos = (245,0);
},
{
name = center;
pos = (103,154);
},
{
name = top;
pos = (245,616);
}
);
shapes = (
{
closed = 1;
nodes = (
(-15,0,l),
(268,0,l),
(268,40,l),
(223,40,o),
(188,38,o),
(169,54,cs),
(160,62,o),
(155,73,o),
(155,91,cs),
(153,307,o),
(152,377,o),
(156,574,c),
(173,576,o),
(225,576,o),
(248,576,c),
(248,616,l),
(-15,616,l),
(-15,591,l),
(19,581,o),
(43,582,o),
(57,572,cs),
(67,565,o),
(72,552,o),
(72,525,cs),
(73,341,o),
(74,253,o),
(74,312,cs),
(74,373,o),
(73,282,o),
(72,91,cs),
(72,65,o),
(66,51,o),
(57,43,cs),
(41,29,o),
(15,31,o),
(-15,25,c)
);
},
{
closed = 1;
nodes = (
(142,318,o),
(154,318,o),
(182,318,cs),
(338,318,o),
(441,378,o),
(441,481,cs),
(441,560,o),
(361,616,o),
(248,616,c),
(248,576,l),
(309,576,o),
(352,529,o),
(352,462,cs),
(352,387,o),
(283,348,o),
(175,348,cs),
(115,348,l),
(116,318,l)
);
}
);
};
color = 2;
layerId = m003;
shapes = (
{
closed = 1;
nodes = (
(260,271,o),
(272,271,o),
(287,271,cs),
(417,271,o),
(523,353,o),
(543,468,cs),
(558,558,o),
(502,620,o),
(408,618,c),
(380,587,l),
(432,587,o),
(467,533,o),
(464,456,cs),
(461,364,o),
(378,299,o),
(263,299,c),
(256,272,l)
);
},
{
closed = 1;
nodes = (
(252,0,l),
(258,21,l),
(210,32,o),
(174,43,o),
(171,47,cs),
(165,54,o),
(166,79,o),
(174,111,cs),
(198,205,o),
(249,405,o),
(301,586,c),
(380,587,l),
(408,618,l),
(344,617,o),
(288,616,o),
(275,616,c),
(239,616,o),
(178,617,o),
(129,618,c),
(121,590,l),
(163,583,o),
(198,570,o),
(204,559,cs),
(211,549,o),
(212,529,o),
(207,510,cs),
(180,403,o),
(134,231,o),
(98,101,cs),
(91,76,o),
(80,54,o),
(70,45,cs),
(64,40,o),
(30,30,o),
(-12,21,c),
(-18,0,l)
);
}
);
width = 512;
},
{
anchors = (
{
name = bottom;
pos = (194,0);
},
{
name = top;
pos = (404,616);
}
);
background = {
anchors = (
{
name = bottom;
pos = (245,0);
},
{
name = center;
pos = (103,154);
},
{
name = top;
pos = (245,616);
}
);
shapes = (
{
closed = 1;
nodes = (
(-15,0,l),
(268,0,l),
(268,40,l),
(223,40,o),
(188,38,o),
(169,54,cs),
(160,62,o),
(155,73,o),
(155,91,cs),
(153,307,o),
(152,377,o),
(156,574,c),
(173,576,o),
(225,576,o),
(248,576,c),
(248,616,l),
(-15,616,l),
(-15,591,l),
(19,581,o),
(43,582,o),
(57,572,cs),
(67,565,o),
(72,552,o),
(72,525,cs),
(73,341,o),
(74,253,o),
(74,312,cs),
(74,373,o),
(73,282,o),
(72,91,cs),
(72,65,o),
(66,51,o),
(57,43,cs),
(41,29,o),
(15,31,o),
(-15,25,c)
);
},
{
closed = 1;
nodes = (
(142,318,o),
(154,318,o),
(182,318,cs),
(338,318,o),
(441,378,o),
(441,481,cs),
(441,560,o),
(361,616,o),
(248,616,c),
(248,576,l),
(309,576,o),
(352,529,o),
(352,462,cs),
(352,387,o),
(283,348,o),
(175,348,cs),
(115,348,l),
(116,318,l)
);
}
);
};
color = 2;
layerId = m005;
shapes = (
{
closed = 1;
nodes = (
(260,271,o),
(272,271,o),
(287,271,cs),
(417,271,o),
(523,353,o),
(543,468,cs),
(558,558,o),
(502,620,o),
(408,618,c),
(380,587,l),
(432,587,o),
(467,533,o),
(464,456,cs),
(461,364,o),
(378,299,o),
(263,299,c),
(256,272,l)
);
},
{
closed = 1;
nodes = (
(252,0,l),
(258,21,l),
(210,32,o),
(174,43,o),
(171,47,cs),
(165,54,o),
(166,79,o),
(174,111,cs),
(198,205,o),
(249,405,o),
(301,586,c),
(380,587,l),
(408,618,l),
(344,617,o),
(288,616,o),
(275,616,c),
(239,616,o),
(178,617,o),
(129,618,c),
(121,590,l),
(163,583,o),
(198,570,o),
(204,559,cs),
(211,549,o),
(212,529,o),
(207,510,cs),
(180,403,o),
(134,231,o),
(98,101,cs),
(91,76,o),
(80,54,o),
(70,45,cs),
(64,40,o),
(30,30,o),
(-12,21,c),
(-18,0,l)
);
}
);
width = 512;
},
{
anchors = (
{
name = bottom;
pos = (194,0);
},
{
name = top;
pos = (404,616);
}
);
background = {
anchors = (
{
name = bottom;
pos = (245,0);
},
{
name = center;
pos = (103,154);
},
{
name = top;
pos = (245,616);
}
);
shapes = (
{
closed = 1;
nodes = (
(-15,0,l),
(268,0,l),
(268,40,l),
(223,40,o),
(188,38,o),
(169,54,cs),
(160,62,o),
(155,73,o),
(155,91,cs),
(153,307,o),
(152,377,o),
(156,574,c),
(173,576,o),
(225,576,o),
(248,576,c),
(248,616,l),
(-15,616,l),
(-15,591,l),
(19,581,o),
(43,582,o),
(57,572,cs),
(67,565,o),
(72,552,o),
(72,525,cs),
(73,341,o),
(74,253,o),
(74,312,cs),
(74,373,o),
(73,282,o),
(72,91,cs),
(72,65,o),
(66,51,o),
(57,43,cs),
(41,29,o),
(15,31,o),
(-15,25,c)
);
},
{
closed = 1;
nodes = (
(142,318,o),
(154,318,o),
(182,318,cs),
(338,318,o),
(441,378,o),
(441,481,cs),
(441,560,o),
(361,616,o),
(248,616,c),
(248,576,l),
(309,576,o),
(352,529,o),
(352,462,cs),
(352,387,o),
(283,348,o),
(175,348,cs),
(115,348,l),
(116,318,l)
);
}
);
};
color = 2;
layerId = m006;
shapes = (
{
closed = 1;
nodes = (
(260,271,o),
(272,271,o),
(287,271,cs),
(417,271,o),
(523,353,o),
(543,468,cs),
(558,558,o),
(502,620,o),
(408,618,c),
(380,587,l),
(432,587,o),
(467,533,o),
(464,456,cs),
(461,364,o),
(378,299,o),
(263,299,c),
(256,272,l)
);
},
{
closed = 1;
nodes = (
(252,0,l),
(258,21,l),
(210,32,o),
(174,43,o),
(171,47,cs),
(165,54,o),
(166,79,o),
(174,111,cs),
(198,205,o),
(249,405,o),
(301,586,c),
(380,587,l),
(408,618,l),
(344,617,o),
(288,616,o),
(275,616,c),
(239,616,o),
(178,617,o),
(129,618,c),
(121,590,l),
(163,583,o),
(198,570,o),
(204,559,cs),
(211,549,o),
(212,529,o),
(207,510,cs),
(180,403,o),
(134,231,o),
(98,101,cs),
(91,76,o),
(80,54,o),
(70,45,cs),
(64,40,o),
(30,30,o),
(-12,21,c),
(-18,0,l)
);
}
);
width = 512;
},
{
anchors = (
{
name = bottom;
pos = (194,0);
},
{
name = top;
pos = (404,616);
}
);
background = {
anchors = (
{
name = bottom;
pos = (245,0);
},
{
name = center;
pos = (103,154);
},
{
name = top;
pos = (245,616);
}
);
shapes = (
{
closed = 1;
nodes = (
(-15,0,l),
(268,0,l),
(268,40,l),
(223,40,o),
(188,38,o),
(169,54,cs),
(160,62,o),
(155,73,o),
(155,91,cs),
(153,307,o),
(152,377,o),
(156,574,c),
(173,576,o),
(225,576,o),
(248,576,c),
(248,616,l),
(-15,616,l),
(-15,591,l),
(19,581,o),
(43,582,o),
(57,572,cs),
(67,565,o),
(72,552,o),
(72,525,cs),
(73,341,o),
(74,253,o),
(74,312,cs),
(74,373,o),
(73,282,o),
(72,91,cs),
(72,65,o),
(66,51,o),
(57,43,cs),
(41,29,o),
(15,31,o),
(-15,25,c)
);
},
{
closed = 1;
nodes = (
(142,318,o),
(154,318,o),
(182,318,cs),
(338,318,o),
(441,378,o),
(441,481,cs),
(441,560,o),
(361,616,o),
(248,616,c),
(248,576,l),
(309,576,o),
(352,529,o),
(352,462,cs),
(352,387,o),
(283,348,o),
(175,348,cs),
(115,348,l),
(116,318,l)
);
}
);
};
color = 2;
layerId = m004;
shapes = (
{
closed = 1;
nodes = (
(260,271,o),
(272,271,o),
(287,271,cs),
(417,271,o),
(523,353,o),
(543,468,cs),
(558,558,o),
(502,620,o),
(408,618,c),
(380,587,l),
(432,587,o),
(467,533,o),
(464,456,cs),
(461,364,o),
(378,299,o),
(263,299,c),
(256,272,l)
);
},
{
closed = 1;
nodes = (
(252,0,l),
(258,21,l),
(210,32,o),
(174,43,o),
(171,47,cs),
(165,54,o),
(166,79,o),
(174,111,cs),
(198,205,o),
(249,405,o),
(301,586,c),
(380,587,l),
(408,618,l),
(344,617,o),
(288,616,o),
(275,616,c),
(239,616,o),
(178,617,o),
(129,618,c),
(121,590,l),
(163,583,o),
(198,570,o),
(204,559,cs),
(211,549,o),
(212,529,o),
(207,510,cs),
(180,403,o),
(134,231,o),
(98,101,cs),
(91,76,o),
(80,54,o),
(70,45,cs),
(64,40,o),
(30,30,o),
(-12,21,c),
(-18,0,l)
);
}
);
width = 512;
}
);
metricLeft = H;
metricRight = O;
unicode = 80;
},
{
glyphname = Q;
lastChange = "2025-04-24 18:07:01 +0000";
layers = (
{
anchors = (
{
name = bottom;
pos = (246,0);
},
{
name = center;
pos = (311,308);
},
{
name = ogonek;
pos = (506,10);
},
{
name = top;
pos = (414,617);
},
{
name = topleft;
pos = (65,616);
},
{
name = topright;
pos = (767,616);
}
);
background = {
shapes = (
{
closed = 1;
nodes = (
(507,-11,o),
(642,121,o),
(642,308,cs),
(642,494,o),
(507,626,o),
(316,626,cs),
(127,626,o),
(-6,494,o),
(-6,308,cs),
(-6,121,o),
(127,-11,o),
(316,-11,cs)
);
},
{
closed = 1;
nodes = (
(90,471,o),
(177,585,o),
(299,585,cs),
(444,585,o),
(546,463,o),
(546,298,cs),
(546,144,o),
(458,30,o),
(333,30,cs),
(191,30,o),
(90,152,o),
(90,318,cs)
);
},
{
closed = 1;
nodes = (
(507,-11,o),
(642,121,o),
(642,308,cs),
(642,494,o),
(507,626,o),
(316,626,cs),
(127,626,o),
(-6,494,o),
(-6,308,cs),
(-6,121,o),
(127,-11,o),
(316,-11,cs)
);
},
{
closed = 1;
nodes = (
(90,471,o),
(177,585,o),
(299,585,cs),
(444,585,o),
(546,463,o),
(546,298,cs),
(546,144,o),
(458,30,o),
(333,30,cs),
(191,30,o),
(90,152,o),
(90,318,cs)
);
}
);
};
backgroundImage = {
imagePath = "../../Desktop/Bildschirmfoto 2024-12-24 um 15.25.09.png";
pos = (905,-1126);
scale = (-1.4,1.4);
slant = (2,0);
};
color = 4;
layerId = m003;
shapes = (
{
closed = 1;
nodes = (
(-23,-141,l),
(138,-121,o),
(163,-230,o),
(350,-230,cs),
(468,-230,o),
(606,-193,o),
(668,-141,c),
(654,-115,l),
(600,-152,o),
(516,-183,o),
(450,-183,cs),
(288,-183,o),
(267,-66,o),
(80,-92,c)
);
},
{
closed = 1;
nodes = (
(505,32,l),
(493,65,l),
(-34,-114,l),
(-27,-143,l)
);
},
{
closed = 1;
nodes = (
(529,-8,o),
(679,123,o),
(709,308,cs),
(743,507,o),
(640,648,o),
(460,648,cs),
(278,648,o),
(128,518,o),
(97,334,cs),
(64,134,o),
(167,-8,o),
(346,-8,cs)
);
},
{
closed = 1;
nodes = (
(252,30,o),
(166,139,o),
(174,275,cs),
(185,462,o),
(303,610,o),
(440,610,cs),
(554,610,o),
(638,502,o),
(629,366,cs),
(619,179,o),
(503,30,o),
(367,30,cs)
);
}
);
width = 733;
},
{
anchors = (
{
name = bottom;
pos = (246,0);
},
{
name = center;
pos = (311,308);
},
{
name = ogonek;
pos = (506,10);
},
{
name = top;
pos = (414,617);
},
{
name = topleft;
pos = (65,616);
},
{
name = topright;
pos = (767,616);
}
);
background = {
shapes = (
{
closed = 1;
nodes = (
(507,-11,o),
(642,121,o),
(642,308,cs),
(642,494,o),
(507,626,o),
(316,626,cs),
(127,626,o),
(-6,494,o),
(-6,308,cs),
(-6,121,o),
(127,-11,o),
(316,-11,cs)
);
},
{
closed = 1;
nodes = (
(90,471,o),
(177,585,o),
(299,585,cs),
(444,585,o),
(546,463,o),
(546,298,cs),
(546,144,o),
(458,30,o),
(333,30,cs),
(191,30,o),
(90,152,o),
(90,318,cs)
);
},
{
closed = 1;
nodes = (
(507,-11,o),
(642,121,o),
(642,308,cs),
(642,494,o),
(507,626,o),
(316,626,cs),
(127,626,o),
(-6,494,o),
(-6,308,cs),
(-6,121,o),
(127,-11,o),
(316,-11,cs)
);
},
{
closed = 1;
nodes = (
(90,471,o),
(177,585,o),
(299,585,cs),
(444,585,o),
(546,463,o),
(546,298,cs),
(546,144,o),
(458,30,o),
(333,30,cs),
(191,30,o),
(90,152,o),
(90,318,cs)
);
},
{
closed = 1;
nodes = (
(393,-470,o),
(539,-562,o),
(726,-562,cs),
(824,-562,o),
(942,-509,o),
(1011,-433,c),
(1005,-413,l),
(940,-469,o),
(842,-509,o),
(769,-509,cs),
(608,-509,o),
(490,-431,o),
(483,-321,c),
(374,-339,l)
);
},
{
closed = 1;
nodes = (
(709,-492,o),
(563,-400,o),
(376,-400,cs),
(278,-400,o),
(160,-453,o),
(91,-529,c),
(97,-549,l),
(162,-493,o),
(260,-453,o),
(333,-453,cs),
(494,-453,o),
(612,-531,o),
(619,-641,c),
(728,-623,l)
);
}
);
};
backgroundImage = {
imagePath = "../../Desktop/Bildschirmfoto 2024-12-24 um 15.25.09.png";
pos = (905,-1126);
scale = (-1.4,1.4);
};
color = 4;
layerId = m005;
shapes = (
{
closed = 1;
nodes = (
(51,139,o),
(166,-8,o),
(369,-8,cs),
(542,-8,o),
(683,108,o),
(709,272,cs),
(749,481,o),
(634,628,o),
(431,628,cs),
(258,628,o),
(117,512,o),
(91,348,cs)
);
},
{
closed = 1;
nodes = (
(246,32,o),
(149,173,o),
(169,372,cs),
(179,499,o),
(279,588,o),
(411,588,cs),
(559,588,o),
(650,447,o),
(630,248,cs),
(620,121,o),
(526,32,o),
(402,32,cs)
);
},
{
closed = 1;
nodes = (
(250,49,l),
(411,49,o),
(383,-230,o),
(570,-230,cs),
(666,-230,o),
(790,-176,o),
(891,-91,c),
(891,-71,l),
(797,-136,o),
(685,-177,o),
(618,-177,cs),
(456,-177,o),
(495,102,o),
(308,102,c)
);
}
);
width = 732;
},
{
anchors = (
{
name = bottom;
pos = (246,0);
},
{
name = center;
pos = (311,308);
},
{
name = ogonek;
pos = (506,10);
},
{
name = top;
pos = (414,617);
},
{
name = topleft;
pos = (65,616);
},
{
name = topright;
pos = (767,616);
}
);
background = {
shapes = (
{
closed = 1;
nodes = (
(507,-11,o),
(642,121,o),
(642,308,cs),
(642,494,o),
(507,626,o),
(316,626,cs),
(127,626,o),
(-6,494,o),
(-6,308,cs),
(-6,121,o),
(127,-11,o),
(316,-11,cs)
);
},
{
closed = 1;
nodes = (
(90,471,o),
(177,585,o),
(299,585,cs),
(444,585,o),
(546,463,o),
(546,298,cs),
(546,144,o),
(458,30,o),
(333,30,cs),
(191,30,o),
(90,152,o),
(90,318,cs)
);
},
{
closed = 1;
nodes = (
(507,-11,o),
(642,121,o),
(642,308,cs),
(642,494,o),
(507,626,o),
(316,626,cs),
(127,626,o),
(-6,494,o),
(-6,308,cs),
(-6,121,o),
(127,-11,o),
(316,-11,cs)
);
},
{
closed = 1;
nodes = (
(90,471,o),
(177,585,o),
(299,585,cs),
(444,585,o),
(546,463,o),
(546,298,cs),
(546,144,o),
(458,30,o),
(333,30,cs),
(191,30,o),
(90,152,o),
(90,318,cs)
);
}
);
};
backgroundImage = {
imagePath = "../../Desktop/Bildschirmfoto 2024-12-24 um 15.25.09.png";
pos = (905,-1126);
scale = (-1.4,1.4);
};
color = 4;
layerId = m006;
shapes = (
{
closed = 1;
nodes = (
(51,139,o),
(166,-8,o),
(369,-8,cs),
(542,-8,o),
(683,108,o),
(709,272,cs),
(749,481,o),
(634,628,o),
(431,628,cs),
(258,628,o),
(117,512,o),
(91,348,cs)
);
},
{
closed = 1;
nodes = (
(246,32,o),
(149,173,o),
(169,372,cs),
(179,499,o),
(279,588,o),
(411,588,cs),
(559,588,o),
(650,447,o),
(630,248,cs),
(620,121,o),
(526,32,o),
(402,32,cs)
);
},
{
closed = 1;
nodes = (
(250,49,l),
(411,49,o),
(383,-230,o),
(570,-230,cs),
(666,-230,o),
(790,-176,o),
(891,-91,c),
(891,-71,l),
(797,-136,o),
(685,-177,o),
(618,-177,cs),
(456,-177,o),
(495,102,o),
(308,102,c)
);
}
);
width = 732;
},
{
anchors = (
{
name = bottom;
pos = (246,0);
},
{
name = center;
pos = (311,308);
},
{
name = ogonek;
pos = (506,10);
},
{
name = top;
pos = (414,617);
},
{
name = topleft;
pos = (65,616);
},
{
name = topright;
pos = (767,616);
}
);
background = {
shapes = (
{
closed = 1;
nodes = (
(507,-11,o),
(642,121,o),
(642,308,cs),
(642,494,o),
(507,626,o),
(316,626,cs),
(127,626,o),
(-6,494,o),
(-6,308,cs),
(-6,121,o),
(127,-11,o),
(316,-11,cs)
);
},
{
closed = 1;
nodes = (
(90,471,o),
(177,585,o),
(299,585,cs),
(444,585,o),
(546,463,o),
(546,298,cs),
(546,144,o),
(458,30,o),
(333,30,cs),
(191,30,o),
(90,152,o),
(90,318,cs)
);
},
{
closed = 1;
nodes = (
(507,-11,o),
(642,121,o),
(642,308,cs),
(642,494,o),
(507,626,o),
(316,626,cs),
(127,626,o),
(-6,494,o),
(-6,308,cs),
(-6,121,o),
(127,-11,o),
(316,-11,cs)
);
},
{
closed = 1;
nodes = (
(90,471,o),
(177,585,o),
(299,585,cs),
(444,585,o),
(546,463,o),
(546,298,cs),
(546,144,o),
(458,30,o),
(333,30,cs),
(191,30,o),
(90,152,o),
(90,318,cs)
);
}
);
};
backgroundImage = {
imagePath = "../../Desktop/Bildschirmfoto 2024-12-24 um 15.25.09.png";
pos = (905,-1126);
scale = (-1.4,1.4);
};
color = 4;
layerId = m004;
shapes = (
{
closed = 1;
nodes = (
(51,139,o),
(166,-8,o),
(369,-8,cs),
(542,-8,o),
(683,108,o),
(709,272,cs),
(749,481,o),
(634,628,o),
(431,628,cs),
(258,628,o),
(117,512,o),
(91,348,cs)
);
},
{
closed = 1;
nodes = (
(246,32,o),
(149,173,o),
(169,372,cs),
(179,499,o),
(279,588,o),
(411,588,cs),
(559,588,o),
(650,447,o),
(630,248,cs),
(620,121,o),
(526,32,o),
(402,32,cs)
);
},
{
closed = 1;
nodes = (
(250,49,l),
(411,49,o),
(383,-230,o),
(570,-230,cs),
(666,-230,o),
(790,-176,o),
(891,-91,c),
(891,-71,l),
(797,-136,o),
(685,-177,o),
(618,-177,cs),
(456,-177,o),
(495,102,o),
(308,102,c)
);
}
);
width = 732;
}
);
metricLeft = O;
metricWidth = O;
unicode = 81;
},
{
glyphname = R;
lastChange = "2025-04-24 18:07:01 +0000";
layers = (
{
anchors = (
{
name = bottom;
pos = (255,0);
},
{
name = top;
pos = (465,616);
}
);
background = {
shapes = (
{
closed = 1;
nodes = (
(-15,0,l),
(268,0,l),
(268,40,l),
(223,40,o),
(188,38,o),
(169,54,cs),
(160,62,o),
(155,73,o),
(155,91,cs),
(153,307,o),
(152,377,o),
(156,574,c),
(173,576,o),
(225,576,o),
(248,576,c),
(248,616,l),
(-15,616,l),
(-15,591,l),
(19,581,o),
(43,582,o),
(57,572,cs),
(67,565,o),
(72,552,o),
(72,525,cs),
(73,341,o),
(74,253,o),
(74,312,cs),
(74,373,o),
(73,282,o),
(72,91,cs),
(72,65,o),
(66,51,o),
(57,43,cs),
(41,29,o),
(15,31,o),
(-15,25,c)
);
}
);
};
color = 2;
layerId = m003;
shapes = (
{
closed = 1;
nodes = (
(400,282,o),
(538,369,o),
(549,478,cs),
(558,568,o),
(496,620,o),
(400,618,c),
(369,576,l),
(439,576,o),
(473,537,o),
(471,466,cs),
(469,388,o),
(357,322,o),
(225,322,c),
(215,282,l)
);
},
{
closed = 1;
nodes = (
(252,0,l),
(259,27,l),
(212,32,o),
(174,43,o),
(168,53,cs),
(163,60,o),
(164,82,o),
(170,106,cs),
(225,313,o),
(278,507,o),
(298,574,c),
(369,576,l),
(400,618,l),
(341,617,o),
(289,616,o),
(273,616,c),
(263,616,o),
(212,617,o),
(148,618,c),
(141,592,l),
(178,584,o),
(207,574,o),
(211,567,cs),
(215,558,o),
(213,535,o),
(207,512,cs),
(181,408,o),
(136,239,o),
(99,104,cs),
(91,76,o),
(78,51,o),
(68,44,cs),
(61,39,o),
(28,31,o),
(-11,25,c),
(-18,0,l)
);
},
{
closed = 1;
nodes = (
(579,18,l),
(501,27,o),
(420,159,o),
(334,327,c),
(269,295,l),
(355,122,o),
(431,-6,o),
(501,-3,cs),
(579,0,l)
);
}
);
width = 603;
},
{
anchors = (
{
name = bottom;
pos = (255,0);
},
{
name = top;
pos = (465,616);
}
);
background = {
shapes = (
{
closed = 1;
nodes = (
(-15,0,l),
(268,0,l),
(268,40,l),
(223,40,o),
(188,38,o),
(169,54,cs),
(160,62,o),
(155,73,o),
(155,91,cs),
(153,307,o),
(152,377,o),
(156,574,c),
(173,576,o),
(225,576,o),
(248,576,c),
(248,616,l),
(-15,616,l),
(-15,591,l),
(19,581,o),
(43,582,o),
(57,572,cs),
(67,565,o),
(72,552,o),
(72,525,cs),
(73,341,o),
(74,253,o),
(74,312,cs),
(74,373,o),
(73,282,o),
(72,91,cs),
(72,65,o),
(66,51,o),
(57,43,cs),
(41,29,o),
(15,31,o),
(-15,25,c)
);
}
);
};
color = 2;
layerId = m005;
shapes = (
{
closed = 1;
nodes = (
(400,282,o),
(538,369,o),
(549,478,cs),
(558,568,o),
(496,620,o),
(400,618,c),
(369,576,l),
(439,576,o),
(473,537,o),
(471,466,cs),
(469,388,o),
(357,322,o),
(225,322,c),
(215,282,l)
);
},
{
closed = 1;
nodes = (
(252,0,l),
(259,27,l),
(212,32,o),
(174,43,o),
(168,53,cs),
(163,60,o),
(164,82,o),
(170,106,cs),
(225,313,o),
(278,507,o),
(298,574,c),
(369,576,l),
(400,618,l),
(341,617,o),
(289,616,o),
(273,616,c),
(263,616,o),
(212,617,o),
(148,618,c),
(141,592,l),
(178,584,o),
(207,574,o),
(211,567,cs),
(215,558,o),
(213,535,o),
(207,512,cs),
(181,408,o),
(136,239,o),
(99,104,cs),
(91,76,o),
(78,51,o),
(68,44,cs),
(61,39,o),
(28,31,o),
(-11,25,c),
(-18,0,l)
);
},
{
closed = 1;
nodes = (
(579,18,l),
(501,27,o),
(420,159,o),
(334,327,c),
(269,295,l),
(355,122,o),
(431,-6,o),
(501,-3,cs),
(579,0,l)
);
}
);
width = 603;
},
{
anchors = (
{
name = bottom;
pos = (255,0);
},
{
name = top;
pos = (465,616);
}
);
background = {
shapes = (
{
closed = 1;
nodes = (
(-15,0,l),
(268,0,l),
(268,40,l),
(223,40,o),
(188,38,o),
(169,54,cs),
(160,62,o),
(155,73,o),
(155,91,cs),
(153,307,o),
(152,377,o),
(156,574,c),
(173,576,o),
(225,576,o),
(248,576,c),
(248,616,l),
(-15,616,l),
(-15,591,l),
(19,581,o),
(43,582,o),
(57,572,cs),
(67,565,o),
(72,552,o),
(72,525,cs),
(73,341,o),
(74,253,o),
(74,312,cs),
(74,373,o),
(73,282,o),
(72,91,cs),
(72,65,o),
(66,51,o),
(57,43,cs),
(41,29,o),
(15,31,o),
(-15,25,c)
);
}
);
};
color = 2;
layerId = m006;
shapes = (
{
closed = 1;
nodes = (
(400,282,o),
(538,369,o),
(549,478,cs),
(558,568,o),
(496,620,o),
(400,618,c),
(369,576,l),
(439,576,o),
(473,537,o),
(471,466,cs),
(469,388,o),
(357,322,o),
(225,322,c),
(215,282,l)
);
},
{
closed = 1;
nodes = (
(252,0,l),
(259,27,l),
(212,32,o),
(174,43,o),
(168,53,cs),
(163,60,o),
(164,82,o),
(170,106,cs),
(225,313,o),
(278,507,o),
(298,574,c),
(369,576,l),
(400,618,l),
(341,617,o),
(289,616,o),
(273,616,c),
(263,616,o),
(212,617,o),
(148,618,c),
(141,592,l),
(178,584,o),
(207,574,o),
(211,567,cs),
(215,558,o),
(213,535,o),
(207,512,cs),
(181,408,o),
(136,239,o),
(99,104,cs),
(91,76,o),
(78,51,o),
(68,44,cs),
(61,39,o),
(28,31,o),
(-11,25,c),
(-18,0,l)
);
},
{
closed = 1;
nodes = (
(579,18,l),
(501,27,o),
(420,159,o),
(334,327,c),
(269,295,l),
(355,122,o),
(431,-6,o),
(501,-3,cs),
(579,0,l)
);
}
);
width = 603;
},
{
anchors = (
{
name = bottom;
pos = (255,0);
},
{
name = top;
pos = (465,616);
}
);
background = {
shapes = (
{
closed = 1;
nodes = (
(-15,0,l),
(268,0,l),
(268,40,l),
(223,40,o),
(188,38,o),
(169,54,cs),
(160,62,o),
(155,73,o),
(155,91,cs),
(153,307,o),
(152,377,o),
(156,574,c),
(173,576,o),
(225,576,o),
(248,576,c),
(248,616,l),
(-15,616,l),
(-15,591,l),
(19,581,o),
(43,582,o),
(57,572,cs),
(67,565,o),
(72,552,o),
(72,525,cs),
(73,341,o),
(74,253,o),
(74,312,cs),
(74,373,o),
(73,282,o),
(72,91,cs),
(72,65,o),
(66,51,o),
(57,43,cs),
(41,29,o),
(15,31,o),
(-15,25,c)
);
}
);
};
color = 2;
layerId = m004;
shapes = (
{
closed = 1;
nodes = (
(400,282,o),
(538,369,o),
(549,478,cs),
(558,568,o),
(496,620,o),
(400,618,c),
(369,576,l),
(439,576,o),
(473,537,o),
(471,466,cs),
(469,388,o),
(357,322,o),
(225,322,c),
(215,282,l)
);
},
{
closed = 1;
nodes = (
(252,0,l),
(259,27,l),
(212,32,o),
(174,43,o),
(168,53,cs),
(163,60,o),
(164,82,o),
(170,106,cs),
(225,313,o),
(278,507,o),
(298,574,c),
(369,576,l),
(400,618,l),
(341,617,o),
(289,616,o),
(273,616,c),
(263,616,o),
(212,617,o),
(148,618,c),
(141,592,l),
(178,584,o),
(207,574,o),
(211,567,cs),
(215,558,o),
(213,535,o),
(207,512,cs),
(181,408,o),
(136,239,o),
(99,104,cs),
(91,76,o),
(78,51,o),
(68,44,cs),
(61,39,o),
(28,31,o),
(-11,25,c),
(-18,0,l)
);
},
{
closed = 1;
nodes = (
(579,18,l),
(501,27,o),
(420,159,o),
(334,327,c),
(269,295,l),
(355,122,o),
(431,-6,o),
(501,-3,cs),
(579,0,l)
);
}
);
width = 603;
}
);
metricLeft = H;
unicode = 82;
},
{
glyphname = S;
lastChange = "2025-04-24 18:06:37 +0000";
layers = (
{
anchors = (
{
name = bottom;
pos = (186,0);
},
{
name = top;
pos = (396,616);
}
);
background = {
shapes = (
{
closed = 1;
nodes = (
(302,-9,o),
(383,58,o),
(398,152,cs),
(412,242,o),
(355,298,o),
(299,352,cs),
(249,401,o),
(200,448,o),
(211,518,cs),
(217,557,o),
(265,585,o),
(326,585,cs),
(413,585,o),
(456,530,o),
(429,453,c),
(462,453,l),
(478,521,o),
(492,572,o),
(495,575,c),
(459,604,o),
(390,624,o),
(327,624,cs),
(235,624,o),
(160,565,o),
(147,481,cs),
(133,384,o),
(192,327,o),
(247,274,cs),
(297,227,o),
(343,182,o),
(334,115,cs),
(327,62,o),
(270,26,o),
(196,27,cs),
(110,29,o),
(66,99,o),
(91,197,c),
(55,197,l),
(49,149,o),
(35,89,o),
(21,53,c),
(57,17,o),
(132,-9,o),
(202,-9,cs)
);
}
);
};
color = 4;
layerId = m003;
shapes = (
{
closed = 1;
nodes = (
(296,-9,o),
(383,56,o),
(398,150,cs),
(412,239,o),
(381,262,o),
(301,347,cs),
(253,397,o),
(196,446,o),
(210,515,cs),
(219,560,o),
(265,590,o),
(326,590,cs),
(409,590,o),
(453,533,o),
(432,453,c),
(461,453,l),
(494,575,l),
(484,577,o),
(470,583,o),
(453,590,cs),
(419,605,o),
(374,624,o),
(326,624,cs),
(234,624,o),
(161,568,o),
(148,484,cs),
(134,389,o),
(167,351,o),
(233,287,cs),
(284,238,o),
(352,182,o),
(334,113,cs),
(320,60,o),
(270,24,o),
(196,25,cs),
(110,27,o),
(66,99,o),
(91,197,c),
(54,197,l),
(50,158,o),
(36,100,o),
(22,57,c),
(26,56,o),
(33,51,o),
(42,45,cs),
(70,26,o),
(121,-9,o),
(196,-9,cs)
);
}
);
width = 473;
},
{
anchors = (
{
name = bottom;
pos = (185,0);
},
{
name = top;
pos = (395,616);
}
);
color = 4;
layerId = m005;
shapes = (
{
closed = 1;
nodes = (
(301,-9,o),
(382,58,o),
(397,152,cs),
(424,325,o),
(190,372,o),
(208,518,cs),
(213,560,o),
(250,589,o),
(313,589,cs),
(408,589,o),
(456,533,o),
(428,453,c),
(461,453,l),
(477,521,o),
(491,572,o),
(494,575,c),
(458,604,o),
(389,624,o),
(326,624,cs),
(227,624,o),
(159,565,o),
(146,481,cs),
(119,298,o),
(350,259,o),
(335,115,cs),
(329,60,o),
(276,22,o),
(207,23,cs),
(113,25,o),
(64,97,o),
(90,197,c),
(54,197,l),
(48,149,o),
(34,89,o),
(20,53,c),
(56,17,o),
(131,-9,o),
(201,-9,cs)
);
}
);
width = 471;
},
{
anchors = (
{
name = bottom;
pos = (185,0);
},
{
name = top;
pos = (395,616);
}
);
color = 4;
layerId = m006;
shapes = (
{
closed = 1;
nodes = (
(301,-9,o),
(382,58,o),
(397,152,cs),
(424,325,o),
(190,372,o),
(208,518,cs),
(213,560,o),
(250,589,o),
(313,589,cs),
(408,589,o),
(456,533,o),
(428,453,c),
(461,453,l),
(477,521,o),
(491,572,o),
(494,575,c),
(458,604,o),
(389,624,o),
(326,624,cs),
(227,624,o),
(159,565,o),
(146,481,cs),
(119,298,o),
(350,259,o),
(335,115,cs),
(329,60,o),
(276,22,o),
(207,23,cs),
(113,25,o),
(64,97,o),
(90,197,c),
(54,197,l),
(48,149,o),
(34,89,o),
(20,53,c),
(56,17,o),
(131,-9,o),
(201,-9,cs)
);
}
);
width = 471;
},
{
anchors = (
{
name = bottom;
pos = (185,0);
},
{
name = top;
pos = (395,616);
}
);
color = 4;
layerId = m004;
shapes = (
{
closed = 1;
nodes = (
(301,-9,o),
(382,58,o),
(397,152,cs),
(424,325,o),
(190,372,o),
(208,518,cs),
(213,560,o),
(250,589,o),
(313,589,cs),
(408,589,o),
(456,533,o),
(428,453,c),
(461,453,l),
(477,521,o),
(491,572,o),
(494,575,c),
(458,604,o),
(389,624,o),
(326,624,cs),
(227,624,o),
(159,565,o),
(146,481,cs),
(119,298,o),
(350,259,o),
(335,115,cs),
(329,60,o),
(276,22,o),
(207,23,cs),
(113,25,o),
(64,97,o),
(90,197,c),
(54,197,l),
(48,149,o),
(34,89,o),
(20,53,c),
(56,17,o),
(131,-9,o),
(201,-9,cs)
);
}
);
width = 471;
}
);
metricLeft = O;
metricRight = O;
unicode = 83;
},
{
glyphname = T;
lastChange = "2025-04-24 18:06:37 +0000";
layers = (
{
anchors = (
{
name = bottom;
pos = (210,0);
},
{
name = center;
pos = (315,308);
},
{
name = top;
pos = (420,616);
}
);
background = {
shapes = (
{
closed = 1;
nodes = (
(126,0,l),
(371,0,l),
(371,18,l),
(325,31,o),
(302,33,o),
(293,52,cs),
(289,60,o),
(288,73,o),
(288,91,cs),
(287,164,o),
(287,237,o),
(286,310,cs),
(285,382,o),
(287,453,o),
(288,525,cs),
(288,561,o),
(294,575,o),
(315,585,cs),
(326,590,o),
(344,591,o),
(371,598,c),
(371,616,l),
(126,616,l),
(126,598,l),
(172,585,o),
(195,583,o),
(204,565,cs),
(208,556,o),
(210,543,o),
(210,525,cs),
(211,454,o),
(212,383,o),
(212,312,cs),
(212,238,o),
(211,165,o),
(210,91,cs),
(210,55,o),
(203,42,o),
(182,32,cs),
(171,27,o),
(153,25,o),
(126,18,c)
);
}
);
};
color = 4;
layerId = m003;
shapes = (
{
closed = 1;
nodes = (
(392,0,l),
(398,25,l),
(327,39,o),
(275,43,o),
(287,97,cs),
(324,259,o),
(370,428,o),
(418,590,c),
(397,565,l),
(461,565,o),
(510,565,o),
(539,565,cs),
(575,565,o),
(621,559,o),
(596,447,c),
(633,451,l),
(649,515,o),
(661,579,o),
(666,643,c),
(657,643,l),
(596,616,l),
(438,613,o),
(315,613,o),
(174,616,c),
(136,653,l),
(130,648,l),
(99,581,o),
(76,515,o),
(56,448,c),
(92,446,l),
(128,561,o),
(163,565,o),
(227,565,cs),
(367,565,l),
(344,590,l),
(312,462,o),
(227,143,o),
(212,97,cs),
(198,51,o),
(163,38,o),
(84,25,c),
(78,0,l)
);
}
);
width = 576;
},
{
anchors = (
{
name = bottom;
pos = (210,0);
},
{
name = center;
pos = (315,308);
},
{
name = top;
pos = (420,616);
}
);
background = {
shapes = (
{
closed = 1;
nodes = (
(126,0,l),
(371,0,l),
(371,18,l),
(325,31,o),
(302,33,o),
(293,52,cs),
(289,60,o),
(288,73,o),
(288,91,cs),
(287,164,o),
(287,237,o),
(286,310,cs),
(285,382,o),
(287,453,o),
(288,525,cs),
(288,561,o),
(294,575,o),
(315,585,cs),
(326,590,o),
(344,591,o),
(371,598,c),
(371,616,l),
(126,616,l),
(126,598,l),
(172,585,o),
(195,583,o),
(204,565,cs),
(208,556,o),
(210,543,o),
(210,525,cs),
(211,454,o),
(212,383,o),
(212,312,cs),
(212,238,o),
(211,165,o),
(210,91,cs),
(210,55,o),
(203,42,o),
(182,32,cs),
(171,27,o),
(153,25,o),
(126,18,c)
);
}
);
};
color = 4;
layerId = m005;
shapes = (
{
closed = 1;
nodes = (
(392,0,l),
(398,25,l),
(327,39,o),
(275,43,o),
(287,97,cs),
(324,259,o),
(370,428,o),
(418,590,c),
(397,565,l),
(461,565,o),
(510,565,o),
(539,565,cs),
(575,565,o),
(621,559,o),
(596,447,c),
(633,451,l),
(649,515,o),
(661,579,o),
(666,643,c),
(657,643,l),
(596,616,l),
(438,613,o),
(315,613,o),
(174,616,c),
(136,653,l),
(130,648,l),
(99,581,o),
(76,515,o),
(56,448,c),
(92,446,l),
(128,561,o),
(163,565,o),
(227,565,cs),
(367,565,l),
(344,590,l),
(312,462,o),
(227,143,o),
(212,97,cs),
(198,51,o),
(163,38,o),
(84,25,c),
(78,0,l)
);
}
);
width = 576;
},
{
anchors = (
{
name = bottom;
pos = (210,0);
},
{
name = center;
pos = (315,308);
},
{
name = top;
pos = (420,616);
}
);
background = {
shapes = (
{
closed = 1;
nodes = (
(126,0,l),
(371,0,l),
(371,18,l),
(325,31,o),
(302,33,o),
(293,52,cs),
(289,60,o),
(288,73,o),
(288,91,cs),
(287,164,o),
(287,237,o),
(286,310,cs),
(285,382,o),
(287,453,o),
(288,525,cs),
(288,561,o),
(294,575,o),
(315,585,cs),
(326,590,o),
(344,591,o),
(371,598,c),
(371,616,l),
(126,616,l),
(126,598,l),
(172,585,o),
(195,583,o),
(204,565,cs),
(208,556,o),
(210,543,o),
(210,525,cs),
(211,454,o),
(212,383,o),
(212,312,cs),
(212,238,o),
(211,165,o),
(210,91,cs),
(210,55,o),
(203,42,o),
(182,32,cs),
(171,27,o),
(153,25,o),
(126,18,c)
);
}
);
};
color = 4;
layerId = m006;
shapes = (
{
closed = 1;
nodes = (
(392,0,l),
(398,25,l),
(327,39,o),
(275,43,o),
(287,97,cs),
(324,259,o),
(370,428,o),
(418,590,c),
(397,565,l),
(461,565,o),
(510,565,o),
(539,565,cs),
(575,565,o),
(621,559,o),
(596,447,c),
(633,451,l),
(649,515,o),
(661,579,o),
(666,643,c),
(657,643,l),
(596,616,l),
(438,613,o),
(315,613,o),
(174,616,c),
(136,653,l),
(130,648,l),
(99,581,o),
(76,515,o),
(56,448,c),
(92,446,l),
(128,561,o),
(163,565,o),
(227,565,cs),
(367,565,l),
(344,590,l),
(312,462,o),
(227,143,o),
(212,97,cs),
(198,51,o),
(163,38,o),
(84,25,c),
(78,0,l)
);
}
);
width = 576;
},
{
anchors = (
{
name = bottom;
pos = (210,0);
},
{
name = center;
pos = (315,308);
},
{
name = top;
pos = (420,616);
}
);
background = {
shapes = (
{
closed = 1;
nodes = (
(126,0,l),
(371,0,l),
(371,18,l),
(325,31,o),
(302,33,o),
(293,52,cs),
(289,60,o),
(288,73,o),
(288,91,cs),
(287,164,o),
(287,237,o),
(286,310,cs),
(285,382,o),
(287,453,o),
(288,525,cs),
(288,561,o),
(294,575,o),
(315,585,cs),
(326,590,o),
(344,591,o),
(371,598,c),
(371,616,l),
(126,616,l),
(126,598,l),
(172,585,o),
(195,583,o),
(204,565,cs),
(208,556,o),
(210,543,o),
(210,525,cs),
(211,454,o),
(212,383,o),
(212,312,cs),
(212,238,o),
(211,165,o),
(210,91,cs),
(210,55,o),
(203,42,o),
(182,32,cs),
(171,27,o),
(153,25,o),
(126,18,c)
);
}
);
};
color = 4;
layerId = m004;
shapes = (
{
closed = 1;
nodes = (
(392,0,l),
(398,25,l),
(327,39,o),
(275,43,o),
(287,97,cs),
(324,259,o),
(370,428,o),
(418,590,c),
(397,565,l),
(461,565,o),
(510,565,o),
(539,565,cs),
(575,565,o),
(621,559,o),
(596,447,c),
(633,451,l),
(649,515,o),
(661,579,o),
(666,643,c),
(657,643,l),
(596,616,l),
(438,613,o),
(315,613,o),
(174,616,c),
(136,653,l),
(130,648,l),
(99,581,o),
(76,515,o),
(56,448,c),
(92,446,l),
(128,561,o),
(163,565,o),
(227,565,cs),
(367,565,l),
(344,590,l),
(312,462,o),
(227,143,o),
(212,97,cs),
(198,51,o),
(163,38,o),
(84,25,c),
(78,0,l)
);
}
);
width = 576;
}
);
metricLeft = H;
metricRight = H;
unicode = 84;
},
{
glyphname = U;
lastChange = "2025-04-24 18:07:01 +0000";
layers = (
{
anchors = (
{
name = bottom;
pos = (253,0);
},
{
name = ogonek;
pos = (524,10);
},
{
name = top;
pos = (463,616);
},
{
name = topright;
pos = (778,616);
}
);
background = {
anchors = (
{
name = bottom;
pos = (215,0);
},
{
name = center;
pos = (280,308);
},
{
name = ogonek;
pos = (475,10);
},
{
name = top;
pos = (445,617);
},
{
name = topleft;
pos = (34,616);
},
{
name = topright;
pos = (736,616);
}
);
shapes = (
{
closed = 1;
nodes = (
(498,-8,o),
(648,123,o),
(678,308,cs),
(712,507,o),
(609,648,o),
(429,648,cs),
(247,648,o),
(97,518,o),
(66,334,cs),
(33,134,o),
(136,-8,o),
(315,-8,cs)
);
},
{
closed = 1;
nodes = (
(221,30,o),
(135,139,o),
(143,275,cs),
(154,462,o),
(272,610,o),
(409,610,cs),
(523,610,o),
(607,502,o),
(598,366,cs),
(588,179,o),
(472,30,o),
(336,30,cs)
);
}
);
};
color = 1;
layerId = m003;
shapes = (
{
closed = 1;
nodes = (
(458,-11,o),
(549,78,o),
(594,204,cs),
(641,336,o),
(654,431,o),
(677,514,cs),
(689,557,o),
(727,588,o),
(769,588,c),
(776,616,l),
(558,616,l),
(552,592,l),
(618,582,o),
(640,536,o),
(626,481,cs),
(604,393,o),
(578,278,o),
(551,208,cs),
(513,108,o),
(446,36,o),
(333,36,cs),
(224,36,o),
(156,100,o),
(165,188,cs),
(172,255,o),
(210,385,o),
(242,503,cs),
(255,551,o),
(303,588,o),
(358,592,c),
(364,616,l),
(128,616,l),
(120,589,l),
(160,581,o),
(182,550,o),
(173,515,cs),
(177,530,o),
(139,401,o),
(94,202,cs),
(66,77,o),
(165,-11,o),
(322,-11,cs)
);
}
);
width = 687;
},
{
anchors = (
{
name = bottom;
pos = (253,0);
},
{
name = ogonek;
pos = (524,10);
},
{
name = top;
pos = (463,616);
},
{
name = topright;
pos = (778,616);
}
);
color = 1;
layerId = m005;
shapes = (
{
closed = 1;
nodes = (
(458,-11,o),
(549,78,o),
(594,204,cs),
(641,336,o),
(654,431,o),
(677,514,cs),
(689,557,o),
(727,588,o),
(769,588,c),
(776,616,l),
(558,616,l),
(552,592,l),
(618,582,o),
(640,536,o),
(626,481,cs),
(604,393,o),
(578,278,o),
(551,208,cs),
(513,108,o),
(446,36,o),
(333,36,cs),
(224,36,o),
(156,100,o),
(165,188,cs),
(172,255,o),
(210,385,o),
(242,503,cs),
(255,551,o),
(303,588,o),
(358,592,c),
(364,616,l),
(128,616,l),
(120,589,l),
(160,581,o),
(182,550,o),
(173,515,cs),
(177,530,o),
(139,401,o),
(94,202,cs),
(66,77,o),
(165,-11,o),
(322,-11,cs)
);
}
);
width = 687;
},
{
anchors = (
{
name = bottom;
pos = (253,0);
},
{
name = ogonek;
pos = (524,10);
},
{
name = top;
pos = (463,616);
},
{
name = topright;
pos = (778,616);
}
);
color = 1;
layerId = m006;
shapes = (
{
closed = 1;
nodes = (
(458,-11,o),
(549,78,o),
(594,204,cs),
(641,336,o),
(654,431,o),
(677,514,cs),
(689,557,o),
(727,588,o),
(769,588,c),
(776,616,l),
(558,616,l),
(552,592,l),
(618,582,o),
(640,536,o),
(626,481,cs),
(604,393,o),
(578,278,o),
(551,208,cs),
(513,108,o),
(446,36,o),
(333,36,cs),
(224,36,o),
(156,100,o),
(165,188,cs),
(172,255,o),
(210,385,o),
(242,503,cs),
(255,551,o),
(303,588,o),
(358,592,c),
(364,616,l),
(128,616,l),
(120,589,l),
(160,581,o),
(182,550,o),
(173,515,cs),
(177,530,o),
(139,401,o),
(94,202,cs),
(66,77,o),
(165,-11,o),
(322,-11,cs)
);
}
);
width = 687;
},
{
anchors = (
{
name = bottom;
pos = (253,0);
},
{
name = ogonek;
pos = (524,10);
},
{
name = top;
pos = (463,616);
},
{
name = topright;
pos = (778,616);
}
);
color = 1;
layerId = m004;
shapes = (
{
closed = 1;
nodes = (
(458,-11,o),
(549,78,o),
(594,204,cs),
(641,336,o),
(654,431,o),
(677,514,cs),
(689,557,o),
(727,588,o),
(769,588,c),
(776,616,l),
(558,616,l),
(552,592,l),
(618,582,o),
(640,536,o),
(626,481,cs),
(604,393,o),
(578,278,o),
(551,208,cs),
(513,108,o),
(446,36,o),
(333,36,cs),
(224,36,o),
(156,100,o),
(165,188,cs),
(172,255,o),
(210,385,o),
(242,503,cs),
(255,551,o),
(303,588,o),
(358,592,c),
(364,616,l),
(128,616,l),
(120,589,l),
(160,581,o),
(182,550,o),
(173,515,cs),
(177,530,o),
(139,401,o),
(94,202,cs),
(66,77,o),
(165,-11,o),
(322,-11,cs)
);
}
);
width = 687;
}
);
metricLeft = H;
metricRight = H;
unicode = 85;
},
{
glyphname = V;
lastChange = "2025-04-24 18:06:37 +0000";
layers = (
{
anchors = (
{
name = bottom;
pos = (223,0);
},
{
name = top;
pos = (433,616);
}
);
color = 4;
layerId = m003;
shapes = (
{
closed = 1;
nodes = (
(251,-24,l),
(367,153,o),
(576,444,o),
(619,505,cs),
(662,566,o),
(701,579,o),
(766,588,c),
(773,616,l),
(523,616,l),
(517,593,l),
(565,586,o),
(597,573,o),
(589,543,cs),
(583,521,o),
(562,488,o),
(537,452,cs),
(274,70,l),
(299,93,l),
(276,227,o),
(246,480,o),
(243,496,cs),
(240,512,o),
(239,528,o),
(243,543,cs),
(247,558,o),
(263,582,o),
(352,591,c),
(359,616,l),
(71,616,l),
(64,588,l),
(109,580,o),
(153,571,o),
(165,489,cs),
(238,-24,l)
);
}
);
width = 672;
},
{
anchors = (
{
name = bottom;
pos = (223,0);
},
{
name = top;
pos = (433,616);
}
);
color = 4;
layerId = m005;
shapes = (
{
closed = 1;
nodes = (
(251,-24,l),
(367,153,o),
(576,444,o),
(619,505,cs),
(662,566,o),
(701,579,o),
(766,588,c),
(773,616,l),
(523,616,l),
(517,593,l),
(565,586,o),
(597,573,o),
(589,543,cs),
(583,521,o),
(562,488,o),
(537,452,cs),
(274,70,l),
(299,93,l),
(276,227,o),
(246,480,o),
(243,496,cs),
(240,512,o),
(239,528,o),
(243,543,cs),
(247,558,o),
(263,582,o),
(352,591,c),
(359,616,l),
(71,616,l),
(64,588,l),
(109,580,o),
(153,571,o),
(165,489,cs),
(238,-24,l)
);
}
);
width = 672;
},
{
anchors = (
{
name = bottom;
pos = (223,0);
},
{
name = top;
pos = (433,616);
}
);
color = 4;
layerId = m006;
shapes = (
{
closed = 1;
nodes = (
(251,-24,l),
(367,153,o),
(576,444,o),
(619,505,cs),
(662,566,o),
(701,579,o),
(766,588,c),
(773,616,l),
(523,616,l),
(517,593,l),
(565,586,o),
(597,573,o),
(589,543,cs),
(583,521,o),
(562,488,o),
(537,452,cs),
(274,70,l),
(299,93,l),
(276,227,o),
(246,480,o),
(243,496,cs),
(240,512,o),
(239,528,o),
(243,543,cs),
(247,558,o),
(263,582,o),
(352,591,c),
(359,616,l),
(71,616,l),
(64,588,l),
(109,580,o),
(153,571,o),
(165,489,cs),
(238,-24,l)
);
}
);
width = 672;
},
{
anchors = (
{
name = bottom;
pos = (223,0);
},
{
name = top;
pos = (433,616);
}
);
color = 4;
layerId = m004;
shapes = (
{
closed = 1;
nodes = (
(251,-24,l),
(367,153,o),
(576,444,o),
(619,505,cs),
(662,566,o),
(701,579,o),
(766,588,c),
(773,616,l),
(523,616,l),
(517,593,l),
(565,586,o),
(597,573,o),
(589,543,cs),
(583,521,o),
(562,488,o),
(537,452,cs),
(274,70,l),
(299,93,l),
(276,227,o),
(246,480,o),
(243,496,cs),
(240,512,o),
(239,528,o),
(243,543,cs),
(247,558,o),
(263,582,o),
(352,591,c),
(359,616,l),
(71,616,l),
(64,588,l),
(109,580,o),
(153,571,o),
(165,489,cs),
(238,-24,l)
);
}
);
width = 672;
}
);
metricLeft = H;
metricRight = H;
unicode = 86;
},
{
glyphname = W;
lastChange = "2025-04-24 18:06:37 +0000";
layers = (
{
anchors = (
{
name = bottom;
pos = (350,0);
},
{
name = top;
pos = (560,616);
}
);
color = 4;
layerId = m003;
shapes = (
{
closed = 1;
nodes = (
(528,487,l),
(249,75,l),
(275,98,l),
(231,496,ls),
(224,562,o),
(221,582,o),
(308,591,c),
(315,616,l),
(71,616,l),
(64,588,l),
(101,579,o),
(147,572,o),
(157,489,cs),
(218,-24,l),
(231,-24,l),
(309,108,o),
(465,321,o),
(538,438,c)
);
},
{
closed = 1;
nodes = (
(549,-24,l),
(663,153,o),
(861,444,o),
(900,505,cs),
(939,566,o),
(941,576,o),
(1010,588,c),
(1017,616,l),
(819,616,l),
(812,591,l),
(891,570,o),
(877,533,o),
(822,452,cs),
(567,70,l),
(598,99,l),
(585,233,o),
(567,480,o),
(566,496,cs),
(562,572,o),
(578,582,o),
(648,591,c),
(655,616,l),
(421,616,l),
(414,591,l),
(458,584,o),
(487,572,o),
(494,489,cs),
(536,-24,l)
);
}
);
width = 916;
},
{
anchors = (
{
name = bottom;
pos = (350,0);
},
{
name = top;
pos = (560,616);
}
);
color = 4;
layerId = m005;
shapes = (
{
closed = 1;
nodes = (
(528,487,l),
(249,75,l),
(275,98,l),
(231,496,ls),
(224,562,o),
(221,582,o),
(308,591,c),
(315,616,l),
(71,616,l),
(64,588,l),
(101,579,o),
(147,572,o),
(157,489,cs),
(218,-24,l),
(231,-24,l),
(309,108,o),
(465,321,o),
(538,438,c)
);
},
{
closed = 1;
nodes = (
(549,-24,l),
(663,153,o),
(861,444,o),
(900,505,cs),
(939,566,o),
(941,576,o),
(1010,588,c),
(1017,616,l),
(819,616,l),
(812,591,l),
(891,570,o),
(877,533,o),
(822,452,cs),
(567,70,l),
(598,99,l),
(585,233,o),
(567,480,o),
(566,496,cs),
(562,572,o),
(578,582,o),
(648,591,c),
(655,616,l),
(421,616,l),
(414,591,l),
(458,584,o),
(487,572,o),
(494,489,cs),
(536,-24,l)
);
}
);
width = 916;
},
{
anchors = (
{
name = bottom;
pos = (350,0);
},
{
name = top;
pos = (560,616);
}
);
color = 4;
layerId = m006;
shapes = (
{
closed = 1;
nodes = (
(528,487,l),
(249,75,l),
(275,98,l),
(231,496,ls),
(224,562,o),
(221,582,o),
(308,591,c),
(315,616,l),
(71,616,l),
(64,588,l),
(101,579,o),
(147,572,o),
(157,489,cs),
(218,-24,l),
(231,-24,l),
(309,108,o),
(465,321,o),
(538,438,c)
);
},
{
closed = 1;
nodes = (
(549,-24,l),
(663,153,o),
(861,444,o),
(900,505,cs),
(939,566,o),
(941,576,o),
(1010,588,c),
(1017,616,l),
(819,616,l),
(812,591,l),
(891,570,o),
(877,533,o),
(822,452,cs),
(567,70,l),
(598,99,l),
(585,233,o),
(567,480,o),
(566,496,cs),
(562,572,o),
(578,582,o),
(648,591,c),
(655,616,l),
(421,616,l),
(414,591,l),
(458,584,o),
(487,572,o),
(494,489,cs),
(536,-24,l)
);
}
);
width = 916;
},
{
anchors = (
{
name = bottom;
pos = (350,0);
},
{
name = top;
pos = (560,616);
}
);
color = 4;
layerId = m004;
shapes = (
{
closed = 1;
nodes = (
(528,487,l),
(249,75,l),
(275,98,l),
(231,496,ls),
(224,562,o),
(221,582,o),
(308,591,c),
(315,616,l),
(71,616,l),
(64,588,l),
(101,579,o),
(147,572,o),
(157,489,cs),
(218,-24,l),
(231,-24,l),
(309,108,o),
(465,321,o),
(538,438,c)
);
},
{
closed = 1;
nodes = (
(549,-24,l),
(663,153,o),
(861,444,o),
(900,505,cs),
(939,566,o),
(941,576,o),
(1010,588,c),
(1017,616,l),
(819,616,l),
(812,591,l),
(891,570,o),
(877,533,o),
(822,452,cs),
(567,70,l),
(598,99,l),
(585,233,o),
(567,480,o),
(566,496,cs),
(562,572,o),
(578,582,o),
(648,591,c),
(655,616,l),
(421,616,l),
(414,591,l),
(458,584,o),
(487,572,o),
(494,489,cs),
(536,-24,l)
);
}
);
width = 916;
}
);
metricLeft = H;
metricRight = H;
unicode = 87;
},
{
glyphname = X;
lastChange = "2025-04-24 18:06:37 +0000";
layers = (
{
anchors = (
{
name = bottom;
pos = (261,0);
},
{
name = top;
pos = (471,616);
}
);
color = 4;
guides = (
{
angle = 53;
pos = (537,661);
}
);
layerId = m003;
shapes = (
{
closed = 1;
nodes = (
(572,0,l),
(579,28,l),
(540,33,o),
(514,26,o),
(475,114,cs),
(371,351,o),
(375,351,o),
(298,512,cs),
(285,541,o),
(281,555,o),
(285,566,cs),
(288,581,o),
(304,586,o),
(357,591,c),
(364,616,l),
(131,616,l),
(124,588,l),
(169,588,o),
(184,587,o),
(224,494,cs),
(315,286,o),
(321,286,o),
(398,105,cs),
(411,76,o),
(416,58,o),
(414,47,cs),
(409,30,o),
(405,29,o),
(335,25,c),
(328,0,l)
);
},
{
closed = 1;
nodes = (
(201,0,l),
(208,25,l),
(171,28,o),
(140,32,o),
(164,54,cs),
(174,63,o),
(180,77,o),
(209,112,cs),
(371,308,l),
(344,333,l),
(140,101,ls),
(53,3,o),
(27,30,o),
(-5,28,c),
(-12,0,l)
);
},
{
closed = 1;
nodes = (
(544,504,ls),
(625,599,o),
(669,585,o),
(709,588,c),
(716,616,l),
(494,616,l),
(487,591,l),
(528,588,o),
(536,586,o),
(532,567,cs),
(527,550,o),
(503,522,o),
(455,463,cs),
(355,340,l),
(384,315,l)
);
}
);
width = 646;
},
{
anchors = (
{
name = bottom;
pos = (261,0);
},
{
name = top;
pos = (471,616);
}
);
color = 4;
guides = (
{
angle = 53;
pos = (537,661);
}
);
layerId = m005;
shapes = (
{
closed = 1;
nodes = (
(572,0,l),
(579,28,l),
(540,33,o),
(514,26,o),
(475,114,cs),
(371,351,o),
(375,351,o),
(298,512,cs),
(285,541,o),
(281,555,o),
(285,566,cs),
(288,581,o),
(304,586,o),
(357,591,c),
(364,616,l),
(131,616,l),
(124,588,l),
(169,588,o),
(184,587,o),
(224,494,cs),
(315,286,o),
(321,286,o),
(398,105,cs),
(411,76,o),
(416,58,o),
(414,47,cs),
(409,30,o),
(405,29,o),
(335,25,c),
(328,0,l)
);
},
{
closed = 1;
nodes = (
(201,0,l),
(208,25,l),
(171,28,o),
(140,32,o),
(146,54,cs),
(149,67,o),
(160,79,o),
(191,112,cs),
(371,308,l),
(344,333,l),
(122,101,ls),
(40,15,o),
(27,30,o),
(-5,28,c),
(-12,0,l)
);
},
{
closed = 1;
nodes = (
(562,504,ls),
(639,586,o),
(669,585,o),
(709,588,c),
(716,616,l),
(494,616,l),
(487,591,l),
(528,588,o),
(554,586,o),
(550,567,cs),
(545,550,o),
(514,521,o),
(463,463,cs),
(355,340,l),
(384,315,l)
);
}
);
width = 646;
},
{
anchors = (
{
name = bottom;
pos = (261,0);
},
{
name = top;
pos = (471,616);
}
);
color = 4;
guides = (
{
angle = 53;
pos = (537,661);
}
);
layerId = m006;
shapes = (
{
closed = 1;
nodes = (
(572,0,l),
(579,28,l),
(540,33,o),
(514,26,o),
(475,114,cs),
(371,351,o),
(375,351,o),
(298,512,cs),
(285,541,o),
(281,555,o),
(285,566,cs),
(288,581,o),
(304,586,o),
(357,591,c),
(364,616,l),
(131,616,l),
(124,588,l),
(169,588,o),
(184,587,o),
(224,494,cs),
(315,286,o),
(321,286,o),
(398,105,cs),
(411,76,o),
(416,58,o),
(414,47,cs),
(409,30,o),
(405,29,o),
(335,25,c),
(328,0,l)
);
},
{
closed = 1;
nodes = (
(201,0,l),
(208,25,l),
(171,28,o),
(140,32,o),
(146,54,cs),
(149,67,o),
(160,79,o),
(191,112,cs),
(371,308,l),
(344,333,l),
(122,101,ls),
(40,15,o),
(27,30,o),
(-5,28,c),
(-12,0,l)
);
},
{
closed = 1;
nodes = (
(562,504,ls),
(639,586,o),
(669,585,o),
(709,588,c),
(716,616,l),
(494,616,l),
(487,591,l),
(528,588,o),
(554,586,o),
(550,567,cs),
(545,550,o),
(514,521,o),
(463,463,cs),
(355,340,l),
(384,315,l)
);
}
);
width = 646;
},
{
anchors = (
{
name = bottom;
pos = (261,0);
},
{
name = top;
pos = (471,616);
}
);
color = 4;
guides = (
{
angle = 53;
pos = (537,661);
}
);
layerId = m004;
shapes = (
{
closed = 1;
nodes = (
(572,0,l),
(579,28,l),
(540,33,o),
(514,26,o),
(475,114,cs),
(371,351,o),
(375,351,o),
(298,512,cs),
(285,541,o),
(281,555,o),
(285,566,cs),
(288,581,o),
(304,586,o),
(357,591,c),
(364,616,l),
(131,616,l),
(124,588,l),
(169,588,o),
(184,587,o),
(224,494,cs),
(315,286,o),
(321,286,o),
(398,105,cs),
(411,76,o),
(416,58,o),
(414,47,cs),
(409,30,o),
(405,29,o),
(335,25,c),
(328,0,l)
);
},
{
closed = 1;
nodes = (
(201,0,l),
(208,25,l),
(171,28,o),
(140,32,o),
(146,54,cs),
(149,67,o),
(160,79,o),
(191,112,cs),
(371,308,l),
(344,333,l),
(122,101,ls),
(40,15,o),
(27,30,o),
(-5,28,c),
(-12,0,l)
);
},
{
closed = 1;
nodes = (
(562,504,ls),
(639,586,o),
(669,585,o),
(709,588,c),
(716,616,l),
(494,616,l),
(487,591,l),
(528,588,o),
(554,586,o),
(550,567,cs),
(545,550,o),
(514,521,o),
(463,463,cs),
(355,340,l),
(384,315,l)
);
}
);
width = 646;
}
);
metricLeft = H;
metricRight = H;
unicode = 88;
},
{
glyphname = Y;
lastChange = "2025-04-24 18:06:37 +0000";
layers = (
{
anchors = (
{
name = bottom;
pos = (142,0);
},
{
name = top;
pos = (352,616);
},
{
name = topleft;
pos = (90,616);
}
);
color = 4;
layerId = m003;
shapes = (
{
closed = 1;
nodes = (
(326,0,l),
(333,28,l),
(264,33,o),
(218,30,o),
(234,93,cs),
(294,318,l),
(274,257,l),
(478,509,ls),
(543,590,o),
(581,588,o),
(594,588,c),
(601,616,l),
(403,616,l),
(396,591,l),
(465,581,o),
(476,565,o),
(429,505,c),
(270,306,l),
(274,307,l),
(212,525,l),
(199,586,o),
(200,585,o),
(270,591,c),
(277,616,l),
(71,616,l),
(64,588,l),
(99,588,o),
(125,581,o),
(131,556,cs),
(217,243,l),
(217,293,l),
(163,93,ls),
(149,38,o),
(85,33,o),
(37,28,c),
(30,0,l)
);
}
);
width = 500;
},
{
anchors = (
{
name = bottom;
pos = (142,0);
},
{
name = top;
pos = (352,616);
},
{
name = topleft;
pos = (90,616);
}
);
color = 4;
layerId = m005;
shapes = (
{
closed = 1;
nodes = (
(326,0,l),
(333,28,l),
(264,33,o),
(218,30,o),
(234,93,cs),
(294,318,l),
(274,257,l),
(478,509,ls),
(543,590,o),
(581,588,o),
(594,588,c),
(601,616,l),
(403,616,l),
(396,591,l),
(465,581,o),
(476,565,o),
(429,505,c),
(270,306,l),
(274,307,l),
(212,525,l),
(199,586,o),
(200,585,o),
(270,591,c),
(277,616,l),
(71,616,l),
(64,588,l),
(99,588,o),
(125,581,o),
(131,556,cs),
(217,243,l),
(217,293,l),
(163,93,ls),
(149,38,o),
(85,33,o),
(37,28,c),
(30,0,l)
);
}
);
width = 500;
},
{
anchors = (
{
name = bottom;
pos = (142,0);
},
{
name = top;
pos = (352,616);
},
{
name = topleft;
pos = (90,616);
}
);
color = 4;
layerId = m006;
shapes = (
{
closed = 1;
nodes = (
(326,0,l),
(333,28,l),
(264,33,o),
(218,30,o),
(234,93,cs),
(294,318,l),
(274,257,l),
(478,509,ls),
(543,590,o),
(581,588,o),
(594,588,c),
(601,616,l),
(403,616,l),
(396,591,l),
(465,581,o),
(476,565,o),
(429,505,c),
(270,306,l),
(274,307,l),
(212,525,l),
(199,586,o),
(200,585,o),
(270,591,c),
(277,616,l),
(71,616,l),
(64,588,l),
(99,588,o),
(125,581,o),
(131,556,cs),
(217,243,l),
(217,293,l),
(163,93,ls),
(149,38,o),
(85,33,o),
(37,28,c),
(30,0,l)
);
}
);
width = 500;
},
{
anchors = (
{
name = bottom;
pos = (142,0);
},
{
name = top;
pos = (352,616);
},
{
name = topleft;
pos = (90,616);
}
);
color = 4;
layerId = m004;
shapes = (
{
closed = 1;
nodes = (
(326,0,l),
(333,28,l),
(264,33,o),
(218,30,o),
(234,93,cs),
(294,318,l),
(274,257,l),
(478,509,ls),
(543,590,o),
(581,588,o),
(594,588,c),
(601,616,l),
(403,616,l),
(396,591,l),
(465,581,o),
(476,565,o),
(429,505,c),
(270,306,l),
(274,307,l),
(212,525,l),
(199,586,o),
(200,585,o),
(270,591,c),
(277,616,l),
(71,616,l),
(64,588,l),
(99,588,o),
(125,581,o),
(131,556,cs),
(217,243,l),
(217,293,l),
(163,93,ls),
(149,38,o),
(85,33,o),
(37,28,c),
(30,0,l)
);
}
);
width = 500;
}
);
metricLeft = H;
metricRight = H;
unicode = 89;
},
{
glyphname = Z;
lastChange = "2025-04-24 18:06:37 +0000";
layers = (
{
anchors = (
{
name = bottom;
pos = (271,0);
},
{
name = center;
pos = (376,308);
},
{
name = top;
pos = (481,616);
}
);
color = 4;
layerId = m003;
shapes = (
{
closed = 1;
nodes = (
(141,0,o),
(326,1,o),
(355,1,cs),
(385,1,o),
(455,1,o),
(496,-2,c),
(537,57,o),
(582,143,o),
(609,210,c),
(575,210,l),
(550,154,o),
(478,43,o),
(329,41,cs),
(126,38,l),
(122,24,l),
(684,594,l),
(679,621,l),
(601,616,o),
(446,615,o),
(398,615,cs),
(350,615,o),
(249,611,o),
(210,617,c),
(184,554,o),
(161,490,o),
(144,427,c),
(172,427,l),
(196,479,o),
(210,576,o),
(345,576,cs),
(420,576,o),
(526,574,o),
(583,572,c),
(586,596,l),
(9,12,l),
(14,0,l)
);
}
);
width = 657;
},
{
anchors = (
{
name = bottom;
pos = (271,0);
},
{
name = center;
pos = (376,308);
},
{
name = top;
pos = (481,616);
}
);
color = 4;
layerId = m005;
shapes = (
{
closed = 1;
nodes = (
(141,0,o),
(326,1,o),
(355,1,cs),
(385,1,o),
(455,1,o),
(496,-2,c),
(537,57,o),
(582,143,o),
(609,210,c),
(575,210,l),
(550,154,o),
(478,43,o),
(329,41,cs),
(126,38,l),
(122,24,l),
(684,594,l),
(679,621,l),
(601,616,o),
(446,615,o),
(398,615,cs),
(350,615,o),
(249,611,o),
(210,617,c),
(184,554,o),
(161,490,o),
(144,427,c),
(172,427,l),
(196,479,o),
(210,576,o),
(345,576,cs),
(420,576,o),
(526,574,o),
(583,572,c),
(586,596,l),
(9,12,l),
(14,0,l)
);
}
);
width = 657;
},
{
anchors = (
{
name = bottom;
pos = (271,0);
},
{
name = center;
pos = (376,308);
},
{
name = top;
pos = (481,616);
}
);
color = 4;
layerId = m006;
shapes = (
{
closed = 1;
nodes = (
(141,0,o),
(326,1,o),
(355,1,cs),
(385,1,o),
(455,1,o),
(496,-2,c),
(537,57,o),
(582,143,o),
(609,210,c),
(575,210,l),
(550,154,o),
(478,43,o),
(329,41,cs),
(126,38,l),
(122,24,l),
(684,594,l),
(679,621,l),
(601,616,o),
(446,615,o),
(398,615,cs),
(350,615,o),
(249,611,o),
(210,617,c),
(184,554,o),
(161,490,o),
(144,427,c),
(172,427,l),
(196,479,o),
(210,576,o),
(345,576,cs),
(420,576,o),
(526,574,o),
(583,572,c),
(586,596,l),
(9,12,l),
(14,0,l)
);
}
);
width = 657;
},
{
anchors = (
{
name = bottom;
pos = (271,0);
},
{
name = center;
pos = (376,308);
},
{
name = top;
pos = (481,616);
}
);
color = 4;
layerId = m004;
shapes = (
{
closed = 1;
nodes = (
(141,0,o),
(326,1,o),
(355,1,cs),
(385,1,o),
(455,1,o),
(496,-2,c),
(537,57,o),
(582,143,o),
(609,210,c),
(575,210,l),
(550,154,o),
(478,43,o),
(329,41,cs),
(126,38,l),
(122,24,l),
(684,594,l),
(679,621,l),
(601,616,o),
(446,615,o),
(398,615,cs),
(350,615,o),
(249,611,o),
(210,617,c),
(184,554,o),
(161,490,o),
(144,427,c),
(172,427,l),
(196,479,o),
(210,576,o),
(345,576,cs),
(420,576,o),
(526,574,o),
(583,572,c),
(586,596,l),
(9,12,l),
(14,0,l)
);
}
);
width = 657;
}
);
metricLeft = H;
metricRight = H;
unicode = 90;
},
{
glyphname = a;
lastChange = "2025-04-24 18:07:01 +0000";
layers = (
{
anchors = (
{
name = bottom;
pos = (143,0);
},
{
name = ogonek;
pos = (325,10);
},
{
name = top;
pos = (284,401);
}
);
background = {
shapes = (
{
closed = 1;
nodes = (
(362,408,o),
(334,404,o),
(314,405,c),
(295,332,o),
(275,277,o),
(262,229,cs),
(242,155,o),
(229,99,o),
(225,73,cs),
(216,21,o),
(227,-8,o),
(254,-8,cs),
(285,-8,o),
(337,33,o),
(398,106,c),
(375,127,l),
(341,83,o),
(316,58,o),
(303,58,cs),
(289,58,o),
(290,91,o),
(305,149,cs),
(331,242,o),
(361,337,o),
(391,415,c)
);
},
{
closed = 1;
nodes = (
(30,-3,o),
(58,1,o),
(78,0,c),
(97,73,o),
(117,128,o),
(130,176,cs),
(150,250,o),
(163,306,o),
(167,332,cs),
(176,384,o),
(165,413,o),
(138,413,cs),
(107,413,o),
(55,372,o),
(-6,299,c),
(17,278,l),
(51,322,o),
(76,347,o),
(89,347,cs),
(103,347,o),
(102,314,o),
(87,256,cs),
(61,163,o),
(31,68,o),
(1,-10,c)
);
}
);
};
layerId = m003;
shapes = (
{
closed = 1;
nodes = (
(130,-10,o),
(216,53,o),
(294,208,c),
(286,249,l),
(228,132,o),
(147,46,o),
(106,46,cs),
(78,46,o),
(75,97,o),
(90,156,cs),
(124,284,o),
(191,366,o),
(255,366,cs),
(276,366,o),
(305,355,o),
(315,333,c),
(342,388,l),
(326,396,o),
(293,402,o),
(278,402,cs),
(169,402,o),
(60,286,o),
(14,121,cs),
(-7,44,o),
(14,-10,o),
(65,-10,cs)
);
},
{
closed = 1;
nodes = (
(298,-6,o),
(350,39,o),
(400,106,c),
(381,124,l),
(347,87,o),
(319,60,o),
(309,60,cs),
(298,60,o),
(297,99,o),
(310,156,cs),
(324,220,o),
(361,327,o),
(398,415,c),
(375,408,o),
(349,404,o),
(329,405,c),
(321,376,o),
(293,292,o),
(269,201,cs),
(236,77,o),
(224,-6,o),
(265,-6,cs)
);
}
);
width = 411;
},
{
associatedMasterId = m003;
layerId = "0DE6FB79-B0B6-414C-BAFE-4B31CAFD69E7";
name = "7. Nov. 24, 00:06";
shapes = (
{
closed = 1;
nodes = (
(386,427,l),
(364,443,o),
(341,460,o),
(326,460,cs),
(253,460,o),
(163,346,o),
(113,184,cs),
(95,125,o),
(89,76,o),
(108,76,cs),
(131,76,o),
(206,136,o),
(276,208,c),
(293,190,l),
(187,77,o),
(81,-10,o),
(46,-10,cs),
(-3,-10,o),
(-12,61,o),
(16,152,cs),
(81,363,o),
(222,508,o),
(354,508,cs),
(374,508,o),
(402,493,o),
(424,476,c)
);
},
{
closed = 1;
nodes = (
(457,500,l),
(414,395,o),
(364,261,o),
(334,177,cs),
(307,105,o),
(302,54,o),
(322,54,cs),
(345,54,o),
(386,119,o),
(421,210,c),
(451,210,l),
(402,82,o),
(324,-8,o),
(263,-8,cs),
(220,-8,o),
(211,51,o),
(242,135,cs),
(211,52,o),
(288,250,o),
(382,500,c)
);
}
);
width = 467;
},
{
associatedMasterId = m003;
background = {
shapes = (
{
closed = 1;
nodes = (
(200,83,o),
(113,-8,o),
(67,-8,cs),
(3,-8,o),
(-18,54,o),
(15,141,cs),
(38,202,o),
(65,270,o),
(82,315,cs),
(109,387,o),
(115,438,o),
(96,438,cs),
(72,438,o),
(29,373,o),
(-8,282,c),
(-38,282,l),
(15,414,o),
(95,508,o),
(155,508,cs),
(199,508,o),
(206,445,o),
(173,357,cs),
(136,259,o),
(109,190,o),
(109,192,cs),
(83,118,o),
(83,66,o),
(110,66,cs),
(145,66,o),
(215,145,o),
(277,257,c),
(277,212,l)
);
},
{
closed = 1;
nodes = (
(442,500,l),
(402,401,o),
(351,268,o),
(319,177,cs),
(292,105,o),
(287,54,o),
(307,54,cs),
(330,54,o),
(371,119,o),
(406,210,c),
(436,210,l),
(387,82,o),
(309,-8,o),
(248,-8,cs),
(205,-8,o),
(196,51,o),
(227,135,cs),
(196,52,o),
(273,250,o),
(367,500,c)
);
}
);
};
layerId = "90AB4BE1-A270-4CBB-8974-CA3C0A24FD98";
name = "8. Nov. 24, 10:52";
shapes = (
{
closed = 1;
nodes = (
(376,417,l),
(343,441,o),
(313,452,o),
(286,452,cs),
(209,452,o),
(152,362,o),
(103,205,cs),
(89,162,o),
(82,126,o),
(82,101,cs),
(82,79,o),
(101,56,o),
(112,56,cs),
(166,56,o),
(230,120,o),
(286,197,c),
(293,190,l),
(221,73,o),
(135,-10,o),
(86,-10,cs),
(16,-10,o),
(-13,57,o),
(16,152,cs),
(80,361,o),
(220,508,o),
(354,508,cs),
(372,508,o),
(401,495,o),
(424,476,c)
);
},
{
closed = 1;
nodes = (
(460,508,l),
(424,421,o),
(372,284,o),
(334,177,cs),
(307,105,o),
(302,54,o),
(322,54,cs),
(345,54,o),
(386,119,o),
(421,210,c),
(451,210,l),
(402,82,o),
(324,-8,o),
(263,-8,cs),
(220,-8,o),
(211,51,o),
(242,135,cs),
(211,52,o),
(288,250,o),
(382,500,c)
);
},
{
closed = 1;
nodes = (
(89,-10,o),
(183,73,o),
(293,190,c),
(276,208,l),
(195,125,o),
(126,66,o),
(109,66,cs),
(83,66,o),
(82,115,o),
(107,184,cs),
(166,346,o),
(257,460,o),
(326,460,cs),
(335,460,o),
(359,446,o),
(386,427,c),
(424,476,l),
(400,495,o),
(371,508,o),
(354,508,cs),
(232,508,o),
(91,361,o),
(15,152,cs),
(-19,57,o),
(2,-10,o),
(66,-10,cs)
);
}
);
width = 467;
},
{
anchors = (
{
name = bottom;
pos = (143,0);
},
{
name = ogonek;
pos = (325,10);
},
{
name = top;
pos = (284,401);
}
);
background = {
shapes = (
{
closed = 1;
nodes = (
(362,408,o),
(334,404,o),
(314,405,c),
(295,332,o),
(275,277,o),
(262,229,cs),
(242,155,o),
(229,99,o),
(225,73,cs),
(216,21,o),
(227,-8,o),
(254,-8,cs),
(285,-8,o),
(337,33,o),
(398,106,c),
(375,127,l),
(341,83,o),
(316,58,o),
(303,58,cs),
(289,58,o),
(290,91,o),
(305,149,cs),
(331,242,o),
(361,337,o),
(391,415,c)
);
},
{
closed = 1;
nodes = (
(30,-3,o),
(58,1,o),
(78,0,c),
(97,73,o),
(117,128,o),
(130,176,cs),
(150,250,o),
(163,306,o),
(167,332,cs),
(176,384,o),
(165,413,o),
(138,413,cs),
(107,413,o),
(55,372,o),
(-6,299,c),
(17,278,l),
(51,322,o),
(76,347,o),
(89,347,cs),
(103,347,o),
(102,314,o),
(87,256,cs),
(61,163,o),
(31,68,o),
(1,-10,c)
);
}
);
};
layerId = m005;
shapes = (
{
closed = 1;
nodes = (
(130,-10,o),
(216,53,o),
(294,208,c),
(286,249,l),
(228,132,o),
(147,46,o),
(106,46,cs),
(78,46,o),
(75,97,o),
(90,156,cs),
(124,284,o),
(191,366,o),
(255,366,cs),
(276,366,o),
(305,355,o),
(315,333,c),
(342,388,l),
(326,396,o),
(293,402,o),
(278,402,cs),
(169,402,o),
(60,286,o),
(14,121,cs),
(-7,44,o),
(14,-10,o),
(65,-10,cs)
);
},
{
closed = 1;
nodes = (
(298,-6,o),
(350,39,o),
(400,106,c),
(381,124,l),
(347,87,o),
(319,60,o),
(309,60,cs),
(298,60,o),
(297,99,o),
(310,156,cs),
(324,220,o),
(361,327,o),
(398,415,c),
(375,408,o),
(349,404,o),
(329,405,c),
(321,376,o),
(293,292,o),
(269,201,cs),
(236,77,o),
(224,-6,o),
(265,-6,cs)
);
}
);
width = 411;
},
{
associatedMasterId = m005;
layerId = "10EA339C-69EC-4DCB-A147-72D2BBFFF5B2";
name = "7. Nov. 24, 00:06";
shapes = (
{
closed = 1;
nodes = (
(386,427,l),
(364,443,o),
(341,460,o),
(326,460,cs),
(253,460,o),
(163,346,o),
(113,184,cs),
(95,125,o),
(89,76,o),
(108,76,cs),
(131,76,o),
(206,136,o),
(276,208,c),
(293,190,l),
(187,77,o),
(81,-10,o),
(46,-10,cs),
(-3,-10,o),
(-12,61,o),
(16,152,cs),
(81,363,o),
(222,508,o),
(354,508,cs),
(374,508,o),
(402,493,o),
(424,476,c)
);
},
{
closed = 1;
nodes = (
(457,500,l),
(414,395,o),
(364,261,o),
(334,177,cs),
(307,105,o),
(302,54,o),
(322,54,cs),
(345,54,o),
(386,119,o),
(421,210,c),
(451,210,l),
(402,82,o),
(324,-8,o),
(263,-8,cs),
(220,-8,o),
(211,51,o),
(242,135,cs),
(211,52,o),
(288,250,o),
(382,500,c)
);
}
);
width = 467;
},
{
associatedMasterId = m005;
background = {
shapes = (
{
closed = 1;
nodes = (
(200,83,o),
(113,-8,o),
(67,-8,cs),
(3,-8,o),
(-18,54,o),
(15,141,cs),
(38,202,o),
(65,270,o),
(82,315,cs),
(109,387,o),
(115,438,o),
(96,438,cs),
(72,438,o),
(29,373,o),
(-8,282,c),
(-38,282,l),
(15,414,o),
(95,508,o),
(155,508,cs),
(199,508,o),
(206,445,o),
(173,357,cs),
(136,259,o),
(109,190,o),
(109,192,cs),
(83,118,o),
(83,66,o),
(110,66,cs),
(145,66,o),
(215,145,o),
(277,257,c),
(277,212,l)
);
},
{
closed = 1;
nodes = (
(442,500,l),
(402,401,o),
(351,268,o),
(319,177,cs),
(292,105,o),
(287,54,o),
(307,54,cs),
(330,54,o),
(371,119,o),
(406,210,c),
(436,210,l),
(387,82,o),
(309,-8,o),
(248,-8,cs),
(205,-8,o),
(196,51,o),
(227,135,cs),
(196,52,o),
(273,250,o),
(367,500,c)
);
}
);
};
layerId = "666B13F9-79DA-4CA3-9B8C-4FAAE2CA906D";
name = "8. Nov. 24, 10:52";
shapes = (
{
closed = 1;
nodes = (
(376,417,l),
(343,441,o),
(313,452,o),
(286,452,cs),
(209,452,o),
(152,362,o),
(103,205,cs),
(89,162,o),
(82,126,o),
(82,101,cs),
(82,79,o),
(101,56,o),
(112,56,cs),
(166,56,o),
(230,120,o),
(286,197,c),
(293,190,l),
(221,73,o),
(135,-10,o),
(86,-10,cs),
(16,-10,o),
(-13,57,o),
(16,152,cs),
(80,361,o),
(220,508,o),
(354,508,cs),
(372,508,o),
(401,495,o),
(424,476,c)
);
},
{
closed = 1;
nodes = (
(460,508,l),
(424,421,o),
(372,284,o),
(334,177,cs),
(307,105,o),
(302,54,o),
(322,54,cs),
(345,54,o),
(386,119,o),
(421,210,c),
(451,210,l),
(402,82,o),
(324,-8,o),
(263,-8,cs),
(220,-8,o),
(211,51,o),
(242,135,cs),
(211,52,o),
(288,250,o),
(382,500,c)
);
},
{
closed = 1;
nodes = (
(89,-10,o),
(183,73,o),
(293,190,c),
(276,208,l),
(195,125,o),
(126,66,o),
(109,66,cs),
(83,66,o),
(82,115,o),
(107,184,cs),
(166,346,o),
(257,460,o),
(326,460,cs),
(335,460,o),
(359,446,o),
(386,427,c),
(424,476,l),
(400,495,o),
(371,508,o),
(354,508,cs),
(232,508,o),
(91,361,o),
(15,152,cs),
(-19,57,o),
(2,-10,o),
(66,-10,cs)
);
}
);
width = 467;
},
{
anchors = (
{
name = bottom;
pos = (143,0);
},
{
name = ogonek;
pos = (325,10);
},
{
name = top;
pos = (284,401);
}
);
background = {
shapes = (
{
closed = 1;
nodes = (
(362,408,o),
(334,404,o),
(314,405,c),
(295,332,o),
(275,277,o),
(262,229,cs),
(242,155,o),
(229,99,o),
(225,73,cs),
(216,21,o),
(227,-8,o),
(254,-8,cs),
(285,-8,o),
(337,33,o),
(398,106,c),
(375,127,l),
(341,83,o),
(316,58,o),
(303,58,cs),
(289,58,o),
(290,91,o),
(305,149,cs),
(331,242,o),
(361,337,o),
(391,415,c)
);
},
{
closed = 1;
nodes = (
(30,-3,o),
(58,1,o),
(78,0,c),
(97,73,o),
(117,128,o),
(130,176,cs),
(150,250,o),
(163,306,o),
(167,332,cs),
(176,384,o),
(165,413,o),
(138,413,cs),
(107,413,o),
(55,372,o),
(-6,299,c),
(17,278,l),
(51,322,o),
(76,347,o),
(89,347,cs),
(103,347,o),
(102,314,o),
(87,256,cs),
(61,163,o),
(31,68,o),
(1,-10,c)
);
}
);
};
layerId = m006;
shapes = (
{
closed = 1;
nodes = (
(130,-10,o),
(236,53,o),
(314,208,c),
(306,249,l),
(248,132,o),
(147,46,o),
(106,46,cs),
(78,46,o),
(75,97,o),
(90,156,cs),
(124,284,o),
(191,366,o),
(255,366,cs),
(276,366,o),
(325,355,o),
(335,333,c),
(362,388,l),
(346,396,o),
(293,402,o),
(278,402,cs),
(169,402,o),
(60,286,o),
(14,121,cs),
(-7,44,o),
(14,-10,o),
(65,-10,cs)
);
},
{
closed = 1;
nodes = (
(316,-6,o),
(368,39,o),
(418,106,c),
(399,124,l),
(365,87,o),
(337,60,o),
(327,60,cs),
(316,60,o),
(315,99,o),
(328,156,cs),
(342,220,o),
(379,327,o),
(416,415,c),
(393,408,o),
(367,404,o),
(347,405,c),
(339,376,o),
(311,292,o),
(287,201,cs),
(254,77,o),
(242,-6,o),
(283,-6,cs)
);
}
);
width = 429;
},
{
associatedMasterId = m006;
layerId = "055F6FAB-59EA-4237-BC34-EE106C920511";
name = "7. Nov. 24, 00:06";
shapes = (
{
closed = 1;
nodes = (
(386,427,l),
(364,443,o),
(341,460,o),
(326,460,cs),
(253,460,o),
(163,346,o),
(113,184,cs),
(95,125,o),
(89,76,o),
(108,76,cs),
(131,76,o),
(206,136,o),
(276,208,c),
(293,190,l),
(187,77,o),
(81,-10,o),
(46,-10,cs),
(-3,-10,o),
(-12,61,o),
(16,152,cs),
(81,363,o),
(222,508,o),
(354,508,cs),
(374,508,o),
(402,493,o),
(424,476,c)
);
},
{
closed = 1;
nodes = (
(457,500,l),
(414,395,o),
(364,261,o),
(334,177,cs),
(307,105,o),
(302,54,o),
(322,54,cs),
(345,54,o),
(386,119,o),
(421,210,c),
(451,210,l),
(402,82,o),
(324,-8,o),
(263,-8,cs),
(220,-8,o),
(211,51,o),
(242,135,cs),
(211,52,o),
(288,250,o),
(382,500,c)
);
}
);
width = 467;
},
{
associatedMasterId = m006;
background = {
shapes = (
{
closed = 1;
nodes = (
(200,83,o),
(113,-8,o),
(67,-8,cs),
(3,-8,o),
(-18,54,o),
(15,141,cs),
(38,202,o),
(65,270,o),
(82,315,cs),
(109,387,o),
(115,438,o),
(96,438,cs),
(72,438,o),
(29,373,o),
(-8,282,c),
(-38,282,l),
(15,414,o),
(95,508,o),
(155,508,cs),
(199,508,o),
(206,445,o),
(173,357,cs),
(136,259,o),
(109,190,o),
(109,192,cs),
(83,118,o),
(83,66,o),
(110,66,cs),
(145,66,o),
(215,145,o),
(277,257,c),
(277,212,l)
);
},
{
closed = 1;
nodes = (
(442,500,l),
(402,401,o),
(351,268,o),
(319,177,cs),
(292,105,o),
(287,54,o),
(307,54,cs),
(330,54,o),
(371,119,o),
(406,210,c),
(436,210,l),
(387,82,o),
(309,-8,o),
(248,-8,cs),
(205,-8,o),
(196,51,o),
(227,135,cs),
(196,52,o),
(273,250,o),
(367,500,c)
);
}
);
};
layerId = "35414ED7-2FBB-4232-BD21-3C277C9D7EDF";
name = "8. Nov. 24, 10:52";
shapes = (
{
closed = 1;
nodes = (
(376,417,l),
(343,441,o),
(313,452,o),
(286,452,cs),
(209,452,o),
(152,362,o),
(103,205,cs),
(89,162,o),
(82,126,o),
(82,101,cs),
(82,79,o),
(101,56,o),
(112,56,cs),
(166,56,o),
(230,120,o),
(286,197,c),
(293,190,l),
(221,73,o),
(135,-10,o),
(86,-10,cs),
(16,-10,o),
(-13,57,o),
(16,152,cs),
(80,361,o),
(220,508,o),
(354,508,cs),
(372,508,o),
(401,495,o),
(424,476,c)
);
},
{
closed = 1;
nodes = (
(460,508,l),
(424,421,o),
(372,284,o),
(334,177,cs),
(307,105,o),
(302,54,o),
(322,54,cs),
(345,54,o),
(386,119,o),
(421,210,c),
(451,210,l),
(402,82,o),
(324,-8,o),
(263,-8,cs),
(220,-8,o),
(211,51,o),
(242,135,cs),
(211,52,o),
(288,250,o),
(382,500,c)
);
},
{
closed = 1;
nodes = (
(89,-10,o),
(183,73,o),
(293,190,c),
(276,208,l),
(195,125,o),
(126,66,o),
(109,66,cs),
(83,66,o),
(82,115,o),
(107,184,cs),
(166,346,o),
(257,460,o),
(326,460,cs),
(335,460,o),
(359,446,o),
(386,427,c),
(424,476,l),
(400,495,o),
(371,508,o),
(354,508,cs),
(232,508,o),
(91,361,o),
(15,152,cs),
(-19,57,o),
(2,-10,o),
(66,-10,cs)
);
}
);
width = 467;
},
{
anchors = (
{
name = bottom;
pos = (143,0);
},
{
name = ogonek;
pos = (325,10);
},
{
name = top;
pos = (284,401);
}
);
background = {
shapes = (
{
closed = 1;
nodes = (
(362,408,o),
(334,404,o),
(314,405,c),
(295,332,o),
(275,277,o),
(262,229,cs),
(242,155,o),
(229,99,o),
(225,73,cs),
(216,21,o),
(227,-8,o),
(254,-8,cs),
(285,-8,o),
(337,33,o),
(398,106,c),
(375,127,l),
(341,83,o),
(316,58,o),
(303,58,cs),
(289,58,o),
(290,91,o),
(305,149,cs),
(331,242,o),
(361,337,o),
(391,415,c)
);
},
{
closed = 1;
nodes = (
(30,-3,o),
(58,1,o),
(78,0,c),
(97,73,o),
(117,128,o),
(130,176,cs),
(150,250,o),
(163,306,o),
(167,332,cs),
(176,384,o),
(165,413,o),
(138,413,cs),
(107,413,o),
(55,372,o),
(-6,299,c),
(17,278,l),
(51,322,o),
(76,347,o),
(89,347,cs),
(103,347,o),
(102,314,o),
(87,256,cs),
(61,163,o),
(31,68,o),
(1,-10,c)
);
}
);
};
layerId = m004;
shapes = (
{
closed = 1;
nodes = (
(130,-10,o),
(196,53,o),
(274,208,c),
(266,249,l),
(208,132,o),
(147,46,o),
(106,46,cs),
(78,46,o),
(75,97,o),
(90,156,cs),
(124,284,o),
(191,366,o),
(255,366,cs),
(276,366,o),
(285,355,o),
(295,333,c),
(322,388,l),
(306,396,o),
(293,402,o),
(278,402,cs),
(169,402,o),
(60,286,o),
(14,121,cs),
(-7,44,o),
(14,-10,o),
(65,-10,cs)
);
},
{
closed = 1;
nodes = (
(280,-6,o),
(332,39,o),
(382,106,c),
(363,124,l),
(329,87,o),
(301,60,o),
(291,60,cs),
(280,60,o),
(279,99,o),
(292,156,cs),
(306,220,o),
(343,327,o),
(380,415,c),
(357,408,o),
(331,404,o),
(311,405,c),
(303,376,o),
(275,292,o),
(251,201,cs),
(218,77,o),
(206,-6,o),
(247,-6,cs)
);
}
);
width = 393;
},
{
associatedMasterId = m004;
layerId = "388972C2-8DD8-4612-BAD0-89494EED95A5";
name = "7. Nov. 24, 00:06";
shapes = (
{
closed = 1;
nodes = (
(386,427,l),
(364,443,o),
(341,460,o),
(326,460,cs),
(253,460,o),
(163,346,o),
(113,184,cs),
(95,125,o),
(89,76,o),
(108,76,cs),
(131,76,o),
(206,136,o),
(276,208,c),
(293,190,l),
(187,77,o),
(81,-10,o),
(46,-10,cs),
(-3,-10,o),
(-12,61,o),
(16,152,cs),
(81,363,o),
(222,508,o),
(354,508,cs),
(374,508,o),
(402,493,o),
(424,476,c)
);
},
{
closed = 1;
nodes = (
(457,500,l),
(414,395,o),
(364,261,o),
(334,177,cs),
(307,105,o),
(302,54,o),
(322,54,cs),
(345,54,o),
(386,119,o),
(421,210,c),
(451,210,l),
(402,82,o),
(324,-8,o),
(263,-8,cs),
(220,-8,o),
(211,51,o),
(242,135,cs),
(211,52,o),
(288,250,o),
(382,500,c)
);
}
);
width = 467;
},
{
associatedMasterId = m004;
background = {
shapes = (
{
closed = 1;
nodes = (
(200,83,o),
(113,-8,o),
(67,-8,cs),
(3,-8,o),
(-18,54,o),
(15,141,cs),
(38,202,o),
(65,270,o),
(82,315,cs),
(109,387,o),
(115,438,o),
(96,438,cs),
(72,438,o),
(29,373,o),
(-8,282,c),
(-38,282,l),
(15,414,o),
(95,508,o),
(155,508,cs),
(199,508,o),
(206,445,o),
(173,357,cs),
(136,259,o),
(109,190,o),
(109,192,cs),
(83,118,o),
(83,66,o),
(110,66,cs),
(145,66,o),
(215,145,o),
(277,257,c),
(277,212,l)
);
},
{
closed = 1;
nodes = (
(442,500,l),
(402,401,o),
(351,268,o),
(319,177,cs),
(292,105,o),
(287,54,o),
(307,54,cs),
(330,54,o),
(371,119,o),
(406,210,c),
(436,210,l),
(387,82,o),
(309,-8,o),
(248,-8,cs),
(205,-8,o),
(196,51,o),
(227,135,cs),
(196,52,o),
(273,250,o),
(367,500,c)
);
}
);
};
layerId = "50774F7B-9293-42EE-96B9-54DCA7EEAAAE";
name = "8. Nov. 24, 10:52";
shapes = (
{
closed = 1;
nodes = (
(376,417,l),
(343,441,o),
(313,452,o),
(286,452,cs),
(209,452,o),
(152,362,o),
(103,205,cs),
(89,162,o),
(82,126,o),
(82,101,cs),
(82,79,o),
(101,56,o),
(112,56,cs),
(166,56,o),
(230,120,o),
(286,197,c),
(293,190,l),
(221,73,o),
(135,-10,o),
(86,-10,cs),
(16,-10,o),
(-13,57,o),
(16,152,cs),
(80,361,o),
(220,508,o),
(354,508,cs),
(372,508,o),
(401,495,o),
(424,476,c)
);
},
{
closed = 1;
nodes = (
(460,508,l),
(424,421,o),
(372,284,o),
(334,177,cs),
(307,105,o),
(302,54,o),
(322,54,cs),
(345,54,o),
(386,119,o),
(421,210,c),
(451,210,l),
(402,82,o),
(324,-8,o),
(263,-8,cs),
(220,-8,o),
(211,51,o),
(242,135,cs),
(211,52,o),
(288,250,o),
(382,500,c)
);
},
{
closed = 1;
nodes = (
(89,-10,o),
(183,73,o),
(293,190,c),
(276,208,l),
(195,125,o),
(126,66,o),
(109,66,cs),
(83,66,o),
(82,115,o),
(107,184,cs),
(166,346,o),
(257,460,o),
(326,460,cs),
(335,460,o),
(359,446,o),
(386,427,c),
(424,476,l),
(400,495,o),
(371,508,o),
(354,508,cs),
(232,508,o),
(91,361,o),
(15,152,cs),
(-19,57,o),
(2,-10,o),
(66,-10,cs)
);
}
);
width = 467;
}
);
metricLeft = o;
unicode = 97;
},
{
glyphname = b;
lastChange = "2025-04-24 18:07:01 +0000";
layers = (
{
anchors = (
{
name = bottom;
pos = (160,0);
},
{
name = center;
pos = (171,510);
},
{
name = top;
pos = (254,402);
}
);
background = {
shapes = (
{
closed = 1;
nodes = (
(211,-15,o),
(323,91,o),
(364,241,cs),
(390,336,o),
(360,404,o),
(292,404,cs),
(221,404,o),
(143,373,o),
(103,330,c),
(106,285,l),
(137,324,o),
(198,352,o),
(254,352,cs),
(293,352,o),
(305,294,o),
(283,212,cs),
(255,101,o),
(189,23,o),
(124,23,cs),
(91,23,o),
(78,59,o),
(93,110,cs),
(144,303,o),
(210,526,o),
(252,647,c),
(72,635,l),
(68,606,l),
(117,609,o),
(137,608,o),
(146,593,cs),
(153,582,o),
(145,563,o),
(135,525,cs),
(13,82,ls),
(-3,25,o),
(30,-15,o),
(93,-15,cs)
);
}
);
};
layerId = m003;
shapes = (
{
closed = 1;
nodes = (
(165,-8,o),
(124,26,o),
(115,27,cs),
(87,29,o),
(72,45,o),
(82,85,c),
(102,151,o),
(130,242,o),
(150,308,cs),
(173,385,o),
(196,461,o),
(219,538,c),
(233,589,o),
(246,624,o),
(253,648,c),
(211,641,o),
(151,636,o),
(109,636,c),
(102,611,l),
(125,609,o),
(147,599,o),
(155,587,cs),
(161,579,o),
(159,552,o),
(150,521,c),
(130,455,o),
(110,389,o),
(90,323,cs),
(66,245,o),
(37,160,o),
(13,82,c),
(3,45,o),
(46,-8,o),
(128,-8,cs)
);
},
{
closed = 1;
nodes = (
(124,323,l),
(163,352,o),
(187,373,o),
(230,373,cs),
(286,373,o),
(320,309,o),
(294,214,cs),
(264,104,o),
(188,27,o),
(115,27,cs),
(98,27,o),
(97,-8,o),
(128,-8,cs),
(232,-8,o),
(335,93,o),
(372,236,cs),
(399,339,o),
(350,412,o),
(268,412,cs),
(210,412,o),
(174,388,o),
(124,355,c)
);
}
);
width = 398;
},
{
anchors = (
{
name = bottom;
pos = (160,0);
},
{
name = center;
pos = (171,510);
},
{
name = top;
pos = (254,402);
}
);
background = {
shapes = (
{
closed = 1;
nodes = (
(211,-15,o),
(323,91,o),
(364,241,cs),
(390,336,o),
(360,404,o),
(292,404,cs),
(221,404,o),
(143,373,o),
(103,330,c),
(106,285,l),
(137,324,o),
(198,352,o),
(254,352,cs),
(293,352,o),
(305,294,o),
(283,212,cs),
(255,101,o),
(189,23,o),
(124,23,cs),
(91,23,o),
(78,59,o),
(93,110,cs),
(144,303,o),
(210,526,o),
(252,647,c),
(72,635,l),
(68,606,l),
(117,609,o),
(137,608,o),
(146,593,cs),
(153,582,o),
(145,563,o),
(135,525,cs),
(13,82,ls),
(-3,25,o),
(30,-15,o),
(93,-15,cs)
);
}
);
};
layerId = m005;
shapes = (
{
closed = 1;
nodes = (
(165,-8,o),
(124,26,o),
(115,27,cs),
(87,29,o),
(72,45,o),
(82,85,c),
(102,151,o),
(130,242,o),
(150,308,cs),
(173,385,o),
(196,461,o),
(219,538,c),
(233,589,o),
(246,624,o),
(253,648,c),
(211,641,o),
(151,636,o),
(109,636,c),
(102,611,l),
(125,609,o),
(147,599,o),
(155,587,cs),
(161,579,o),
(159,552,o),
(150,521,c),
(130,455,o),
(110,389,o),
(90,323,cs),
(66,245,o),
(37,160,o),
(13,82,c),
(3,45,o),
(46,-8,o),
(128,-8,cs)
);
},
{
closed = 1;
nodes = (
(124,323,l),
(163,352,o),
(207,373,o),
(230,373,cs),
(286,373,o),
(310,309,o),
(283,214,cs),
(254,104,o),
(188,27,o),
(115,27,cs),
(98,27,o),
(97,-8,o),
(128,-8,cs),
(232,-8,o),
(325,93,o),
(362,236,cs),
(389,339,o),
(350,412,o),
(268,412,cs),
(230,412,o),
(174,388,o),
(124,355,c)
);
}
);
width = 388;
},
{
anchors = (
{
name = bottom;
pos = (160,0);
},
{
name = center;
pos = (171,510);
},
{
name = top;
pos = (254,402);
}
);
background = {
shapes = (
{
closed = 1;
nodes = (
(211,-15,o),
(323,91,o),
(364,241,cs),
(390,336,o),
(360,404,o),
(292,404,cs),
(221,404,o),
(143,373,o),
(103,330,c),
(106,285,l),
(137,324,o),
(198,352,o),
(254,352,cs),
(293,352,o),
(305,294,o),
(283,212,cs),
(255,101,o),
(189,23,o),
(124,23,cs),
(91,23,o),
(78,59,o),
(93,110,cs),
(144,303,o),
(210,526,o),
(252,647,c),
(72,635,l),
(68,606,l),
(117,609,o),
(137,608,o),
(146,593,cs),
(153,582,o),
(145,563,o),
(135,525,cs),
(13,82,ls),
(-3,25,o),
(30,-15,o),
(93,-15,cs)
);
}
);
};
layerId = m006;
shapes = (
{
closed = 1;
nodes = (
(183,-8,o),
(142,26,o),
(133,27,cs),
(105,29,o),
(72,45,o),
(82,85,c),
(102,151,o),
(130,242,o),
(150,308,cs),
(173,385,o),
(196,461,o),
(219,538,c),
(233,589,o),
(246,624,o),
(253,648,c),
(211,641,o),
(151,636,o),
(109,636,c),
(102,611,l),
(125,609,o),
(147,599,o),
(155,587,cs),
(161,579,o),
(159,552,o),
(150,521,c),
(130,455,o),
(110,389,o),
(90,323,cs),
(66,245,o),
(37,160,o),
(13,82,c),
(3,45,o),
(64,-8,o),
(146,-8,cs)
);
},
{
closed = 1;
nodes = (
(124,323,l),
(163,352,o),
(215,373,o),
(248,373,cs),
(311,373,o),
(337,307,o),
(311,214,cs),
(282,104,o),
(208,27,o),
(133,27,cs),
(116,27,o),
(115,-8,o),
(146,-8,cs),
(252,-8,o),
(353,93,o),
(390,236,cs),
(417,339,o),
(374,412,o),
(286,412,cs),
(242,412,o),
(175,388,o),
(124,355,c)
);
}
);
width = 416;
},
{
anchors = (
{
name = bottom;
pos = (160,0);
},
{
name = center;
pos = (171,510);
},
{
name = top;
pos = (254,402);
}
);
background = {
shapes = (
{
closed = 1;
nodes = (
(211,-15,o),
(323,91,o),
(364,241,cs),
(390,336,o),
(360,404,o),
(292,404,cs),
(221,404,o),
(143,373,o),
(103,330,c),
(106,285,l),
(137,324,o),
(198,352,o),
(254,352,cs),
(293,352,o),
(305,294,o),
(283,212,cs),
(255,101,o),
(189,23,o),
(124,23,cs),
(91,23,o),
(78,59,o),
(93,110,cs),
(144,303,o),
(210,526,o),
(252,647,c),
(72,635,l),
(68,606,l),
(117,609,o),
(137,608,o),
(146,593,cs),
(153,582,o),
(145,563,o),
(135,525,cs),
(13,82,ls),
(-3,25,o),
(30,-15,o),
(93,-15,cs)
);
}
);
};
layerId = m004;
shapes = (
{
closed = 1;
nodes = (
(157,-8,o),
(116,26,o),
(107,27,cs),
(84,29,o),
(74,53,o),
(82,85,c),
(102,151,o),
(130,242,o),
(150,308,cs),
(173,385,o),
(196,461,o),
(219,538,c),
(233,589,o),
(246,624,o),
(253,648,c),
(211,641,o),
(151,636,o),
(109,636,c),
(102,611,l),
(125,609,o),
(147,599,o),
(155,587,cs),
(161,579,o),
(159,552,o),
(150,521,c),
(130,455,o),
(110,389,o),
(90,323,cs),
(66,245,o),
(37,160,o),
(13,82,c),
(-1,29,o),
(43,-8,o),
(120,-8,cs)
);
},
{
closed = 1;
nodes = (
(124,323,l),
(163,352,o),
(204,373,o),
(222,373,cs),
(274,373,o),
(291,307,o),
(265,214,cs),
(236,104,o),
(171,27,o),
(107,27,cs),
(90,27,o),
(89,-8,o),
(120,-8,cs),
(214,-8,o),
(307,93,o),
(344,236,cs),
(371,339,o),
(336,412,o),
(260,412,cs),
(231,412,o),
(175,388,o),
(124,355,c)
);
}
);
width = 370;
}
);
metricLeft = l;
metricRight = o;
unicode = 98;
},
{
glyphname = c;
lastChange = "2025-04-24 18:06:38 +0000";
layers = (
{
anchors = (
{
name = bottom;
pos = (123,0);
},
{
name = top;
pos = (217,402);
}
);
background = {
shapes = (
{
closed = 1;
nodes = (
(179,-8,o),
(265,32,o),
(305,95,c),
(288,109,l),
(253,73,o),
(199,41,o),
(156,41,cs),
(101,41,o),
(82,119,o),
(110,224,cs),
(132,308,o),
(183,381,o),
(220,381,cs),
(245,381,o),
(254,343,o),
(244,308,cs),
(228,251,o),
(161,192,o),
(80,183,c),
(77,157,l),
(197,169,o),
(298,238,o),
(321,322,cs),
(333,375,o),
(311,413,o),
(253,413,cs),
(165,413,o),
(68,325,o),
(35,201,cs),
(2,79,o),
(28,-8,o),
(114,-8,cs)
);
}
);
};
layerId = m003;
shapes = (
{
closed = 1;
nodes = (
(188,-8,o),
(247,35,o),
(285,95,c),
(268,109,l),
(230,70,o),
(192,42,o),
(151,42,cs),
(97,42,o),
(75,117,o),
(104,224,cs),
(131,319,o),
(186,387,o),
(228,387,cs),
(263,387,o),
(276,348,o),
(259,294,c),
(258,283,o),
(263,275,o),
(271,275,cs),
(302,275,o),
(329,292,o),
(336,316,cs),
(350,373,o),
(310,414,o),
(240,414,cs),
(154,414,o),
(69,326,o),
(35,201,cs),
(2,79,o),
(35,-8,o),
(114,-8,cs)
);
}
);
width = 343;
},
{
anchors = (
{
name = bottom;
pos = (123,0);
},
{
name = top;
pos = (217,402);
}
);
background = {
shapes = (
{
closed = 1;
nodes = (
(179,-8,o),
(265,32,o),
(305,95,c),
(288,109,l),
(253,73,o),
(199,41,o),
(156,41,cs),
(101,41,o),
(82,119,o),
(110,224,cs),
(132,308,o),
(183,381,o),
(220,381,cs),
(245,381,o),
(254,343,o),
(244,308,cs),
(228,251,o),
(161,192,o),
(80,183,c),
(77,157,l),
(197,169,o),
(298,238,o),
(321,322,cs),
(333,375,o),
(311,413,o),
(253,413,cs),
(165,413,o),
(68,325,o),
(35,201,cs),
(2,79,o),
(28,-8,o),
(114,-8,cs)
);
}
);
};
layerId = m005;
shapes = (
{
closed = 1;
nodes = (
(188,-8,o),
(247,35,o),
(285,95,c),
(268,109,l),
(230,70,o),
(192,42,o),
(151,42,cs),
(97,42,o),
(75,117,o),
(104,224,cs),
(131,319,o),
(186,387,o),
(228,387,cs),
(263,387,o),
(276,348,o),
(259,294,c),
(258,283,o),
(263,275,o),
(271,275,cs),
(302,275,o),
(329,292,o),
(336,316,cs),
(350,373,o),
(310,414,o),
(240,414,cs),
(154,414,o),
(69,326,o),
(35,201,cs),
(2,79,o),
(35,-8,o),
(114,-8,cs)
);
}
);
width = 343;
},
{
anchors = (
{
name = bottom;
pos = (123,0);
},
{
name = top;
pos = (217,402);
}
);
background = {
shapes = (
{
closed = 1;
nodes = (
(179,-8,o),
(265,32,o),
(305,95,c),
(288,109,l),
(253,73,o),
(199,41,o),
(156,41,cs),
(101,41,o),
(82,119,o),
(110,224,cs),
(132,308,o),
(183,381,o),
(220,381,cs),
(245,381,o),
(254,343,o),
(244,308,cs),
(228,251,o),
(161,192,o),
(80,183,c),
(77,157,l),
(197,169,o),
(298,238,o),
(321,322,cs),
(333,375,o),
(311,413,o),
(253,413,cs),
(165,413,o),
(68,325,o),
(35,201,cs),
(2,79,o),
(28,-8,o),
(114,-8,cs)
);
}
);
};
layerId = m006;
shapes = (
{
closed = 1;
nodes = (
(191,-8,o),
(265,35,o),
(303,95,c),
(286,109,l),
(248,70,o),
(196,42,o),
(161,42,cs),
(99,42,o),
(75,117,o),
(104,224,cs),
(131,319,o),
(187,387,o),
(238,387,cs),
(278,387,o),
(294,348,o),
(277,294,c),
(276,283,o),
(281,275,o),
(289,275,cs),
(320,275,o),
(347,292,o),
(354,316,cs),
(368,373,o),
(325,414,o),
(250,414,cs),
(158,414,o),
(69,326,o),
(35,201,cs),
(2,79,o),
(39,-8,o),
(124,-8,cs)
);
}
);
width = 361;
},
{
anchors = (
{
name = bottom;
pos = (123,0);
},
{
name = top;
pos = (217,402);
}
);
background = {
shapes = (
{
closed = 1;
nodes = (
(179,-8,o),
(265,32,o),
(305,95,c),
(288,109,l),
(253,73,o),
(199,41,o),
(156,41,cs),
(101,41,o),
(82,119,o),
(110,224,cs),
(132,308,o),
(183,381,o),
(220,381,cs),
(245,381,o),
(254,343,o),
(244,308,cs),
(228,251,o),
(161,192,o),
(80,183,c),
(77,157,l),
(197,169,o),
(298,238,o),
(321,322,cs),
(333,375,o),
(311,413,o),
(253,413,cs),
(165,413,o),
(68,325,o),
(35,201,cs),
(2,79,o),
(28,-8,o),
(114,-8,cs)
);
}
);
};
layerId = m004;
shapes = (
{
closed = 1;
nodes = (
(161,-8,o),
(229,35,o),
(267,95,c),
(250,109,l),
(212,70,o),
(167,42,o),
(141,42,cs),
(90,42,o),
(75,117,o),
(104,224,cs),
(131,319,o),
(178,387,o),
(218,387,cs),
(249,387,o),
(258,348,o),
(241,294,c),
(240,283,o),
(245,275,o),
(253,275,cs),
(284,275,o),
(311,292,o),
(318,316,cs),
(332,373,o),
(296,414,o),
(230,414,cs),
(150,414,o),
(69,326,o),
(35,201,cs),
(2,79,o),
(30,-8,o),
(104,-8,cs)
);
}
);
width = 325;
}
);
metricLeft = o;
metricRight = o;
unicode = 99;
},
{
glyphname = d;
lastChange = "2025-04-24 18:07:01 +0000";
layers = (
{
anchors = (
{
name = bottom;
pos = (143,0);
},
{
name = center;
pos = (388,510);
},
{
name = ogonek;
pos = (325,10);
},
{
name = top;
pos = (284,401);
},
{
name = topright;
pos = (506,637);
}
);
background = {
shapes = (
{
closed = 1;
nodes = (
(312,-14,o),
(380,25,o),
(408,79,c),
(387,97,l),
(364,62,o),
(331,38,o),
(307,38,cs),
(294,38,o),
(291,64,o),
(302,105,cs),
(331,216,o),
(389,429,o),
(419,540,cs),
(426,565,o),
(442,616,o),
(459,660,c),
(426,644,o),
(337,633,o),
(256,633,c),
(252,604,l),
(316,607,o),
(355,597,o),
(350,580,c),
(350,564,o),
(344,541,o),
(340,523,cs),
(320,448,o),
(301,375,o),
(283,309,cs),
(249,177,o),
(223,79,o),
(223,72,cs),
(214,23,o),
(224,-14,o),
(248,-14,cs)
);
},
{
closed = 1;
nodes = (
(128,-15,o),
(231,71,o),
(293,191,c),
(289,242,l),
(232,132,o),
(148,45,o),
(105,45,cs),
(82,45,o),
(81,122,o),
(105,197,cs),
(139,304,o),
(204,377,o),
(265,377,cs),
(280,377,o),
(308,361,o),
(327,348,c),
(360,397,l),
(340,407,o),
(311,409,o),
(293,409,cs),
(180,409,o),
(65,310,o),
(21,170,cs),
(-7,81,o),
(8,-15,o),
(63,-15,cs)
);
},
{
closed = 1;
nodes = (
(328,-14,o),
(396,25,o),
(424,79,c),
(403,97,l),
(380,62,o),
(347,38,o),
(323,38,cs),
(310,38,o),
(307,64,o),
(318,105,cs),
(347,216,o),
(405,429,o),
(435,540,cs),
(442,565,o),
(458,616,o),
(470,645,c),
(294,633,l),
(290,604,l),
(336,607,o),
(352,605,o),
(362,592,cs),
(371,581,o),
(365,561,o),
(356,523,c),
(299,309,l),
(265,177,o),
(239,79,o),
(239,72,cs),
(230,23,o),
(240,-14,o),
(264,-14,cs)
);
},
{
closed = 1;
nodes = (
(125,-15,o),
(227,71,o),
(288,191,c),
(282,242,l),
(228,132,o),
(146,45,o),
(103,45,cs),
(80,45,o),
(80,93,o),
(99,167,cs),
(127,274,o),
(205,370,o),
(266,370,cs),
(286,370,o),
(308,359,o),
(328,341,c),
(359,390,l),
(339,400,o),
(309,402,o),
(291,402,cs),
(178,402,o),
(57,280,o),
(19,140,cs),
(-5,51,o),
(5,-15,o),
(60,-15,cs)
);
}
);
};
layerId = m003;
shapes = (
{
closed = 1;
nodes = (
(130,-10,o),
(208,53,o),
(286,208,c),
(276,249,l),
(218,132,o),
(142,46,o),
(101,46,cs),
(73,46,o),
(68,96,o),
(83,155,cs),
(117,283,o),
(189,363,o),
(253,363,cs),
(274,363,o),
(295,355,o),
(305,333,c),
(332,388,l),
(316,396,o),
(293,402,o),
(278,402,cs),
(169,402,o),
(60,286,o),
(14,121,cs),
(-7,44,o),
(14,-10,o),
(65,-10,cs)
);
},
{
closed = 1;
nodes = (
(289,-6,o),
(350,39,o),
(400,106,c),
(381,124,l),
(347,87,o),
(318,56,o),
(308,56,cs),
(297,56,o),
(296,95,o),
(309,152,cs),
(313,170,o),
(317,195,o),
(324,217,cs),
(350,308,l),
(419,538,ls),
(434,589,o),
(447,624,o),
(454,648,c),
(406,640,o),
(353,636,o),
(305,636,c),
(298,611,l),
(336,608,o),
(351,606,o),
(358,595,cs),
(363,589,o),
(361,574,o),
(347,521,cs),
(329,455,o),
(320,414,o),
(299,348,cs),
(278,281,l),
(256,201,ls),
(222,78,o),
(215,-6,o),
(256,-6,cs)
);
}
);
width = 410;
},
{
associatedMasterId = m003;
layerId = "993377BE-703F-43F0-9103-9C55914F64D0";
name = "7. Nov. 24, 00:11";
shapes = (
{
closed = 1;
nodes = (
(98,-3,o),
(197,77,o),
(303,190,c),
(286,208,l),
(216,136,o),
(150,85,o),
(127,85,cs),
(108,85,o),
(107,127,o),
(125,186,cs),
(175,348,o),
(261,463,o),
(334,463,cs),
(348,463,o),
(373,451,o),
(396,435,c),
(434,484,l),
(412,501,o),
(382,513,o),
(362,513,cs),
(230,513,o),
(91,363,o),
(26,152,cs),
(-2,61,o),
(14,-3,o),
(63,-3,cs)
);
},
{
closed = 1;
nodes = (
(326,-6,o),
(410,88,o),
(463,220,c),
(433,220,l),
(402,142,o),
(359,87,o),
(330,87,cs),
(318,87,o),
(325,128,o),
(347,187,cs),
(369,248,o),
(481,573,o),
(531,701,c),
(456,701,l),
(255,145,l),
(222,57,o),
(225,-6,o),
(262,-6,cs)
);
},
{
closed = 1;
nodes = (
(336,648,l),
(391,651,o),
(437,635,o),
(447,610,c),
(456,701,l),
(342,702,l)
);
}
);
width = 463;
},
{
anchors = (
{
name = bottom;
pos = (143,0);
},
{
name = center;
pos = (388,510);
},
{
name = ogonek;
pos = (325,10);
},
{
name = top;
pos = (284,401);
},
{
name = topright;
pos = (506,637);
}
);
background = {
shapes = (
{
closed = 1;
nodes = (
(312,-14,o),
(380,25,o),
(408,79,c),
(387,97,l),
(364,62,o),
(331,38,o),
(307,38,cs),
(294,38,o),
(291,64,o),
(302,105,cs),
(331,216,o),
(389,429,o),
(419,540,cs),
(426,565,o),
(442,616,o),
(459,660,c),
(426,644,o),
(337,633,o),
(256,633,c),
(252,604,l),
(316,607,o),
(355,597,o),
(350,580,c),
(350,564,o),
(344,541,o),
(340,523,cs),
(320,448,o),
(301,375,o),
(283,309,cs),
(249,177,o),
(223,79,o),
(223,72,cs),
(214,23,o),
(224,-14,o),
(248,-14,cs)
);
},
{
closed = 1;
nodes = (
(128,-15,o),
(231,71,o),
(293,191,c),
(289,242,l),
(232,132,o),
(148,45,o),
(105,45,cs),
(82,45,o),
(81,122,o),
(105,197,cs),
(139,304,o),
(204,377,o),
(265,377,cs),
(280,377,o),
(308,361,o),
(327,348,c),
(360,397,l),
(340,407,o),
(311,409,o),
(293,409,cs),
(180,409,o),
(65,310,o),
(21,170,cs),
(-7,81,o),
(8,-15,o),
(63,-15,cs)
);
},
{
closed = 1;
nodes = (
(328,-14,o),
(396,25,o),
(424,79,c),
(403,97,l),
(380,62,o),
(347,38,o),
(323,38,cs),
(310,38,o),
(307,64,o),
(318,105,cs),
(347,216,o),
(405,429,o),
(435,540,cs),
(442,565,o),
(458,616,o),
(470,645,c),
(294,633,l),
(290,604,l),
(336,607,o),
(352,605,o),
(362,592,cs),
(371,581,o),
(365,561,o),
(356,523,c),
(299,309,l),
(265,177,o),
(239,79,o),
(239,72,cs),
(230,23,o),
(240,-14,o),
(264,-14,cs)
);
},
{
closed = 1;
nodes = (
(125,-15,o),
(227,71,o),
(288,191,c),
(282,242,l),
(228,132,o),
(146,45,o),
(103,45,cs),
(80,45,o),
(80,93,o),
(99,167,cs),
(127,274,o),
(205,370,o),
(266,370,cs),
(286,370,o),
(308,359,o),
(328,341,c),
(359,390,l),
(339,400,o),
(309,402,o),
(291,402,cs),
(178,402,o),
(57,280,o),
(19,140,cs),
(-5,51,o),
(5,-15,o),
(60,-15,cs)
);
}
);
};
layerId = m005;
shapes = (
{
closed = 1;
nodes = (
(130,-10,o),
(208,53,o),
(286,208,c),
(276,249,l),
(218,132,o),
(142,46,o),
(101,46,cs),
(73,46,o),
(68,96,o),
(83,155,cs),
(117,283,o),
(189,363,o),
(253,363,cs),
(274,363,o),
(295,355,o),
(305,333,c),
(332,388,l),
(316,396,o),
(293,402,o),
(278,402,cs),
(169,402,o),
(60,286,o),
(14,121,cs),
(-7,44,o),
(14,-10,o),
(65,-10,cs)
);
},
{
closed = 1;
nodes = (
(289,-6,o),
(350,39,o),
(400,106,c),
(381,124,l),
(347,87,o),
(318,56,o),
(308,56,cs),
(297,56,o),
(296,95,o),
(309,152,cs),
(313,170,o),
(317,195,o),
(324,217,cs),
(350,308,l),
(419,538,ls),
(434,589,o),
(447,624,o),
(454,648,c),
(406,640,o),
(353,636,o),
(305,636,c),
(298,611,l),
(336,608,o),
(351,606,o),
(358,595,cs),
(363,589,o),
(361,574,o),
(347,521,cs),
(329,455,o),
(320,414,o),
(299,348,cs),
(278,281,l),
(256,201,ls),
(222,78,o),
(215,-6,o),
(256,-6,cs)
);
}
);
width = 410;
},
{
associatedMasterId = m005;
layerId = "8F12F315-3FA8-4014-9178-3FE9C846B860";
name = "7. Nov. 24, 00:11";
shapes = (
{
closed = 1;
nodes = (
(98,-3,o),
(197,77,o),
(303,190,c),
(286,208,l),
(216,136,o),
(150,85,o),
(127,85,cs),
(108,85,o),
(107,127,o),
(125,186,cs),
(175,348,o),
(261,463,o),
(334,463,cs),
(348,463,o),
(373,451,o),
(396,435,c),
(434,484,l),
(412,501,o),
(382,513,o),
(362,513,cs),
(230,513,o),
(91,363,o),
(26,152,cs),
(-2,61,o),
(14,-3,o),
(63,-3,cs)
);
},
{
closed = 1;
nodes = (
(326,-6,o),
(410,88,o),
(463,220,c),
(433,220,l),
(402,142,o),
(359,87,o),
(330,87,cs),
(318,87,o),
(325,128,o),
(347,187,cs),
(369,248,o),
(481,573,o),
(531,701,c),
(456,701,l),
(255,145,l),
(222,57,o),
(225,-6,o),
(262,-6,cs)
);
},
{
closed = 1;
nodes = (
(336,648,l),
(391,651,o),
(437,635,o),
(447,610,c),
(456,701,l),
(342,702,l)
);
}
);
width = 463;
},
{
anchors = (
{
name = bottom;
pos = (143,0);
},
{
name = center;
pos = (388,510);
},
{
name = ogonek;
pos = (325,10);
},
{
name = top;
pos = (284,401);
},
{
name = topright;
pos = (506,637);
}
);
background = {
shapes = (
{
closed = 1;
nodes = (
(312,-14,o),
(380,25,o),
(408,79,c),
(387,97,l),
(364,62,o),
(331,38,o),
(307,38,cs),
(294,38,o),
(291,64,o),
(302,105,cs),
(331,216,o),
(389,429,o),
(419,540,cs),
(426,565,o),
(442,616,o),
(459,660,c),
(426,644,o),
(337,633,o),
(256,633,c),
(252,604,l),
(316,607,o),
(355,597,o),
(350,580,c),
(350,564,o),
(344,541,o),
(340,523,cs),
(320,448,o),
(301,375,o),
(283,309,cs),
(249,177,o),
(223,79,o),
(223,72,cs),
(214,23,o),
(224,-14,o),
(248,-14,cs)
);
},
{
closed = 1;
nodes = (
(128,-15,o),
(231,71,o),
(293,191,c),
(289,242,l),
(232,132,o),
(148,45,o),
(105,45,cs),
(82,45,o),
(81,122,o),
(105,197,cs),
(139,304,o),
(204,377,o),
(265,377,cs),
(280,377,o),
(308,361,o),
(327,348,c),
(360,397,l),
(340,407,o),
(311,409,o),
(293,409,cs),
(180,409,o),
(65,310,o),
(21,170,cs),
(-7,81,o),
(8,-15,o),
(63,-15,cs)
);
},
{
closed = 1;
nodes = (
(328,-14,o),
(396,25,o),
(424,79,c),
(403,97,l),
(380,62,o),
(347,38,o),
(323,38,cs),
(310,38,o),
(307,64,o),
(318,105,cs),
(347,216,o),
(405,429,o),
(435,540,cs),
(442,565,o),
(458,616,o),
(470,645,c),
(294,633,l),
(290,604,l),
(336,607,o),
(352,605,o),
(362,592,cs),
(371,581,o),
(365,561,o),
(356,523,c),
(299,309,l),
(265,177,o),
(239,79,o),
(239,72,cs),
(230,23,o),
(240,-14,o),
(264,-14,cs)
);
},
{
closed = 1;
nodes = (
(125,-15,o),
(227,71,o),
(288,191,c),
(282,242,l),
(228,132,o),
(146,45,o),
(103,45,cs),
(80,45,o),
(80,93,o),
(99,167,cs),
(127,274,o),
(205,370,o),
(266,370,cs),
(286,370,o),
(308,359,o),
(328,341,c),
(359,390,l),
(339,400,o),
(309,402,o),
(291,402,cs),
(178,402,o),
(57,280,o),
(19,140,cs),
(-5,51,o),
(5,-15,o),
(60,-15,cs)
);
}
);
};
layerId = m006;
shapes = (
{
closed = 1;
nodes = (
(130,-10,o),
(228,53,o),
(306,208,c),
(296,249,l),
(238,132,o),
(142,46,o),
(101,46,cs),
(73,46,o),
(68,96,o),
(83,155,cs),
(117,283,o),
(189,363,o),
(253,363,cs),
(274,363,o),
(305,355,o),
(315,333,c),
(342,388,l),
(326,396,o),
(293,402,o),
(278,402,cs),
(169,402,o),
(60,286,o),
(14,121,cs),
(-7,44,o),
(14,-10,o),
(65,-10,cs)
);
},
{
closed = 1;
nodes = (
(307,-6,o),
(368,39,o),
(418,106,c),
(399,124,l),
(365,87,o),
(336,56,o),
(326,56,cs),
(315,56,o),
(314,95,o),
(327,152,cs),
(331,170,o),
(335,195,o),
(342,217,cs),
(368,308,l),
(437,538,ls),
(452,589,o),
(465,624,o),
(472,648,c),
(424,640,o),
(371,636,o),
(323,636,c),
(316,611,l),
(354,608,o),
(369,606,o),
(376,595,cs),
(381,589,o),
(379,574,o),
(365,521,cs),
(347,455,o),
(338,414,o),
(317,348,cs),
(296,281,l),
(274,201,ls),
(240,78,o),
(233,-6,o),
(274,-6,cs)
);
}
);
width = 428;
},
{
associatedMasterId = m006;
layerId = "0A9920ED-9701-49CA-8FBB-23AE6CF1244F";
name = "7. Nov. 24, 00:11";
shapes = (
{
closed = 1;
nodes = (
(98,-3,o),
(197,77,o),
(303,190,c),
(286,208,l),
(216,136,o),
(150,85,o),
(127,85,cs),
(108,85,o),
(107,127,o),
(125,186,cs),
(175,348,o),
(261,463,o),
(334,463,cs),
(348,463,o),
(373,451,o),
(396,435,c),
(434,484,l),
(412,501,o),
(382,513,o),
(362,513,cs),
(230,513,o),
(91,363,o),
(26,152,cs),
(-2,61,o),
(14,-3,o),
(63,-3,cs)
);
},
{
closed = 1;
nodes = (
(326,-6,o),
(410,88,o),
(463,220,c),
(433,220,l),
(402,142,o),
(359,87,o),
(330,87,cs),
(318,87,o),
(325,128,o),
(347,187,cs),
(369,248,o),
(481,573,o),
(531,701,c),
(456,701,l),
(255,145,l),
(222,57,o),
(225,-6,o),
(262,-6,cs)
);
},
{
closed = 1;
nodes = (
(336,648,l),
(391,651,o),
(437,635,o),
(447,610,c),
(456,701,l),
(342,702,l)
);
}
);
width = 463;
},
{
anchors = (
{
name = bottom;
pos = (143,0);
},
{
name = center;
pos = (388,510);
},
{
name = ogonek;
pos = (325,10);
},
{
name = top;
pos = (284,401);
},
{
name = topright;
pos = (506,637);
}
);
background = {
shapes = (
{
closed = 1;
nodes = (
(312,-14,o),
(380,25,o),
(408,79,c),
(387,97,l),
(364,62,o),
(331,38,o),
(307,38,cs),
(294,38,o),
(291,64,o),
(302,105,cs),
(331,216,o),
(389,429,o),
(419,540,cs),
(426,565,o),
(442,616,o),
(459,660,c),
(426,644,o),
(337,633,o),
(256,633,c),
(252,604,l),
(316,607,o),
(355,597,o),
(350,580,c),
(350,564,o),
(344,541,o),
(340,523,cs),
(320,448,o),
(301,375,o),
(283,309,cs),
(249,177,o),
(223,79,o),
(223,72,cs),
(214,23,o),
(224,-14,o),
(248,-14,cs)
);
},
{
closed = 1;
nodes = (
(128,-15,o),
(231,71,o),
(293,191,c),
(289,242,l),
(232,132,o),
(148,45,o),
(105,45,cs),
(82,45,o),
(81,122,o),
(105,197,cs),
(139,304,o),
(204,377,o),
(265,377,cs),
(280,377,o),
(308,361,o),
(327,348,c),
(360,397,l),
(340,407,o),
(311,409,o),
(293,409,cs),
(180,409,o),
(65,310,o),
(21,170,cs),
(-7,81,o),
(8,-15,o),
(63,-15,cs)
);
},
{
closed = 1;
nodes = (
(328,-14,o),
(396,25,o),
(424,79,c),
(403,97,l),
(380,62,o),
(347,38,o),
(323,38,cs),
(310,38,o),
(307,64,o),
(318,105,cs),
(347,216,o),
(405,429,o),
(435,540,cs),
(442,565,o),
(458,616,o),
(470,645,c),
(294,633,l),
(290,604,l),
(336,607,o),
(352,605,o),
(362,592,cs),
(371,581,o),
(365,561,o),
(356,523,c),
(299,309,l),
(265,177,o),
(239,79,o),
(239,72,cs),
(230,23,o),
(240,-14,o),
(264,-14,cs)
);
},
{
closed = 1;
nodes = (
(125,-15,o),
(227,71,o),
(288,191,c),
(282,242,l),
(228,132,o),
(146,45,o),
(103,45,cs),
(80,45,o),
(80,93,o),
(99,167,cs),
(127,274,o),
(205,370,o),
(266,370,cs),
(286,370,o),
(308,359,o),
(328,341,c),
(359,390,l),
(339,400,o),
(309,402,o),
(291,402,cs),
(178,402,o),
(57,280,o),
(19,140,cs),
(-5,51,o),
(5,-15,o),
(60,-15,cs)
);
}
);
};
layerId = m004;
shapes = (
{
closed = 1;
nodes = (
(130,-10,o),
(198,53,o),
(276,208,c),
(266,249,l),
(208,132,o),
(142,46,o),
(101,46,cs),
(73,46,o),
(68,96,o),
(83,155,cs),
(117,283,o),
(189,363,o),
(253,363,cs),
(274,363,o),
(285,355,o),
(295,333,c),
(322,388,l),
(306,396,o),
(293,402,o),
(278,402,cs),
(169,402,o),
(60,286,o),
(14,121,cs),
(-7,44,o),
(14,-10,o),
(65,-10,cs)
);
},
{
closed = 1;
nodes = (
(271,-6,o),
(332,39,o),
(382,106,c),
(363,124,l),
(329,87,o),
(300,56,o),
(290,56,cs),
(279,56,o),
(278,95,o),
(291,152,cs),
(295,170,o),
(299,195,o),
(306,217,cs),
(332,308,l),
(401,538,ls),
(416,589,o),
(429,624,o),
(436,648,c),
(388,640,o),
(335,636,o),
(287,636,c),
(280,611,l),
(318,608,o),
(333,606,o),
(340,595,cs),
(345,589,o),
(343,574,o),
(329,521,cs),
(311,455,o),
(302,414,o),
(281,348,cs),
(260,281,l),
(238,201,ls),
(204,78,o),
(197,-6,o),
(238,-6,cs)
);
}
);
width = 392;
},
{
associatedMasterId = m004;
layerId = "BD39C059-D74C-4177-B5EC-2C9B3F4B4094";
name = "7. Nov. 24, 00:11";
shapes = (
{
closed = 1;
nodes = (
(98,-3,o),
(197,77,o),
(303,190,c),
(286,208,l),
(216,136,o),
(150,85,o),
(127,85,cs),
(108,85,o),
(107,127,o),
(125,186,cs),
(175,348,o),
(261,463,o),
(334,463,cs),
(348,463,o),
(373,451,o),
(396,435,c),
(434,484,l),
(412,501,o),
(382,513,o),
(362,513,cs),
(230,513,o),
(91,363,o),
(26,152,cs),
(-2,61,o),
(14,-3,o),
(63,-3,cs)
);
},
{
closed = 1;
nodes = (
(326,-6,o),
(410,88,o),
(463,220,c),
(433,220,l),
(402,142,o),
(359,87,o),
(330,87,cs),
(318,87,o),
(325,128,o),
(347,187,cs),
(369,248,o),
(481,573,o),
(531,701,c),
(456,701,l),
(255,145,l),
(222,57,o),
(225,-6,o),
(262,-6,cs)
);
},
{
closed = 1;
nodes = (
(336,648,l),
(391,651,o),
(437,635,o),
(447,610,c),
(456,701,l),
(342,702,l)
);
}
);
width = 463;
}
);
metricLeft = o;
metricRight = a;
metricWidth = a;
unicode = 100;
},
{
glyphname = e;
lastChange = "2025-04-24 18:06:38 +0000";
layers = (
{
anchors = (
{
name = bottom;
pos = (124,0);
},
{
name = ogonek;
pos = (272,10);
},
{
name = top;
pos = (218,402);
}
);
layerId = m003;
shapes = (
{
closed = 1;
nodes = (
(179,-8,o),
(245,32,o),
(285,95,c),
(268,109,l),
(233,73,o),
(188,39,o),
(145,39,cs),
(90,39,o),
(71,117,o),
(99,222,cs),
(121,306,o),
(188,379,o),
(225,379,cs),
(250,379,o),
(267,343,o),
(257,308,cs),
(241,251,o),
(161,194,o),
(80,185,c),
(77,157,l),
(197,169,o),
(298,238,o),
(321,322,cs),
(333,375,o),
(311,413,o),
(253,413,cs),
(165,413,o),
(68,325,o),
(35,201,cs),
(4,85,o),
(38,-8,o),
(114,-8,cs)
);
}
);
width = 338;
},
{
anchors = (
{
name = bottom;
pos = (124,0);
},
{
name = ogonek;
pos = (272,10);
},
{
name = top;
pos = (218,402);
}
);
layerId = m005;
shapes = (
{
closed = 1;
nodes = (
(179,-8,o),
(245,32,o),
(285,95,c),
(268,109,l),
(233,73,o),
(188,39,o),
(145,39,cs),
(90,39,o),
(71,117,o),
(99,222,cs),
(121,306,o),
(188,379,o),
(225,379,cs),
(250,379,o),
(267,343,o),
(257,308,cs),
(241,251,o),
(161,194,o),
(80,185,c),
(77,157,l),
(197,169,o),
(298,238,o),
(321,322,cs),
(333,375,o),
(311,413,o),
(253,413,cs),
(165,413,o),
(68,325,o),
(35,201,cs),
(4,85,o),
(38,-8,o),
(114,-8,cs)
);
}
);
width = 338;
},
{
anchors = (
{
name = bottom;
pos = (124,0);
},
{
name = ogonek;
pos = (272,10);
},
{
name = top;
pos = (218,402);
}
);
layerId = m006;
shapes = (
{
closed = 1;
nodes = (
(191,-8,o),
(265,35,o),
(303,95,c),
(286,109,l),
(246,68,o),
(192,39,o),
(155,39,cs),
(94,39,o),
(70,115,o),
(99,222,cs),
(123,314,o),
(179,379,o),
(235,379,cs),
(270,379,o),
(287,350,o),
(275,308,cs),
(258,247,o),
(177,196,o),
(80,185,c),
(77,157,l),
(208,170,o),
(316,238,o),
(339,322,cs),
(351,375,o),
(320,413,o),
(263,413,cs),
(163,413,o),
(68,325,o),
(35,201,cs),
(2,79,o),
(39,-8,o),
(124,-8,cs)
);
}
);
width = 356;
},
{
anchors = (
{
name = bottom;
pos = (124,0);
},
{
name = ogonek;
pos = (272,10);
},
{
name = top;
pos = (218,402);
}
);
layerId = m004;
shapes = (
{
closed = 1;
nodes = (
(161,-8,o),
(229,35,o),
(267,95,c),
(250,109,l),
(210,68,o),
(162,39,o),
(135,39,cs),
(85,39,o),
(70,115,o),
(99,222,cs),
(123,314,o),
(171,379,o),
(215,379,cs),
(241,379,o),
(251,350,o),
(239,308,cs),
(221,244,o),
(155,193,o),
(80,185,c),
(77,157,l),
(186,168,o),
(280,236,o),
(303,322,cs),
(315,375,o),
(290,413,o),
(243,413,cs),
(154,413,o),
(68,325,o),
(35,201,cs),
(2,79,o),
(31,-8,o),
(104,-8,cs)
);
}
);
width = 320;
}
);
unicode = 101;
},
{
glyphname = f;
lastChange = "2025-04-24 18:07:01 +0000";
layers = (
{
anchors = (
{
name = bottom;
pos = (101,0);
},
{
name = top;
pos = (295,637);
}
);
background = {
shapes = (
{
closed = 0;
nodes = (
(63,81,ls),
(52,33,o),
(23,-90,o),
(-19,-138,cs),
(-29,-150,o),
(-40,-157,o),
(-52,-157,cs),
(-71,-158,o),
(-68,-135,o),
(-87,-134,cs),
(-120,-134,o),
(-150,-163,o),
(-159,-205,cs),
(-163,-220,o),
(-148,-232,o),
(-122,-232,cs),
(-88,-232,o),
(-23,-190,o),
(1,-164,cs),
(64,-96,o),
(126,29,o),
(151,148,cs)
);
}
);
};
layerId = m003;
shapes = (
{
closed = 1;
nodes = (
(-113,-234,o),
(-62,-211,o),
(-27,-179,cs),
(59,-98,o),
(124,118,o),
(152,241,cs),
(169,323,o),
(188,414,o),
(214,498,cs),
(237,574,o),
(291,620,o),
(332,620,cs),
(376,620,o),
(395,581,o),
(383,542,cs),
(378,529,o),
(384,520,o),
(394,520,cs),
(425,520,o),
(454,538,o),
(460,561,cs),
(473,610,o),
(429,643,o),
(354,643,cs),
(253,643,o),
(159,559,o),
(131,434,cs),
(120,383,o),
(103,318,o),
(91,254,cs),
(70,149,o),
(18,-79,o),
(-37,-141,cs),
(-47,-153,o),
(-69,-165,o),
(-78,-165,cs),
(-86,-165,o),
(-89,-161,o),
(-94,-154,cs),
(-98,-148,o),
(-102,-142,o),
(-113,-142,cs),
(-145,-142,o),
(-168,-163,o),
(-177,-205,cs),
(-180,-220,o),
(-165,-234,o),
(-138,-234,cs)
);
},
{
closed = 1;
nodes = (
(258,357,l),
(278,406,l),
(98,402,l),
(11,382,l),
(7,369,l)
);
}
);
width = 250;
},
{
anchors = (
{
name = bottom;
pos = (101,0);
},
{
name = top;
pos = (295,637);
}
);
background = {
shapes = (
{
closed = 0;
nodes = (
(63,81,ls),
(52,33,o),
(23,-90,o),
(-19,-138,cs),
(-29,-150,o),
(-40,-157,o),
(-52,-157,cs),
(-71,-158,o),
(-68,-135,o),
(-87,-134,cs),
(-120,-134,o),
(-150,-163,o),
(-159,-205,cs),
(-163,-220,o),
(-148,-232,o),
(-122,-232,cs),
(-88,-232,o),
(-23,-190,o),
(1,-164,cs),
(64,-96,o),
(126,29,o),
(151,148,cs)
);
}
);
};
layerId = m005;
shapes = (
{
closed = 1;
nodes = (
(-113,-234,o),
(-62,-211,o),
(-27,-179,cs),
(59,-98,o),
(124,118,o),
(152,241,cs),
(169,323,o),
(188,414,o),
(214,498,cs),
(237,574,o),
(291,620,o),
(332,620,cs),
(376,620,o),
(395,581,o),
(383,542,cs),
(378,529,o),
(384,520,o),
(394,520,cs),
(425,520,o),
(454,538,o),
(460,561,cs),
(473,610,o),
(429,643,o),
(354,643,cs),
(253,643,o),
(159,559,o),
(131,434,cs),
(120,383,o),
(103,318,o),
(91,254,cs),
(70,149,o),
(18,-79,o),
(-37,-141,cs),
(-47,-153,o),
(-69,-165,o),
(-78,-165,cs),
(-86,-165,o),
(-89,-161,o),
(-94,-154,cs),
(-98,-148,o),
(-102,-142,o),
(-113,-142,cs),
(-145,-142,o),
(-168,-163,o),
(-177,-205,cs),
(-180,-220,o),
(-165,-234,o),
(-138,-234,cs)
);
},
{
closed = 1;
nodes = (
(258,357,l),
(278,406,l),
(98,402,l),
(11,382,l),
(7,369,l)
);
}
);
width = 250;
},
{
anchors = (
{
name = bottom;
pos = (101,0);
},
{
name = top;
pos = (295,637);
}
);
background = {
shapes = (
{
closed = 0;
nodes = (
(63,81,ls),
(52,33,o),
(23,-90,o),
(-19,-138,cs),
(-29,-150,o),
(-40,-157,o),
(-52,-157,cs),
(-71,-158,o),
(-68,-135,o),
(-87,-134,cs),
(-120,-134,o),
(-150,-163,o),
(-159,-205,cs),
(-163,-220,o),
(-148,-232,o),
(-122,-232,cs),
(-88,-232,o),
(-23,-190,o),
(1,-164,cs),
(64,-96,o),
(126,29,o),
(151,148,cs)
);
}
);
};
layerId = m006;
shapes = (
{
closed = 1;
nodes = (
(-113,-234,o),
(-62,-211,o),
(-27,-179,cs),
(59,-98,o),
(124,118,o),
(152,241,cs),
(169,323,o),
(188,414,o),
(214,498,cs),
(237,574,o),
(291,620,o),
(332,620,cs),
(376,620,o),
(395,581,o),
(383,542,cs),
(378,529,o),
(384,520,o),
(394,520,cs),
(425,520,o),
(454,538,o),
(460,561,cs),
(473,610,o),
(429,643,o),
(354,643,cs),
(253,643,o),
(159,559,o),
(131,434,cs),
(120,383,o),
(103,318,o),
(91,254,cs),
(70,149,o),
(18,-79,o),
(-37,-141,cs),
(-47,-153,o),
(-69,-165,o),
(-78,-165,cs),
(-86,-165,o),
(-89,-161,o),
(-94,-154,cs),
(-98,-148,o),
(-102,-142,o),
(-113,-142,cs),
(-145,-142,o),
(-168,-163,o),
(-177,-205,cs),
(-180,-220,o),
(-165,-234,o),
(-138,-234,cs)
);
},
{
closed = 1;
nodes = (
(258,357,l),
(278,406,l),
(98,402,l),
(11,382,l),
(7,369,l)
);
}
);
width = 250;
},
{
anchors = (
{
name = bottom;
pos = (101,0);
},
{
name = top;
pos = (295,637);
}
);
background = {
shapes = (
{
closed = 0;
nodes = (
(63,81,ls),
(52,33,o),
(23,-90,o),
(-19,-138,cs),
(-29,-150,o),
(-40,-157,o),
(-52,-157,cs),
(-71,-158,o),
(-68,-135,o),
(-87,-134,cs),
(-120,-134,o),
(-150,-163,o),
(-159,-205,cs),
(-163,-220,o),
(-148,-232,o),
(-122,-232,cs),
(-88,-232,o),
(-23,-190,o),
(1,-164,cs),
(64,-96,o),
(126,29,o),
(151,148,cs)
);
}
);
};
layerId = m004;
shapes = (
{
closed = 1;
nodes = (
(-113,-234,o),
(-62,-211,o),
(-27,-179,cs),
(59,-98,o),
(124,118,o),
(152,241,cs),
(169,323,o),
(188,414,o),
(214,498,cs),
(237,574,o),
(291,620,o),
(332,620,cs),
(376,620,o),
(395,581,o),
(383,542,cs),
(378,529,o),
(384,520,o),
(394,520,cs),
(425,520,o),
(454,538,o),
(460,561,cs),
(473,610,o),
(429,643,o),
(354,643,cs),
(253,643,o),
(159,559,o),
(131,434,cs),
(120,383,o),
(103,318,o),
(91,254,cs),
(70,149,o),
(18,-79,o),
(-37,-141,cs),
(-47,-153,o),
(-69,-165,o),
(-78,-165,cs),
(-86,-165,o),
(-89,-161,o),
(-94,-154,cs),
(-98,-148,o),
(-102,-142,o),
(-113,-142,cs),
(-145,-142,o),
(-168,-163,o),
(-177,-205,cs),
(-180,-220,o),
(-165,-234,o),
(-138,-234,cs)
);
},
{
closed = 1;
nodes = (
(258,357,l),
(278,406,l),
(98,402,l),
(11,382,l),
(7,369,l)
);
}
);
width = 250;
}
);
unicode = 102;
},
{
glyphname = g;
lastChange = "2025-04-24 18:07:01 +0000";
layers = (
{
anchors = (
{
name = bottom;
pos = (72,-230);
},
{
name = top;
pos = (265,402);
}
);
layerId = m003;
shapes = (
{
closed = 1;
nodes = (
(208,-203,o),
(298,-145,o),
(310,-81,cs),
(319,-32,o),
(293,7,o),
(206,40,cs),
(132,68,o),
(111,88,o),
(106,103,cs),
(98,126,o),
(134,140,o),
(169,142,c),
(169,146,l),
(124,154,l),
(84,148,o),
(56,123,o),
(49,101,cs),
(37,64,o),
(60,29,o),
(128,2,cs),
(226,-37,o),
(265,-64,o),
(264,-86,cs),
(262,-128,o),
(195,-167,o),
(130,-167,cs),
(14,-167,o),
(-54,-97,o),
(0,-10,cs),
(12,9,o),
(45,34,o),
(111,34,c),
(84,60,l),
(8,60,o),
(-62,-2,o),
(-73,-55,cs),
(-93,-136,o),
(-26,-203,o),
(89,-203,cs)
);
},
{
closed = 1;
nodes = (
(229,127,o),
(300,184,o),
(322,264,cs),
(347,351,o),
(308,414,o),
(229,414,cs),
(155,414,o),
(88,359,o),
(66,281,cs),
(42,192,o),
(78,127,o),
(152,127,cs)
);
},
{
closed = 1;
nodes = (
(131,154,o),
(109,208,o),
(136,288,cs),
(154,346,o),
(202,386,o),
(228,386,cs),
(259,386,o),
(272,332,o),
(250,253,cs),
(234,194,o),
(195,154,o),
(163,154,cs)
);
},
{
closed = 1;
nodes = (
(299,284,o),
(348,358,o),
(380,358,cs),
(383,358,o),
(387,357,o),
(391,356,cs),
(395,355,o),
(399,354,o),
(401,354,cs),
(412,354,o),
(427,368,o),
(434,386,cs),
(440,403,o),
(429,414,o),
(411,414,cs),
(367,414,o),
(300,332,o),
(250,220,c),
(264,178,l)
);
}
);
width = 391;
},
{
associatedMasterId = m003;
background = {
shapes = (
{
closed = 0;
nodes = (
(-67,-200,l),
(278,700,l)
);
},
{
closed = 0;
nodes = (
(8,-200,l),
(353,700,l)
);
},
{
closed = 0;
nodes = (
(148,-200,l),
(493,700,l)
);
},
{
closed = 0;
nodes = (
(223,-200,l),
(568,700,l)
);
},
{
closed = 0;
nodes = (
(-172,-200,l),
(173,700,l)
);
},
{
closed = 0;
nodes = (
(-142,-200,l),
(203,700,l)
);
},
{
closed = 0;
nodes = (
(298,-200,l),
(643,700,l)
);
},
{
closed = 0;
nodes = (
(328,-200,l),
(673,700,l)
);
}
);
};
layerId = "CD19AF2B-D444-4E18-A45E-DA9D7905EDAB";
name = "6. Nov. 24, 23:26";
shapes = (
{
closed = 1;
nodes = (
(199,-248,o),
(311,-189,o),
(339,-100,cs),
(353,-51,o),
(314,-3,o),
(245,16,cs),
(162,38,o),
(104,68,o),
(104,88,cs),
(104,101,o),
(126,128,o),
(157,154,c),
(123,163,l),
(88,130,o),
(60,97,o),
(55,83,cs),
(39,39,o),
(55,0,o),
(93,-11,cs),
(202,-41,o),
(271,-89,o),
(261,-126,cs),
(250,-165,o),
(192,-196,o),
(120,-201,cs),
(-1,-209,o),
(-69,-161,o),
(-44,-85,cs),
(-31,-48,o),
(30,-6,o),
(103,18,c),
(81,45,l),
(-35,9,o),
(-124,-51,o),
(-134,-101,cs),
(-153,-191,o),
(-69,-249,o),
(68,-241,cs)
);
},
{
closed = 1;
nodes = (
(229,132,o),
(298,192,o),
(328,279,cs),
(367,399,o),
(333,482,o),
(244,479,cs),
(166,476,o),
(88,411,o),
(57,323,cs),
(16,206,o),
(58,128,o),
(160,135,cs)
);
},
{
closed = 1;
nodes = (
(125,182,o),
(111,246,o),
(140,339,cs),
(157,394,o),
(188,434,o),
(216,435,cs),
(263,437,o),
(274,366,o),
(243,264,cs),
(228,215,o),
(199,182,o),
(171,184,cs)
);
},
{
closed = 1;
nodes = (
(337,397,o),
(345,432,o),
(367,434,cs),
(384,435,o),
(430,405,o),
(441,389,c),
(470,411,l),
(463,454,o),
(444,484,o),
(424,484,cs),
(378,484,o),
(323,451,o),
(292,404,c),
(310,377,l)
);
}
);
width = 414;
},
{
anchors = (
{
name = bottom;
pos = (72,-230);
},
{
name = top;
pos = (265,402);
}
);
layerId = m005;
shapes = (
{
closed = 1;
nodes = (
(208,-193,o),
(313,-145,o),
(320,-81,cs),
(325,-32,o),
(293,10,o),
(179,50,cs),
(132,67,o),
(111,88,o),
(106,103,cs),
(98,126,o),
(134,140,o),
(169,142,c),
(169,146,l),
(124,154,l),
(84,148,o),
(56,123,o),
(49,101,cs),
(37,64,o),
(93,11,o),
(171,-20,cs),
(226,-42,o),
(265,-64,o),
(264,-86,cs),
(262,-128,o),
(195,-157,o),
(130,-157,cs),
(14,-157,o),
(-54,-97,o),
(0,-10,cs),
(12,9,o),
(45,34,o),
(111,34,c),
(84,60,l),
(8,60,o),
(-62,-2,o),
(-73,-55,cs),
(-93,-136,o),
(-26,-193,o),
(89,-193,cs)
);
},
{
closed = 1;
nodes = (
(229,127,o),
(300,184,o),
(322,264,cs),
(347,351,o),
(308,414,o),
(229,414,cs),
(155,414,o),
(88,359,o),
(66,281,cs),
(42,192,o),
(78,127,o),
(152,127,cs)
);
},
{
closed = 1;
nodes = (
(131,154,o),
(109,208,o),
(136,288,cs),
(154,346,o),
(202,386,o),
(228,386,cs),
(259,386,o),
(272,332,o),
(250,253,cs),
(234,194,o),
(195,154,o),
(163,154,cs)
);
},
{
closed = 1;
nodes = (
(299,284,o),
(348,358,o),
(380,358,cs),
(383,358,o),
(387,357,o),
(391,356,cs),
(395,355,o),
(399,354,o),
(401,354,cs),
(412,354,o),
(427,368,o),
(434,386,cs),
(440,403,o),
(429,414,o),
(411,414,cs),
(367,414,o),
(300,332,o),
(250,220,c),
(264,178,l)
);
}
);
width = 401;
},
{
associatedMasterId = m005;
background = {
shapes = (
{
closed = 0;
nodes = (
(-67,-200,l),
(278,700,l)
);
},
{
closed = 0;
nodes = (
(8,-200,l),
(353,700,l)
);
},
{
closed = 0;
nodes = (
(148,-200,l),
(493,700,l)
);
},
{
closed = 0;
nodes = (
(223,-200,l),
(568,700,l)
);
},
{
closed = 0;
nodes = (
(-172,-200,l),
(173,700,l)
);
},
{
closed = 0;
nodes = (
(-142,-200,l),
(203,700,l)
);
},
{
closed = 0;
nodes = (
(298,-200,l),
(643,700,l)
);
},
{
closed = 0;
nodes = (
(328,-200,l),
(673,700,l)
);
}
);
};
layerId = "02DC47BF-F417-4C5C-8C70-E399FE0532E1";
name = "6. Nov. 24, 23:26";
shapes = (
{
closed = 1;
nodes = (
(199,-248,o),
(311,-189,o),
(339,-100,cs),
(353,-51,o),
(314,-3,o),
(245,16,cs),
(162,38,o),
(104,68,o),
(104,88,cs),
(104,101,o),
(126,128,o),
(157,154,c),
(123,163,l),
(88,130,o),
(60,97,o),
(55,83,cs),
(39,39,o),
(55,0,o),
(93,-11,cs),
(202,-41,o),
(271,-89,o),
(261,-126,cs),
(250,-165,o),
(192,-196,o),
(120,-201,cs),
(-1,-209,o),
(-69,-161,o),
(-44,-85,cs),
(-31,-48,o),
(30,-6,o),
(103,18,c),
(81,45,l),
(-35,9,o),
(-124,-51,o),
(-134,-101,cs),
(-153,-191,o),
(-69,-249,o),
(68,-241,cs)
);
},
{
closed = 1;
nodes = (
(229,132,o),
(298,192,o),
(328,279,cs),
(367,399,o),
(333,482,o),
(244,479,cs),
(166,476,o),
(88,411,o),
(57,323,cs),
(16,206,o),
(58,128,o),
(160,135,cs)
);
},
{
closed = 1;
nodes = (
(125,182,o),
(111,246,o),
(140,339,cs),
(157,394,o),
(188,434,o),
(216,435,cs),
(263,437,o),
(274,366,o),
(243,264,cs),
(228,215,o),
(199,182,o),
(171,184,cs)
);
},
{
closed = 1;
nodes = (
(337,397,o),
(345,432,o),
(367,434,cs),
(384,435,o),
(430,405,o),
(441,389,c),
(470,411,l),
(463,454,o),
(444,484,o),
(424,484,cs),
(378,484,o),
(323,451,o),
(292,404,c),
(310,377,l)
);
}
);
width = 414;
},
{
anchors = (
{
name = bottom;
pos = (72,-230);
},
{
name = top;
pos = (265,402);
}
);
layerId = m006;
shapes = (
{
closed = 1;
nodes = (
(216,-193,o),
(331,-145,o),
(338,-81,cs),
(343,-32,o),
(301,10,o),
(187,50,cs),
(140,67,o),
(111,88,o),
(106,103,cs),
(98,126,o),
(134,140,o),
(169,142,c),
(169,146,l),
(124,154,l),
(84,148,o),
(56,123,o),
(49,101,cs),
(37,64,o),
(101,11,o),
(179,-20,cs),
(234,-42,o),
(283,-64,o),
(282,-86,cs),
(280,-128,o),
(203,-157,o),
(138,-157,cs),
(22,-157,o),
(-54,-97,o),
(0,-10,cs),
(12,9,o),
(45,34,o),
(111,34,c),
(84,60,l),
(8,60,o),
(-62,-2,o),
(-73,-55,cs),
(-93,-136,o),
(-18,-193,o),
(97,-193,cs)
);
},
{
closed = 1;
nodes = (
(237,127,o),
(318,184,o),
(340,264,cs),
(365,351,o),
(316,414,o),
(237,414,cs),
(163,414,o),
(88,359,o),
(66,281,cs),
(42,192,o),
(86,127,o),
(160,127,cs)
);
},
{
closed = 1;
nodes = (
(139,154,o),
(109,208,o),
(136,288,cs),
(154,346,o),
(210,386,o),
(236,386,cs),
(267,386,o),
(290,332,o),
(268,253,cs),
(252,194,o),
(203,154,o),
(171,154,cs)
);
},
{
closed = 1;
nodes = (
(317,284,o),
(366,358,o),
(398,358,cs),
(401,358,o),
(405,357,o),
(409,356,cs),
(413,355,o),
(417,354,o),
(419,354,cs),
(430,354,o),
(445,368,o),
(452,386,cs),
(458,403,o),
(447,414,o),
(429,414,cs),
(385,414,o),
(318,332,o),
(268,220,c),
(282,178,l)
);
}
);
width = 419;
},
{
associatedMasterId = m006;
background = {
shapes = (
{
closed = 0;
nodes = (
(-67,-200,l),
(278,700,l)
);
},
{
closed = 0;
nodes = (
(8,-200,l),
(353,700,l)
);
},
{
closed = 0;
nodes = (
(148,-200,l),
(493,700,l)
);
},
{
closed = 0;
nodes = (
(223,-200,l),
(568,700,l)
);
},
{
closed = 0;
nodes = (
(-172,-200,l),
(173,700,l)
);
},
{
closed = 0;
nodes = (
(-142,-200,l),
(203,700,l)
);
},
{
closed = 0;
nodes = (
(298,-200,l),
(643,700,l)
);
},
{
closed = 0;
nodes = (
(328,-200,l),
(673,700,l)
);
}
);
};
layerId = "95DAC940-3DA8-41AC-91C7-82F81F4EFF60";
name = "6. Nov. 24, 23:26";
shapes = (
{
closed = 1;
nodes = (
(199,-248,o),
(311,-189,o),
(339,-100,cs),
(353,-51,o),
(314,-3,o),
(245,16,cs),
(162,38,o),
(104,68,o),
(104,88,cs),
(104,101,o),
(126,128,o),
(157,154,c),
(123,163,l),
(88,130,o),
(60,97,o),
(55,83,cs),
(39,39,o),
(55,0,o),
(93,-11,cs),
(202,-41,o),
(271,-89,o),
(261,-126,cs),
(250,-165,o),
(192,-196,o),
(120,-201,cs),
(-1,-209,o),
(-69,-161,o),
(-44,-85,cs),
(-31,-48,o),
(30,-6,o),
(103,18,c),
(81,45,l),
(-35,9,o),
(-124,-51,o),
(-134,-101,cs),
(-153,-191,o),
(-69,-249,o),
(68,-241,cs)
);
},
{
closed = 1;
nodes = (
(229,132,o),
(298,192,o),
(328,279,cs),
(367,399,o),
(333,482,o),
(244,479,cs),
(166,476,o),
(88,411,o),
(57,323,cs),
(16,206,o),
(58,128,o),
(160,135,cs)
);
},
{
closed = 1;
nodes = (
(125,182,o),
(111,246,o),
(140,339,cs),
(157,394,o),
(188,434,o),
(216,435,cs),
(263,437,o),
(274,366,o),
(243,264,cs),
(228,215,o),
(199,182,o),
(171,184,cs)
);
},
{
closed = 1;
nodes = (
(337,397,o),
(345,432,o),
(367,434,cs),
(384,435,o),
(430,405,o),
(441,389,c),
(470,411,l),
(463,454,o),
(444,484,o),
(424,484,cs),
(378,484,o),
(323,451,o),
(292,404,c),
(310,377,l)
);
}
);
width = 414;
},
{
anchors = (
{
name = bottom;
pos = (72,-230);
},
{
name = top;
pos = (265,402);
}
);
layerId = m004;
shapes = (
{
closed = 1;
nodes = (
(198,-193,o),
(295,-145,o),
(302,-81,cs),
(307,-32,o),
(283,10,o),
(169,50,cs),
(122,67,o),
(111,88,o),
(106,103,cs),
(98,126,o),
(134,140,o),
(169,142,c),
(169,146,l),
(124,154,l),
(84,148,o),
(56,123,o),
(49,101,cs),
(37,64,o),
(83,11,o),
(161,-20,cs),
(216,-42,o),
(247,-64,o),
(246,-86,cs),
(244,-128,o),
(185,-157,o),
(120,-157,cs),
(4,-157,o),
(-54,-97,o),
(0,-10,cs),
(12,9,o),
(45,34,o),
(111,34,c),
(84,60,l),
(8,60,o),
(-62,-2,o),
(-73,-55,cs),
(-93,-136,o),
(-36,-193,o),
(79,-193,cs)
);
},
{
closed = 1;
nodes = (
(221,127,o),
(282,184,o),
(304,264,cs),
(329,351,o),
(300,414,o),
(221,414,cs),
(147,414,o),
(88,359,o),
(66,281,cs),
(42,192,o),
(70,127,o),
(144,127,cs)
);
},
{
closed = 1;
nodes = (
(123,154,o),
(109,208,o),
(136,288,cs),
(154,346,o),
(194,386,o),
(220,386,cs),
(251,386,o),
(254,332,o),
(232,253,cs),
(216,194,o),
(187,154,o),
(155,154,cs)
);
},
{
closed = 1;
nodes = (
(281,284,o),
(330,358,o),
(362,358,cs),
(365,358,o),
(369,357,o),
(373,356,cs),
(377,355,o),
(381,354,o),
(383,354,cs),
(394,354,o),
(409,368,o),
(416,386,cs),
(422,403,o),
(411,414,o),
(393,414,cs),
(349,414,o),
(282,332,o),
(232,220,c),
(246,178,l)
);
}
);
width = 383;
},
{
associatedMasterId = m004;
background = {
shapes = (
{
closed = 0;
nodes = (
(-67,-200,l),
(278,700,l)
);
},
{
closed = 0;
nodes = (
(8,-200,l),
(353,700,l)
);
},
{
closed = 0;
nodes = (
(148,-200,l),
(493,700,l)
);
},
{
closed = 0;
nodes = (
(223,-200,l),
(568,700,l)
);
},
{
closed = 0;
nodes = (
(-172,-200,l),
(173,700,l)
);
},
{
closed = 0;
nodes = (
(-142,-200,l),
(203,700,l)
);
},
{
closed = 0;
nodes = (
(298,-200,l),
(643,700,l)
);
},
{
closed = 0;
nodes = (
(328,-200,l),
(673,700,l)
);
}
);
};
layerId = "59494BD9-3039-4A5C-AA75-3F7C608130B9";
name = "6. Nov. 24, 23:26";
shapes = (
{
closed = 1;
nodes = (
(199,-248,o),
(311,-189,o),
(339,-100,cs),
(353,-51,o),
(314,-3,o),
(245,16,cs),
(162,38,o),
(104,68,o),
(104,88,cs),
(104,101,o),
(126,128,o),
(157,154,c),
(123,163,l),
(88,130,o),
(60,97,o),
(55,83,cs),
(39,39,o),
(55,0,o),
(93,-11,cs),
(202,-41,o),
(271,-89,o),
(261,-126,cs),
(250,-165,o),
(192,-196,o),
(120,-201,cs),
(-1,-209,o),
(-69,-161,o),
(-44,-85,cs),
(-31,-48,o),
(30,-6,o),
(103,18,c),
(81,45,l),
(-35,9,o),
(-124,-51,o),
(-134,-101,cs),
(-153,-191,o),
(-69,-249,o),
(68,-241,cs)
);
},
{
closed = 1;
nodes = (
(229,132,o),
(298,192,o),
(328,279,cs),
(367,399,o),
(333,482,o),
(244,479,cs),
(166,476,o),
(88,411,o),
(57,323,cs),
(16,206,o),
(58,128,o),
(160,135,cs)
);
},
{
closed = 1;
nodes = (
(125,182,o),
(111,246,o),
(140,339,cs),
(157,394,o),
(188,434,o),
(216,435,cs),
(263,437,o),
(274,366,o),
(243,264,cs),
(228,215,o),
(199,182,o),
(171,184,cs)
);
},
{
closed = 1;
nodes = (
(337,397,o),
(345,432,o),
(367,434,cs),
(384,435,o),
(430,405,o),
(441,389,c),
(470,411,l),
(463,454,o),
(444,484,o),
(424,484,cs),
(378,484,o),
(323,451,o),
(292,404,c),
(310,377,l)
);
}
);
width = 414;
}
);
unicode = 103;
},
